<svg version="1.1" id="Layer_1" xmlns="http://www.w3.org/2000/svg" xmlns:xlink="http://www.w3.org/1999/xlink" x="0px" y="0px"
	 width="100%" viewBox="0 0 790 257" enable-background="new 0 0 790 257" xml:space="preserve">
<path fill="#162A36" opacity="1.000000" stroke="none" 
	d="
M571.000000,258.000000 
	C380.711975,258.000000 190.923920,258.000000 1.067941,258.000000 
	C1.067941,172.399109 1.067941,86.798157 1.067941,1.098600 
	C264.333313,1.098600 527.666626,1.098600 790.973572,1.098600 
	C790.973572,86.742798 790.973572,172.371399 790.973572,258.000000 
	C717.798096,258.000000 644.649048,258.000000 571.000000,258.000000 
M389.796936,90.617508 
	C389.857178,94.765694 389.917450,98.913887 390.019623,103.015976 
	C390.019623,103.015976 390.045990,102.959496 389.347717,102.848129 
	C386.555847,107.245041 383.763977,111.641953 381.008331,116.013168 
	C381.008331,116.013168 381.025421,115.972183 380.600586,115.621689 
	C380.214722,116.179680 379.828827,116.737671 378.992950,117.873177 
	C378.010986,119.491821 377.028992,121.110466 375.321411,123.210335 
	C375.687622,123.810616 376.050446,124.933388 376.420502,124.935753 
	C390.378906,125.025032 404.337982,125.011185 419.478851,125.011185 
	C418.010864,123.789978 417.485809,123.353188 416.984558,122.978477 
	C416.984558,122.978477 417.027496,123.029213 417.228668,122.323082 
	C416.475922,121.535538 415.723206,120.747993 414.991272,120.005936 
	C414.991272,120.005936 415.029541,120.038109 415.229248,119.309761 
	C411.422272,113.245209 407.615295,107.180649 403.925018,100.170547 
	C403.862122,92.758316 403.799225,85.346077 403.619781,77.146111 
	C399.345886,76.859428 395.026337,76.185242 390.844177,76.677711 
	C390.168243,76.757309 390.029877,82.017387 389.785950,84.894928 
	C389.661163,86.366959 389.852844,87.865807 389.888580,89.500610 
	C389.888580,89.500610 389.894592,89.649536 389.796936,90.617508 
M204.940430,168.421005 
	C204.656479,168.249298 204.372528,168.077591 203.702255,167.244522 
	C198.624878,165.110550 195.201965,165.839096 192.868408,169.550369 
	C190.763245,172.898453 191.566208,178.536880 194.499023,181.000626 
	C197.931671,183.884277 201.654175,183.637329 205.340759,180.281433 
	C196.775375,181.489639 195.010529,180.679123 194.448288,174.923401 
	C198.591537,174.923401 202.703659,174.923401 208.036896,174.923401 
	C206.803360,172.403931 205.947861,170.656540 204.940430,168.421005 
M221.069901,182.464050 
	C221.376953,182.308975 221.684006,182.153900 222.314026,181.191772 
	C222.353104,178.865799 222.338638,176.537384 222.444885,174.214478 
	C222.576569,171.334824 222.678467,168.222000 226.558182,167.954407 
	C230.714264,167.667786 231.374344,170.878220 231.644684,173.931641 
	C231.899887,176.813965 231.699493,179.736618 231.699493,182.641541 
	C232.408447,182.643341 233.117416,182.645142 233.826370,182.646942 
	C233.826370,179.848801 233.864807,177.049973 233.816299,174.252670 
	C233.760345,171.025681 234.132172,167.843628 238.246353,167.900101 
	C242.256699,167.955185 242.711502,171.235031 242.814957,174.363144 
	C242.903778,177.049133 242.833359,179.740417 242.833359,182.429352 
	C243.528183,182.440414 244.223007,182.451492 244.917831,182.462555 
	C244.917831,179.658478 245.471481,176.705338 244.767532,174.090790 
	C244.010910,171.280670 242.673172,167.771255 240.466904,166.471146 
	C238.618118,165.381653 235.153915,167.033478 232.404984,167.471512 
	C232.486481,167.338074 232.567978,167.204651 232.649475,167.071228 
	C228.658798,166.757141 224.668106,166.443069 220.088699,166.082657 
	C220.380981,171.843704 220.639786,176.944916 221.069901,182.464050 
M348.368835,100.433487 
	C339.967773,100.433487 331.566711,100.433487 323.305908,100.433487 
	C323.305908,109.252983 323.305908,116.807396 323.305908,124.328285 
	C327.938019,124.328285 332.172882,124.328285 336.930878,124.328285 
	C336.930878,120.031013 336.930878,116.112534 336.930878,112.330811 
	C342.000427,110.978607 345.444458,111.987427 347.609039,116.578789 
	C348.658539,118.804893 350.247986,120.820328 351.835266,122.729698 
	C352.585602,123.632278 353.877289,124.552345 354.973022,124.616043 
	C358.871033,124.842628 362.790253,124.704544 367.711334,124.704544 
	C363.943451,119.026138 360.791290,114.275673 357.530518,109.361542 
	C358.292175,108.777649 358.668518,108.454254 359.078033,108.180428 
	C365.261261,104.045921 367.570679,98.287582 366.448883,90.989838 
	C365.261230,83.263680 360.432770,78.263191 353.232574,77.243477 
	C343.328522,75.840851 333.203918,75.995689 323.249146,75.487106 
	C323.249146,79.933205 323.249146,83.183182 323.249146,86.941788 
	C330.700317,86.941788 337.824402,86.920387 344.948273,86.950661 
	C348.602478,86.966194 351.596527,88.311188 352.584381,92.071411 
	C353.473358,95.455254 352.333801,98.294800 348.368835,100.433487 
M729.595337,123.108025 
	C726.543518,118.619560 723.491699,114.131104 720.371460,109.542015 
	C721.366821,108.771332 722.011841,108.263870 722.665161,107.767303 
	C728.766785,103.129570 730.603149,96.906570 729.047729,89.653450 
	C727.570801,82.766678 722.843689,78.153313 716.264587,77.264809 
	C706.339600,75.924416 696.225342,75.985115 686.105103,75.445709 
	C686.105103,79.833229 686.105103,83.082108 686.105103,86.848701 
	C688.343567,86.848701 690.297913,86.831337 692.251831,86.851990 
	C697.905273,86.911736 703.561462,86.900032 709.210876,87.086700 
	C712.895935,87.208458 715.482605,89.488602 715.372253,92.947403 
	C715.295776,95.343338 713.700562,98.185516 711.890137,99.864639 
	C710.594971,101.065804 707.822815,100.904396 705.702271,100.942917 
	C699.133362,101.062248 692.560852,100.986534 686.065125,100.986534 
	C686.065125,109.238640 686.065125,116.681183 686.065125,124.382050 
	C690.526978,124.382050 694.736511,124.382050 699.536926,124.382050 
	C699.536926,120.154617 699.536926,116.252892 699.536926,112.458611 
	C706.814880,111.317108 706.814880,111.317116 711.092041,117.677269 
	C716.152588,125.202194 720.510376,126.649277 729.595337,123.108025 
M219.545639,114.962608 
	C220.785263,116.522911 221.928482,118.173874 223.289124,119.620346 
	C224.953293,121.389496 226.615845,124.104050 228.604797,124.431503 
	C233.033691,125.160637 237.665161,124.659081 243.241882,124.659081 
	C235.855804,115.030289 229.218567,106.377693 222.417755,97.511887 
	C228.859238,90.460739 235.156754,83.567184 242.145660,75.916809 
	C237.021530,75.916809 233.054871,75.761787 229.112793,76.005104 
	C227.820480,76.084869 226.296646,76.918182 225.380188,77.883179 
	C216.570801,87.159088 208.241241,96.927071 199.003601,105.746933 
	C192.948990,111.527725 194.659576,117.835602 194.749924,124.426842 
	C199.428970,124.426842 203.524612,124.426842 207.570160,124.426842 
	C209.665283,110.587814 209.665283,110.587814 213.597595,107.374512 
	C215.424347,109.724792 217.249588,112.073158 219.545639,114.962608 
M312.009766,82.404083 
	C312.009766,80.318390 312.009766,78.232689 312.009766,76.326385 
	C297.049438,76.326385 282.830109,76.326385 268.631592,76.326385 
	C268.631592,79.992722 268.631592,83.243973 268.631592,86.995575 
	C273.546570,86.995575 278.131989,86.995575 283.239655,86.995575 
	C283.239655,99.724159 283.239655,111.955170 283.239655,124.442841 
	C288.030212,124.442841 292.274414,124.442841 297.041168,124.442841 
	C297.041168,111.955658 297.041168,99.720200 297.041168,86.938477 
	C301.160553,86.938477 304.786163,86.776695 308.389557,86.990158 
	C311.223175,87.158020 312.441650,86.191238 312.009766,82.404083 
M572.675903,114.061844 
	C565.545776,114.061844 558.415588,114.061844 550.572144,114.061844 
	C550.572144,101.024307 550.572144,88.631531 550.572144,76.228294 
	C545.609863,76.228294 541.373047,76.228294 537.130249,76.228294 
	C537.130249,92.492691 537.130249,108.436798 537.130249,124.230865 
	C549.493347,124.230865 561.527527,124.230865 573.854309,124.230865 
	C573.854309,121.916466 573.898315,120.095726 573.839600,118.278290 
	C573.796997,116.959877 573.618286,115.645851 572.675903,114.061844 
M113.623337,75.926758 
	C109.182571,76.404732 108.532234,78.562050 110.551086,87.000809 
	C115.002678,87.000809 119.587463,87.000809 124.738205,87.000809 
	C124.738205,99.707474 124.738205,111.937614 124.738205,124.294563 
	C129.527176,124.294563 133.725494,124.294563 138.500519,124.294563 
	C138.500519,111.665985 138.500519,99.436264 138.500519,86.776558 
	C143.681900,86.776558 148.283051,86.776558 152.899231,86.776558 
	C152.899231,82.947418 152.899231,79.578033 152.899231,75.926102 
	C139.863403,75.926102 127.231461,75.926102 113.623337,75.926758 
M584.988831,87.519623 
	C584.988831,99.761612 584.988831,112.003601 584.988831,124.364555 
	C597.641113,124.364555 609.678650,124.364555 621.726868,124.364555 
	C621.726868,120.751289 621.726868,117.493629 621.726868,113.713295 
	C614.059570,113.713295 606.661377,113.713295 598.813782,113.713295 
	C598.813782,100.954659 598.813782,88.720055 598.813782,76.267677 
	C593.985046,76.267677 589.633789,76.267677 584.988831,76.267677 
	C584.988831,79.917564 584.988831,83.222145 584.988831,87.519623 
M467.650940,95.230011 
	C470.254578,89.000671 472.858246,82.771339 475.726074,75.909935 
	C472.403259,75.909935 469.892822,76.170631 467.458252,75.851860 
	C463.287842,75.305809 461.236450,76.944527 459.877930,80.930710 
	C457.958344,86.563271 455.281677,91.936760 452.951508,97.430695 
	C449.215027,106.240288 445.497314,115.057823 441.410187,124.727173 
	C444.694122,124.727173 447.154846,124.480713 449.546600,124.781921 
	C453.670898,125.301323 455.696747,123.719307 457.172394,119.752266 
	C460.180756,111.664795 463.857666,103.826004 467.650940,95.230011 
M55.261906,87.530533 
	C55.261906,99.785553 55.261906,112.040573 55.261906,124.479385 
	C60.073654,124.479385 64.311508,124.479385 68.732437,124.479385 
	C68.732437,108.203758 68.732437,92.204819 68.732437,76.298309 
	C64.125809,76.298309 59.894661,76.298309 55.261917,76.298309 
	C55.261917,79.947594 55.261917,83.245224 55.261906,87.530533 
M84.869705,115.445633 
	C84.869705,118.381653 84.869705,121.317680 84.869705,124.489746 
	C89.712601,124.489746 93.943459,124.489746 98.300339,124.489746 
	C98.300339,108.222336 98.300339,92.225433 98.300339,76.281754 
	C93.657936,76.281754 89.419525,76.281754 84.869705,76.281754 
	C84.869705,89.235382 84.869705,101.848648 84.869705,115.445633 
M522.063232,76.166992 
	C509.528351,76.166992 496.993500,76.166992 484.361176,76.166992 
	C484.361176,79.751740 484.361176,82.968216 484.361176,86.246651 
	C497.304718,86.246651 509.930115,86.246651 522.683777,86.246651 
	C522.683777,82.795578 522.683777,79.826546 522.063232,76.166992 
M670.799622,86.444275 
	C671.237610,83.049545 671.675659,79.654808 672.117004,76.234177 
	C658.492249,76.234177 645.959045,76.234177 633.380371,76.234177 
	C633.380371,79.786392 633.380371,83.002182 633.380371,86.666534 
	C645.778992,86.666534 657.851013,86.666534 670.799622,86.444275 
M649.502136,113.980003 
	C644.083496,113.980003 638.664856,113.980003 633.295654,113.980003 
	C633.295654,117.868217 633.295654,120.976585 633.295654,124.262726 
	C646.212158,124.262726 658.876953,124.262726 671.590698,124.262726 
	C671.590698,120.692734 671.590698,117.594025 671.590698,113.980003 
	C664.387756,113.980003 657.444580,113.980003 649.502136,113.980003 
M516.369263,113.980003 
	C505.760132,113.980003 495.150970,113.980003 484.345520,113.980003 
	C484.345520,117.715866 484.345520,120.936584 484.345520,124.389130 
	C497.195435,124.389130 509.746948,124.389130 522.539978,124.389130 
	C522.539978,120.828407 522.539978,117.613152 522.539978,113.980026 
	C520.599854,113.980026 518.964722,113.980026 516.369263,113.980003 
M633.222839,95.757942 
	C633.222839,98.694641 633.222839,101.631340 633.222839,104.694313 
	C646.216125,104.694313 658.854614,104.694313 671.469482,104.694313 
	C671.469482,101.253746 671.469482,98.201767 671.469482,95.066719 
	C658.690918,95.066719 646.277527,95.066719 633.222839,95.757942 
M517.331177,105.073997 
	C519.085144,104.991470 520.839172,104.908951 522.582886,104.826904 
	C522.582886,101.296700 522.582886,98.356766 522.582886,95.255455 
	C509.647888,95.255455 496.969208,95.255455 484.478210,95.255455 
	C484.478210,98.754173 484.478210,101.815918 484.478210,105.074036 
	C495.381531,105.074036 505.875641,105.074036 517.331177,105.073997 
M437.838989,81.551132 
	C435.238525,75.409950 430.679108,74.093178 420.884766,76.818260 
	C425.274017,87.133698 429.646759,97.410370 434.339844,108.439827 
	C437.914490,99.355461 444.934082,91.782646 437.838989,81.551132 
M167.560654,99.797592 
	C165.161514,99.797592 162.762375,99.797592 160.454605,99.797592 
	C160.454605,103.645020 160.454605,106.679825 160.454605,109.676865 
	C167.219986,109.676865 173.603516,109.676865 180.184357,109.676865 
	C180.184357,106.333328 180.184357,103.265831 180.184357,99.797592 
	C176.111206,99.797592 172.322525,99.797592 167.560654,99.797592 
M208.065140,77.425613 
	C203.699020,76.731621 199.332901,76.037628 194.769012,75.312195 
	C194.769012,82.890045 194.769012,89.099434 194.769012,96.257965 
	C198.765137,92.015152 202.336334,88.607780 205.403625,84.795029 
	C206.811646,83.044823 207.230392,80.498779 208.065140,77.425613 
M276.908478,187.005875 
	C275.465576,186.659454 274.022675,186.313034 271.371643,185.676544 
	C275.260315,189.540405 279.179993,190.485443 282.200500,188.406586 
	C284.664703,186.710587 286.144714,183.116257 287.243286,180.068817 
	C287.978058,178.030624 287.472351,175.451904 287.184296,173.157425 
	C286.539093,168.018433 282.343811,165.033127 277.242462,165.875778 
	C272.264923,166.697983 269.016968,171.669464 270.221039,176.623184 
	C271.360443,181.311050 276.342865,184.145309 281.087585,182.723846 
	C282.268616,182.370041 283.361511,181.722046 285.025848,180.969070 
	C284.188385,185.713837 281.783539,187.451218 276.908478,187.005875 
M584.176514,184.199158 
	C584.323669,186.063034 584.470764,187.926895 584.617920,189.790771 
	C585.044006,189.793137 585.470093,189.795502 585.896179,189.797852 
	C586.150330,187.038101 586.404541,184.278336 586.682861,181.255844 
	C587.880554,181.663101 588.499512,181.856308 589.106201,182.082535 
	C595.022827,184.288834 599.716736,182.260422 601.344727,176.788376 
	C602.823303,171.818787 599.813721,166.805481 594.814819,165.910904 
	C589.218933,164.909500 584.889893,168.272049 584.296509,174.352280 
	C584.008240,177.306915 584.201294,180.308548 584.176514,184.199158 
M524.730164,179.622574 
	C524.943909,180.580933 525.157593,181.539291 525.507080,183.106262 
	C528.444946,179.189590 524.430420,173.558563 529.963196,171.184219 
	C533.028625,175.168167 536.016541,179.051331 539.004456,182.934494 
	C539.476868,182.580429 539.949280,182.226364 540.421692,181.872284 
	C537.431274,177.691467 534.440857,173.510635 531.391296,169.247055 
	C534.588867,165.865402 537.475891,162.812134 540.362976,159.758881 
	C539.920837,159.351242 539.478699,158.943604 539.036499,158.535965 
	C535.255981,162.250519 531.475464,165.965057 527.160889,170.204376 
	C526.854919,165.752472 526.626587,162.429535 526.398254,159.106613 
	C525.841370,159.119354 525.284546,159.132095 524.727661,159.144852 
	C524.727661,165.690643 524.727661,172.236450 524.730164,179.622574 
M183.389206,169.135513 
	C184.325989,173.587814 185.262756,178.040115 186.325821,183.092636 
	C188.951233,170.995346 186.683777,163.001328 174.138367,166.862625 
	C173.885117,164.235184 173.636597,161.656601 173.388062,159.078003 
	C172.983856,159.120636 172.579666,159.163284 172.175476,159.205933 
	C172.175476,166.977188 172.175476,174.748459 172.175476,182.519730 
	C172.601425,182.538284 173.027390,182.556839 173.453339,182.575394 
	C173.577316,180.052429 174.026794,177.494339 173.759018,175.013687 
	C173.160233,169.466324 176.981430,166.364334 183.389206,169.135513 
M318.014160,173.699173 
	C319.034790,181.740936 323.414490,184.596390 330.673950,182.142960 
	C331.937012,181.716080 333.468201,182.082489 334.918030,182.082489 
	C336.505066,172.986359 334.687958,167.533936 329.470062,166.025299 
	C324.481842,164.583054 320.258820,167.145966 318.014160,173.699173 
M421.081268,163.407898 
	C421.002472,164.801056 420.923676,166.194229 420.841553,167.646271 
	C418.876709,166.948471 417.389099,166.171890 415.815552,165.908157 
	C411.197723,165.134140 406.939972,168.028976 406.062622,172.337341 
	C405.088806,177.119308 407.769775,181.661987 412.239563,182.803802 
	C416.830872,183.976685 422.237396,181.380493 422.717194,176.897766 
	C423.336578,171.110565 422.868134,165.206909 422.868134,159.353409 
	C422.495209,159.308929 422.122253,159.264435 421.749329,159.219940 
	C421.527191,160.337708 421.305054,161.455460 421.081268,163.407898 
M257.613556,165.765945 
	C251.050339,167.007172 247.784912,171.309525 249.260376,176.771683 
	C250.672226,181.998306 255.753937,184.091202 261.710419,182.110870 
	C262.970093,181.692062 264.488007,182.049911 265.927002,182.049911 
	C267.646393,171.541962 265.760040,167.434494 257.613556,165.765945 
M369.740295,166.247421 
	C364.267639,169.301666 362.621033,173.138000 364.718811,177.946732 
	C366.739594,182.578964 371.035461,183.956436 376.819153,182.058807 
	C378.037506,181.659073 379.499084,182.000656 380.889709,182.000656 
	C382.432922,169.627808 379.743622,165.442703 369.740295,166.247421 
M544.606628,181.082962 
	C549.251831,181.581100 553.897034,182.079254 558.916565,182.617538 
	C558.708374,176.358749 560.847046,169.985947 554.020813,166.631485 
	C550.298157,164.802109 546.380066,165.298279 543.680420,168.765442 
	C540.660583,172.643875 540.873230,176.739288 544.606628,181.082962 
M501.737671,181.163040 
	C502.251923,181.055786 503.212738,180.959305 503.215607,180.839722 
	C503.307587,177.025024 503.315338,173.208084 503.318176,169.391495 
	C503.324249,161.265717 503.320801,161.268997 511.098907,159.943924 
	C511.249969,159.918198 511.339355,159.530548 511.507111,159.220032 
	C505.436798,159.220032 499.467651,159.220032 493.498535,159.220032 
	C494.440735,160.155502 495.424591,160.429840 496.342438,160.285278 
	C500.934418,159.562027 502.050781,161.715271 501.757538,165.933365 
	C501.424530,170.722458 501.688629,175.553055 501.737671,181.163040 
M563.619568,179.674622 
	C563.845276,180.605530 564.070984,181.536423 564.296692,182.467316 
	C565.389099,179.701920 565.393738,177.093933 565.388000,174.485962 
	C565.379456,170.612778 566.892761,167.958984 571.122986,167.892151 
	C575.608093,167.821304 577.261108,170.436707 577.113892,174.639465 
	C577.021973,177.264252 577.096863,179.894882 577.096863,182.522903 
	C577.891357,182.470947 578.685852,182.419006 579.480347,182.367050 
	C578.966553,177.943527 579.506042,173.021347 577.701294,169.208969 
	C574.712524,162.895706 568.637451,167.326370 563.616882,166.911865 
	C563.616882,170.871872 563.616882,174.857086 563.619568,179.674622 
M605.964661,175.121063 
	C607.079773,186.366684 615.233643,181.916138 621.202026,182.019012 
	C621.202026,176.742462 621.202026,171.483917 621.202026,166.225372 
	C620.711914,166.229065 620.221802,166.232758 619.731689,166.236435 
	C619.731689,168.637085 619.658020,171.040512 619.747986,173.437790 
	C619.905151,177.625824 618.710083,180.770065 613.899048,180.973267 
	C609.977661,181.138885 608.167175,178.704300 608.004211,173.507706 
	C607.929016,171.109451 607.733032,168.714996 607.591797,166.318817 
	C607.039062,166.356003 606.486267,166.393188 605.933533,166.430374 
	C605.933533,169.032852 605.933533,171.635315 605.964661,175.121063 
M453.655884,171.291840 
	C452.638947,170.013947 451.828674,168.461472 450.565460,167.510727 
	C447.070404,164.880112 443.269440,165.147827 439.953674,167.701324 
	C436.499969,170.360977 435.942719,174.177063 437.650787,178.044418 
	C439.414948,182.038757 442.865143,183.545929 447.081024,182.948090 
	C452.016113,182.248276 454.276825,178.494019 453.655884,171.291840 
M387.934784,177.326965 
	C387.934998,176.661026 387.969971,175.992981 387.929810,175.329483 
	C387.676392,171.142334 388.777557,167.930573 393.719238,167.893570 
	C398.811859,167.855423 399.417206,171.490601 399.571930,175.406555 
	C399.666504,177.799911 399.799103,180.191788 399.914612,182.584320 
	C400.545593,182.556351 401.176544,182.528381 401.807495,182.500397 
	C401.433655,178.195923 401.994812,173.525620 400.484619,169.665710 
	C397.639923,162.394821 391.016449,167.847458 386.377869,166.577286 
	C386.377869,171.787964 386.377869,177.013901 386.377869,182.239838 
	C386.762604,182.259537 387.147369,182.279251 387.532104,182.298950 
	C387.666229,180.930267 387.800354,179.561569 387.934784,177.326965 
M159.899170,172.435196 
	C159.899170,168.533676 159.899170,164.632172 159.899170,160.757950 
	C163.098694,160.443085 165.502502,160.206528 167.906296,159.969971 
	C167.855453,159.708466 167.804611,159.446945 167.753769,159.185440 
	C161.790161,159.185440 155.826553,159.185440 149.862946,159.185440 
	C149.861420,159.476425 149.859909,159.767426 149.858383,160.058411 
	C152.418823,160.281433 154.979263,160.504440 158.306458,160.794235 
	C158.306458,168.063568 158.306458,175.089813 158.306458,182.116043 
	C158.837357,182.102310 159.368271,182.088593 159.899170,182.074875 
	C159.899170,179.181442 159.899170,176.288010 159.899170,172.435196 
M303.176025,181.475143 
	C307.012665,183.999603 310.395599,183.350403 313.490448,180.366623 
	C309.736237,181.056732 305.612762,182.560318 303.337158,178.322571 
	C302.211151,176.225693 302.028778,172.575317 303.121033,170.541718 
	C305.781342,165.588654 310.089508,168.572922 314.277863,170.087692 
	C310.846375,165.361069 306.048889,164.590363 302.569214,167.664734 
	C298.843597,170.956406 298.834442,175.923096 303.176025,181.475143 
M466.382080,166.943756 
	C465.007416,166.534241 463.632782,166.124741 461.263519,165.418945 
	C463.316406,162.991989 464.957062,161.052399 466.639496,159.063416 
	C459.654572,157.708191 461.824707,166.339493 457.639313,167.288208 
	C462.669250,171.521835 457.991730,177.975937 461.903381,182.378922 
	C461.903381,177.912979 461.903381,173.447037 461.903381,168.987259 
	C463.886597,168.422073 465.267639,168.028488 466.382080,166.943756 
M341.264923,160.389648 
	C340.632141,160.389633 339.999359,160.389618 339.366577,160.389603 
	C339.438629,166.709595 339.317688,173.040405 339.671295,179.344620 
	C339.827637,182.132126 341.832031,183.153458 343.849091,182.876694 
	C342.861206,179.490433 341.660492,176.901093 341.427429,174.227386 
	C341.052856,169.930161 341.317841,165.577194 341.264923,160.389648 
M489.413788,160.320862 
	C486.852203,158.063919 487.326050,160.611237 487.312592,161.764420 
	C487.241150,167.889587 487.249756,174.016541 487.332397,180.141510 
	C487.342743,180.908142 487.954132,181.666687 488.287018,182.428986 
	C488.683350,182.384430 489.079681,182.339874 489.476013,182.295319 
	C489.476013,175.260040 489.476013,168.224777 489.413788,160.320862 
M481.504456,164.788635 
	C481.323242,162.880661 481.141998,160.972687 480.960754,159.064713 
	C480.621857,159.115097 480.282990,159.165482 479.944092,159.215866 
	C479.944092,166.910172 479.944092,174.604477 479.944092,182.298782 
	C480.464142,182.303696 480.984222,182.308594 481.504272,182.313507 
	C481.504272,176.782837 481.504272,171.252167 481.504456,164.788635 
M635.504883,167.626846 
	C634.464417,167.126068 633.435608,166.248138 632.380737,166.215652 
	C630.912170,166.170441 629.424133,166.758224 627.723083,167.122482 
	C627.723083,171.786392 627.723083,177.087936 627.723083,182.389496 
	C628.175171,182.381393 628.627319,182.373291 629.079407,182.365173 
	C629.079407,179.647842 629.118469,176.929794 629.070129,174.213318 
	C629.000244,170.287643 630.610657,167.890442 635.504883,167.626846 
M358.917511,162.865219 
	C358.704315,161.616257 358.491089,160.367294 358.277893,159.118332 
	C357.851105,159.169891 357.424286,159.221436 356.997498,159.272980 
	C356.997498,165.848251 356.824677,172.430267 357.081390,178.995499 
	C357.186035,181.672684 359.020630,182.916916 361.062469,182.717407 
	C360.191589,179.877991 359.161896,177.834229 359.004761,175.725449 
	C358.709747,171.766739 358.919128,167.770416 358.917511,162.865219 
M294.736420,178.955261 
	C294.736420,174.711929 294.736420,170.468613 294.736420,166.225281 
	C294.212555,166.259659 293.688660,166.294037 293.164795,166.328415 
	C293.164795,171.727737 293.164795,177.127045 293.164795,182.526367 
	C293.494904,182.546417 293.825043,182.566483 294.155151,182.586533 
	C294.345886,181.660416 294.536591,180.734299 294.736420,178.955261 
z"/>
<path fill="#F9A241" opacity="1.000000" stroke="none" 
	d="
M348.742737,100.249702 
	C352.333801,98.294800 353.473358,95.455254 352.584381,92.071411 
	C351.596527,88.311188 348.602478,86.966194 344.948273,86.950661 
	C337.824402,86.920387 330.700317,86.941788 323.249146,86.941788 
	C323.249146,83.183182 323.249146,79.933205 323.249146,75.487106 
	C333.203918,75.995689 343.328522,75.840851 353.232574,77.243477 
	C360.432770,78.263191 365.261230,83.263680 366.448883,90.989838 
	C367.570679,98.287582 365.261261,104.045921 359.078033,108.180428 
	C358.668518,108.454254 358.292175,108.777649 357.530518,109.361542 
	C360.791290,114.275673 363.943451,119.026138 367.711334,124.704544 
	C362.790253,124.704544 358.871033,124.842628 354.973022,124.616043 
	C353.877289,124.552345 352.585602,123.632278 351.835266,122.729698 
	C350.247986,120.820328 348.658539,118.804893 347.609039,116.578789 
	C345.444458,111.987427 342.000427,110.978607 336.930878,112.330811 
	C336.930878,116.112534 336.930878,120.031013 336.930878,124.328285 
	C332.172882,124.328285 327.938019,124.328285 323.305908,124.328285 
	C323.305908,116.807396 323.305908,109.252983 323.305908,100.433487 
	C331.566711,100.433487 339.967773,100.433487 348.742737,100.249702 
z"/>
<path fill="#F8A241" opacity="1.000000" stroke="none" 
	d="
M729.663696,123.487625 
	C720.510376,126.649277 716.152588,125.202194 711.092041,117.677269 
	C706.814880,111.317116 706.814880,111.317108 699.536926,112.458611 
	C699.536926,116.252892 699.536926,120.154617 699.536926,124.382050 
	C694.736511,124.382050 690.526978,124.382050 686.065125,124.382050 
	C686.065125,116.681183 686.065125,109.238640 686.065125,100.986534 
	C692.560852,100.986534 699.133362,101.062248 705.702271,100.942917 
	C707.822815,100.904396 710.594971,101.065804 711.890137,99.864639 
	C713.700562,98.185516 715.295776,95.343338 715.372253,92.947403 
	C715.482605,89.488602 712.895935,87.208458 709.210876,87.086700 
	C703.561462,86.900032 697.905273,86.911736 692.251831,86.851990 
	C690.297913,86.831337 688.343567,86.848701 686.105103,86.848701 
	C686.105103,83.082108 686.105103,79.833229 686.105103,75.445709 
	C696.225342,75.985115 706.339600,75.924416 716.264587,77.264809 
	C722.843689,78.153313 727.570801,82.766678 729.047729,89.653450 
	C730.603149,96.906570 728.766785,103.129570 722.665161,107.767303 
	C722.011841,108.263870 721.366821,108.771332 720.371460,109.542015 
	C723.491699,114.131104 726.543518,118.619560 729.663696,123.487625 
z"/>
<path fill="#F7A141" opacity="1.000000" stroke="none" 
	d="
M219.310242,114.692062 
	C217.249588,112.073158 215.424347,109.724792 213.597595,107.374512 
	C209.665283,110.587814 209.665283,110.587814 207.570160,124.426842 
	C203.524612,124.426842 199.428970,124.426842 194.749924,124.426842 
	C194.659576,117.835602 192.948990,111.527725 199.003601,105.746933 
	C208.241241,96.927071 216.570801,87.159088 225.380188,77.883179 
	C226.296646,76.918182 227.820480,76.084869 229.112793,76.005104 
	C233.054871,75.761787 237.021530,75.916809 242.145660,75.916809 
	C235.156754,83.567184 228.859238,90.460739 222.417755,97.511887 
	C229.218567,106.377693 235.855804,115.030289 243.241882,124.659081 
	C237.665161,124.659081 233.033691,125.160637 228.604797,124.431503 
	C226.615845,124.104050 224.953293,121.389496 223.289124,119.620346 
	C221.928482,118.173874 220.785263,116.522911 219.310242,114.692062 
z"/>
<path fill="#FAA241" opacity="1.000000" stroke="none" 
	d="
M312.009399,82.874481 
	C312.441650,86.191238 311.223175,87.158020 308.389557,86.990158 
	C304.786163,86.776695 301.160553,86.938477 297.041168,86.938477 
	C297.041168,99.720200 297.041168,111.955658 297.041168,124.442841 
	C292.274414,124.442841 288.030212,124.442841 283.239655,124.442841 
	C283.239655,111.955170 283.239655,99.724159 283.239655,86.995575 
	C278.131989,86.995575 273.546570,86.995575 268.631592,86.995575 
	C268.631592,83.243973 268.631592,79.992722 268.631592,76.326385 
	C282.830109,76.326385 297.049438,76.326385 312.009766,76.326385 
	C312.009766,78.232689 312.009766,80.318390 312.009399,82.874481 
z"/>
<path fill="#F6A041" opacity="1.000000" stroke="none" 
	d="
M573.088135,114.195862 
	C573.618286,115.645851 573.796997,116.959877 573.839600,118.278290 
	C573.898315,120.095726 573.854309,121.916466 573.854309,124.230865 
	C561.527527,124.230865 549.493347,124.230865 537.130249,124.230865 
	C537.130249,108.436798 537.130249,92.492691 537.130249,76.228294 
	C541.373047,76.228294 545.609863,76.228294 550.572144,76.228294 
	C550.572144,88.631531 550.572144,101.024307 550.572144,114.061844 
	C558.415588,114.061844 565.545776,114.061844 573.088135,114.195862 
z"/>
<path fill="#FDA441" opacity="1.000000" stroke="none" 
	d="
M114.111427,75.926430 
	C127.231461,75.926102 139.863403,75.926102 152.899231,75.926102 
	C152.899231,79.578033 152.899231,82.947418 152.899231,86.776558 
	C148.283051,86.776558 143.681900,86.776558 138.500519,86.776558 
	C138.500519,99.436264 138.500519,111.665985 138.500519,124.294563 
	C133.725494,124.294563 129.527176,124.294563 124.738205,124.294563 
	C124.738205,111.937614 124.738205,99.707474 124.738205,87.000809 
	C119.587463,87.000809 115.002678,87.000809 110.551086,87.000809 
	C108.532234,78.562050 109.182571,76.404732 114.111427,75.926430 
z"/>
<path fill="#F9A241" opacity="1.000000" stroke="none" 
	d="
M584.988831,87.023178 
	C584.988831,83.222145 584.988831,79.917564 584.988831,76.267677 
	C589.633789,76.267677 593.985046,76.267677 598.813782,76.267677 
	C598.813782,88.720055 598.813782,100.954659 598.813782,113.713295 
	C606.661377,113.713295 614.059570,113.713295 621.726868,113.713295 
	C621.726868,117.493629 621.726868,120.751289 621.726868,124.364555 
	C609.678650,124.364555 597.641113,124.364555 584.988831,124.364555 
	C584.988831,112.003601 584.988831,99.761612 584.988831,87.023178 
z"/>
<path fill="#172C38" opacity="1.000000" stroke="none" 
	d="
M376.046997,122.729111 
	C377.028992,121.110466 378.010986,119.491821 379.473358,117.595825 
	C380.310974,116.869713 380.668213,116.420952 381.025421,115.972183 
	C381.025421,115.972183 381.008331,116.013168 381.314209,115.919373 
	C384.428711,111.536880 387.237366,107.248192 390.046021,102.959503 
	C390.045990,102.959496 390.019623,103.015976 390.341797,102.777168 
	C390.887512,98.337357 391.111023,94.136345 391.580902,89.913727 
	C392.219757,89.513580 392.612213,89.135048 393.004700,88.756516 
	C392.457947,88.499275 391.911163,88.242035 391.303406,87.534988 
	C391.014587,76.437202 391.588348,75.952255 401.982788,78.471176 
	C402.260651,86.690659 402.540466,94.444603 402.933197,102.524185 
	C407.040588,108.579254 411.035065,114.308685 415.029541,120.038116 
	C415.029541,120.038109 414.991272,120.005936 414.962463,120.317894 
	C415.631592,121.429634 416.329529,122.229424 417.027496,123.029213 
	C417.027496,123.029213 416.984558,122.978477 416.774658,123.335991 
	C403.847351,123.791985 391.129913,123.913170 378.412354,123.934212 
	C377.624573,123.935516 376.835480,123.149048 376.046997,122.729111 
M397.043549,93.175957 
	C397.043549,93.175957 397.099609,92.958862 397.036652,92.689156 
	C396.881409,92.608917 396.726135,92.528679 396.570892,92.448441 
	C396.700409,92.663589 396.829956,92.878731 397.043549,93.175957 
z"/>
<path fill="#F6A041" opacity="1.000000" stroke="none" 
	d="
M467.455048,95.557388 
	C463.857666,103.826004 460.180756,111.664795 457.172394,119.752266 
	C455.696747,123.719307 453.670898,125.301323 449.546600,124.781921 
	C447.154846,124.480713 444.694122,124.727173 441.410187,124.727173 
	C445.497314,115.057823 449.215027,106.240288 452.951508,97.430695 
	C455.281677,91.936760 457.958344,86.563271 459.877930,80.930710 
	C461.236450,76.944527 463.287842,75.305809 467.458252,75.851860 
	C469.892822,76.170631 472.403259,75.909935 475.726074,75.909935 
	C472.858246,82.771339 470.254578,89.000671 467.455048,95.557388 
z"/>
<path fill="#F7A141" opacity="1.000000" stroke="none" 
	d="
M55.261909,87.036697 
	C55.261917,83.245224 55.261917,79.947594 55.261917,76.298309 
	C59.894661,76.298309 64.125809,76.298309 68.732437,76.298309 
	C68.732437,92.204819 68.732437,108.203758 68.732437,124.479385 
	C64.311508,124.479385 60.073654,124.479385 55.261906,124.479385 
	C55.261906,112.040573 55.261906,99.785553 55.261909,87.036697 
z"/>
<path fill="#F6A041" opacity="1.000000" stroke="none" 
	d="
M84.869705,114.953773 
	C84.869705,101.848648 84.869705,89.235382 84.869705,76.281754 
	C89.419525,76.281754 93.657936,76.281754 98.300339,76.281754 
	C98.300339,92.225433 98.300339,108.222336 98.300339,124.489746 
	C93.943459,124.489746 89.712601,124.489746 84.869705,124.489746 
	C84.869705,121.317680 84.869705,118.381653 84.869705,114.953773 
z"/>
<path fill="#F5A041" opacity="1.000000" stroke="none" 
	d="
M522.373535,76.512253 
	C522.683777,79.826546 522.683777,82.795578 522.683777,86.246651 
	C509.930115,86.246651 497.304718,86.246651 484.361176,86.246651 
	C484.361176,82.968216 484.361176,79.751740 484.361176,76.166992 
	C496.993500,76.166992 509.528351,76.166992 522.373535,76.512253 
z"/>
<path fill="#F5A041" opacity="1.000000" stroke="none" 
	d="
M670.361328,86.555405 
	C657.851013,86.666534 645.778992,86.666534 633.380371,86.666534 
	C633.380371,83.002182 633.380371,79.786392 633.380371,76.234177 
	C645.959045,76.234177 658.492249,76.234177 672.117004,76.234177 
	C671.675659,79.654808 671.237610,83.049545 670.361328,86.555405 
z"/>
<path fill="#F5A041" opacity="1.000000" stroke="none" 
	d="
M650.001831,113.980003 
	C657.444580,113.980003 664.387756,113.980003 671.590698,113.980003 
	C671.590698,117.594025 671.590698,120.692734 671.590698,124.262726 
	C658.876953,124.262726 646.212158,124.262726 633.295654,124.262726 
	C633.295654,120.976585 633.295654,117.868217 633.295654,113.980003 
	C638.664856,113.980003 644.083496,113.980003 650.001831,113.980003 
z"/>
<path fill="#F5A041" opacity="1.000000" stroke="none" 
	d="
M516.849426,113.980011 
	C518.964722,113.980026 520.599854,113.980026 522.539978,113.980026 
	C522.539978,117.613152 522.539978,120.828407 522.539978,124.389130 
	C509.746948,124.389130 497.195435,124.389130 484.345520,124.389130 
	C484.345520,120.936584 484.345520,117.715866 484.345520,113.980003 
	C495.150970,113.980003 505.760132,113.980003 516.849426,113.980011 
z"/>
<path fill="#FDA441" opacity="1.000000" stroke="none" 
	d="
M633.543518,95.412331 
	C646.277527,95.066719 658.690918,95.066719 671.469482,95.066719 
	C671.469482,98.201767 671.469482,101.253746 671.469482,104.694313 
	C658.854614,104.694313 646.216125,104.694313 633.222839,104.694313 
	C633.222839,101.631340 633.222839,98.694641 633.543518,95.412331 
z"/>
<path fill="#FDA441" opacity="1.000000" stroke="none" 
	d="
M516.850464,105.074020 
	C505.875641,105.074036 495.381531,105.074036 484.478210,105.074036 
	C484.478210,101.815918 484.478210,98.754173 484.478210,95.255455 
	C496.969208,95.255455 509.647888,95.255455 522.582886,95.255455 
	C522.582886,98.356766 522.582886,101.296700 522.582886,104.826904 
	C520.839172,104.908951 519.085144,104.991470 516.850464,105.074020 
z"/>
<path fill="#F6A041" opacity="1.000000" stroke="none" 
	d="
M437.948395,81.923141 
	C444.934082,91.782646 437.914490,99.355461 434.339844,108.439827 
	C429.646759,97.410370 425.274017,87.133698 420.884766,76.818260 
	C430.679108,74.093178 435.238525,75.409950 437.948395,81.923141 
z"/>
<path fill="#FAA241" opacity="1.000000" stroke="none" 
	d="
M168.047256,99.797592 
	C172.322525,99.797592 176.111206,99.797592 180.184357,99.797592 
	C180.184357,103.265831 180.184357,106.333328 180.184357,109.676865 
	C173.603516,109.676865 167.219986,109.676865 160.454605,109.676865 
	C160.454605,106.679825 160.454605,103.645020 160.454605,99.797592 
	C162.762375,99.797592 165.161514,99.797592 168.047256,99.797592 
z"/>
<path fill="#F09D40" opacity="1.000000" stroke="none" 
	d="
M208.081436,77.869621 
	C207.230392,80.498779 206.811646,83.044823 205.403625,84.795029 
	C202.336334,88.607780 198.765137,92.015152 194.769012,96.257965 
	C194.769012,89.099434 194.769012,82.890045 194.769012,75.312195 
	C199.332901,76.037628 203.699020,76.731621 208.081436,77.869621 
z"/>
<path fill="#DC933F" opacity="1.000000" stroke="none" 
	d="
M277.309448,187.063980 
	C281.783539,187.451218 284.188385,185.713837 285.025848,180.969070 
	C283.361511,181.722046 282.268616,182.370041 281.087585,182.723846 
	C276.342865,184.145309 271.360443,181.311050 270.221039,176.623184 
	C269.016968,171.669464 272.264923,166.697983 277.242462,165.875778 
	C282.343811,165.033127 286.539093,168.018433 287.184296,173.157425 
	C287.472351,175.451904 287.978058,178.030624 287.243286,180.068817 
	C286.144714,183.116257 284.664703,186.710587 282.200500,188.406586 
	C279.179993,190.485443 275.260315,189.540405 271.371643,185.676544 
	C274.022675,186.313034 275.465576,186.659454 277.309448,187.063980 
M272.313446,172.916061 
	C272.020660,177.310806 273.593018,180.530670 278.313232,180.940338 
	C281.562958,181.222397 284.184418,179.753967 284.892456,176.210556 
	C285.565338,172.843155 284.988983,169.626221 281.467621,168.340302 
	C277.602234,166.928787 274.264496,167.955490 272.313446,172.916061 
z"/>
<path fill="#DA923F" opacity="1.000000" stroke="none" 
	d="
M220.898590,182.046143 
	C220.639786,176.944916 220.380981,171.843704 220.088699,166.082657 
	C224.668106,166.443069 228.658798,166.757141 232.649475,167.071228 
	C232.567978,167.204651 232.486481,167.338074 232.404984,167.471512 
	C235.153915,167.033478 238.618118,165.381653 240.466904,166.471146 
	C242.673172,167.771255 244.010910,171.280670 244.767532,174.090790 
	C245.471481,176.705338 244.917831,179.658478 244.917831,182.462555 
	C244.223007,182.451492 243.528183,182.440414 242.833359,182.429352 
	C242.833359,179.740417 242.903778,177.049133 242.814957,174.363144 
	C242.711502,171.235031 242.256699,167.955185 238.246353,167.900101 
	C234.132172,167.843628 233.760345,171.025681 233.816299,174.252670 
	C233.864807,177.049973 233.826370,179.848801 233.826370,182.646942 
	C233.117416,182.645142 232.408447,182.643341 231.699493,182.641541 
	C231.699493,179.736618 231.899887,176.813965 231.644684,173.931641 
	C231.374344,170.878220 230.714264,167.667786 226.558182,167.954407 
	C222.678467,168.222000 222.576569,171.334824 222.444885,174.214478 
	C222.338638,176.537384 222.353104,178.865799 221.879303,181.604462 
	C221.262604,182.026794 221.080597,182.036469 220.898590,182.046143 
z"/>
<path fill="#DA923F" opacity="1.000000" stroke="none" 
	d="
M584.176514,183.744019 
	C584.201294,180.308548 584.008240,177.306915 584.296509,174.352280 
	C584.889893,168.272049 589.218933,164.909500 594.814819,165.910904 
	C599.813721,166.805481 602.823303,171.818787 601.344727,176.788376 
	C599.716736,182.260422 595.022827,184.288834 589.106201,182.082535 
	C588.499512,181.856308 587.880554,181.663101 586.682861,181.255844 
	C586.404541,184.278336 586.150330,187.038101 585.896179,189.797852 
	C585.470093,189.795502 585.044006,189.793137 584.617920,189.790771 
	C584.470764,187.926895 584.323669,186.063034 584.176514,183.744019 
M589.550598,180.036469 
	C592.161133,179.794418 595.165161,180.246719 597.244934,179.068069 
	C598.649109,178.272278 599.753723,174.825974 599.183777,173.198853 
	C598.449829,171.103867 596.096558,168.565109 594.089355,168.211395 
	C592.079529,167.857178 588.180481,169.524887 587.717224,171.082047 
	C586.977234,173.569702 588.393738,176.698868 589.550598,180.036469 
z"/>
<path fill="#DA923F" opacity="1.000000" stroke="none" 
	d="
M524.728882,179.202423 
	C524.727661,172.236450 524.727661,165.690643 524.727661,159.144852 
	C525.284546,159.132095 525.841370,159.119354 526.398254,159.106613 
	C526.626587,162.429535 526.854919,165.752472 527.160889,170.204376 
	C531.475464,165.965057 535.255981,162.250519 539.036499,158.535965 
	C539.478699,158.943604 539.920837,159.351242 540.362976,159.758881 
	C537.475891,162.812134 534.588867,165.865402 531.391296,169.247055 
	C534.440857,173.510635 537.431274,177.691467 540.421692,181.872284 
	C539.949280,182.226364 539.476868,182.580429 539.004456,182.934494 
	C536.016541,179.051331 533.028625,175.168167 529.963196,171.184219 
	C524.430420,173.558563 528.444946,179.189590 525.507080,183.106262 
	C525.157593,181.539291 524.943909,180.580933 524.728882,179.202423 
z"/>
<path fill="#DA923F" opacity="1.000000" stroke="none" 
	d="
M183.043106,168.897125 
	C176.981430,166.364334 173.160233,169.466324 173.759018,175.013687 
	C174.026794,177.494339 173.577316,180.052429 173.453339,182.575394 
	C173.027390,182.556839 172.601425,182.538284 172.175476,182.519730 
	C172.175476,174.748459 172.175476,166.977188 172.175476,159.205933 
	C172.579666,159.163284 172.983856,159.120636 173.388062,159.078003 
	C173.636597,161.656601 173.885117,164.235184 174.138367,166.862625 
	C186.683777,163.001328 188.951233,170.995346 186.325821,183.092636 
	C185.262756,178.040115 184.325989,173.587814 183.043106,168.897125 
z"/>
<path fill="#DA923F" opacity="1.000000" stroke="none" 
	d="
M318.067413,173.306152 
	C320.258820,167.145966 324.481842,164.583054 329.470062,166.025299 
	C334.687958,167.533936 336.505066,172.986359 334.918030,182.082489 
	C333.468201,182.082489 331.937012,181.716080 330.673950,182.142960 
	C323.414490,184.596390 319.034790,181.740936 318.067413,173.306152 
M322.259644,169.590851 
	C319.437408,172.630569 319.413208,175.790588 322.077911,178.871994 
	C324.370331,181.522873 327.737000,182.067963 329.990692,179.869293 
	C331.759705,178.143448 332.928284,174.734512 332.677399,172.243057 
	C332.244629,167.944565 328.143799,166.891434 322.259644,169.590851 
z"/>
<path fill="#E09540" opacity="1.000000" stroke="none" 
	d="
M421.082092,162.990570 
	C421.305054,161.455460 421.527191,160.337708 421.749329,159.219940 
	C422.122253,159.264435 422.495209,159.308929 422.868134,159.353409 
	C422.868134,165.206909 423.336578,171.110565 422.717194,176.897766 
	C422.237396,181.380493 416.830872,183.976685 412.239563,182.803802 
	C407.769775,181.661987 405.088806,177.119308 406.062622,172.337341 
	C406.939972,168.028976 411.197723,165.134140 415.815552,165.908157 
	C417.389099,166.171890 418.876709,166.948471 420.841553,167.646271 
	C420.923676,166.194229 421.002472,164.801056 421.082092,162.990570 
M410.159607,179.394714 
	C413.685974,181.927246 417.084503,181.840271 419.681366,178.252457 
	C421.725586,175.428223 421.677948,172.245163 419.017853,169.679932 
	C416.421326,167.175964 413.277069,166.922974 410.502136,169.167847 
	C407.104767,171.916245 407.148071,175.353012 410.159607,179.394714 
z"/>
<path fill="#E09540" opacity="1.000000" stroke="none" 
	d="
M257.975159,165.769653 
	C265.760040,167.434494 267.646393,171.541962 265.927002,182.049911 
	C264.488007,182.049911 262.970093,181.692062 261.710419,182.110870 
	C255.753937,184.091202 250.672226,181.998306 249.260376,176.771683 
	C247.784912,171.309525 251.050339,167.007172 257.975159,165.769653 
M262.525024,170.008987 
	C258.590393,166.922531 254.738815,167.139938 252.343124,170.583710 
	C250.194916,173.671738 250.951462,178.520981 254.475876,179.919266 
	C256.553558,180.743576 259.837677,180.563782 261.710968,179.417099 
	C265.001129,177.403152 264.702545,173.898209 262.525024,170.008987 
z"/>
<path fill="#E09540" opacity="1.000000" stroke="none" 
	d="
M370.082733,166.121170 
	C379.743622,165.442703 382.432922,169.627808 380.889709,182.000656 
	C379.499084,182.000656 378.037506,181.659073 376.819153,182.058807 
	C371.035461,183.956436 366.739594,182.578964 364.718811,177.946732 
	C362.621033,173.138000 364.267639,169.301666 370.082733,166.121170 
M378.954803,176.051575 
	C379.493225,171.899933 378.208221,168.783630 373.768951,167.968124 
	C369.909332,167.259079 366.796539,169.153046 366.564667,172.859665 
	C366.412323,175.295319 367.918549,178.901535 369.864349,180.170456 
	C373.461029,182.515854 376.768372,180.569778 378.954803,176.051575 
z"/>
<path fill="#E09540" opacity="1.000000" stroke="none" 
	d="
M544.313354,180.840088 
	C540.873230,176.739288 540.660583,172.643875 543.680420,168.765442 
	C546.380066,165.298279 550.298157,164.802109 554.020813,166.631485 
	C560.847046,169.985947 558.708374,176.358749 558.916565,182.617538 
	C553.897034,182.079254 549.251831,181.581100 544.313354,180.840088 
M551.258606,180.915512 
	C555.625916,179.971176 557.356079,177.097565 556.554810,172.915451 
	C555.812012,169.038071 552.851624,166.884338 549.295898,168.173889 
	C547.040100,168.992020 544.440002,171.801727 544.015930,174.092499 
	C543.231628,178.330017 546.148254,180.713684 551.258606,180.915512 
z"/>
<path fill="#F9A241" opacity="1.000000" stroke="none" 
	d="
M501.715424,180.764328 
	C501.688629,175.553055 501.424530,170.722458 501.757538,165.933365 
	C502.050781,161.715271 500.934418,159.562027 496.342438,160.285278 
	C495.424591,160.429840 494.440735,160.155502 493.498535,159.220032 
	C499.467651,159.220032 505.436798,159.220032 511.507111,159.220032 
	C511.339355,159.530548 511.249969,159.918198 511.098907,159.943924 
	C503.320801,161.268997 503.324249,161.265717 503.318176,169.391495 
	C503.315338,173.208084 503.307587,177.025024 503.215607,180.839722 
	C503.212738,180.959305 502.251923,181.055786 501.715424,180.764328 
z"/>
<path fill="#E79840" opacity="1.000000" stroke="none" 
	d="
M563.618225,179.258453 
	C563.616882,174.857086 563.616882,170.871872 563.616882,166.911865 
	C568.637451,167.326370 574.712524,162.895706 577.701294,169.208969 
	C579.506042,173.021347 578.966553,177.943527 579.480347,182.367050 
	C578.685852,182.419006 577.891357,182.470947 577.096863,182.522903 
	C577.096863,179.894882 577.021973,177.264252 577.113892,174.639465 
	C577.261108,170.436707 575.608093,167.821304 571.122986,167.892151 
	C566.892761,167.958984 565.379456,170.612778 565.388000,174.485962 
	C565.393738,177.093933 565.389099,179.701920 564.296692,182.467316 
	C564.070984,181.536423 563.845276,180.605530 563.618225,179.258453 
z"/>
<path fill="#DC933F" opacity="1.000000" stroke="none" 
	d="
M605.949097,174.679428 
	C605.933533,171.635315 605.933533,169.032852 605.933533,166.430374 
	C606.486267,166.393188 607.039062,166.356003 607.591797,166.318817 
	C607.733032,168.714996 607.929016,171.109451 608.004211,173.507706 
	C608.167175,178.704300 609.977661,181.138885 613.899048,180.973267 
	C618.710083,180.770065 619.905151,177.625824 619.747986,173.437790 
	C619.658020,171.040512 619.731689,168.637085 619.731689,166.236435 
	C620.221802,166.232758 620.711914,166.229065 621.202026,166.225372 
	C621.202026,171.483917 621.202026,176.742462 621.202026,182.019012 
	C615.233643,181.916138 607.079773,186.366684 605.949097,174.679428 
z"/>
<path fill="#DC933F" opacity="1.000000" stroke="none" 
	d="
M453.776947,171.677780 
	C454.276825,178.494019 452.016113,182.248276 447.081024,182.948090 
	C442.865143,183.545929 439.414948,182.038757 437.650787,178.044418 
	C435.942719,174.177063 436.499969,170.360977 439.953674,167.701324 
	C443.269440,165.147827 447.070404,164.880112 450.565460,167.510727 
	C451.828674,168.461472 452.638947,170.013947 453.776947,171.677780 
M439.279694,172.104752 
	C438.508606,175.496704 439.050018,178.768875 442.427551,180.065231 
	C444.401245,180.822769 447.615356,180.687851 449.183563,179.508224 
	C450.769409,178.315262 451.845032,175.237061 451.594238,173.173035 
	C451.374512,171.364670 449.318451,169.097488 447.516449,168.313660 
	C444.342194,166.932892 441.392975,168.150009 439.279694,172.104752 
z"/>
<path fill="#DA923F" opacity="1.000000" stroke="none" 
	d="
M387.934631,177.759918 
	C387.800354,179.561569 387.666229,180.930267 387.532104,182.298950 
	C387.147369,182.279251 386.762604,182.259537 386.377869,182.239838 
	C386.377869,177.013901 386.377869,171.787964 386.377869,166.577286 
	C391.016449,167.847458 397.639923,162.394821 400.484619,169.665710 
	C401.994812,173.525620 401.433655,178.195923 401.807495,182.500397 
	C401.176544,182.528381 400.545593,182.556351 399.914612,182.584320 
	C399.799103,180.191788 399.666504,177.799911 399.571930,175.406555 
	C399.417206,171.490601 398.811859,167.855423 393.719238,167.893570 
	C388.777557,167.930573 387.676392,171.142334 387.929810,175.329483 
	C387.969971,175.992981 387.934998,176.661026 387.934631,177.759918 
z"/>
<path fill="#E79840" opacity="1.000000" stroke="none" 
	d="
M159.899170,172.914886 
	C159.899170,176.288010 159.899170,179.181442 159.899170,182.074875 
	C159.368271,182.088593 158.837357,182.102310 158.306458,182.116043 
	C158.306458,175.089813 158.306458,168.063568 158.306458,160.794235 
	C154.979263,160.504440 152.418823,160.281433 149.858383,160.058411 
	C149.859909,159.767426 149.861420,159.476425 149.862946,159.185440 
	C155.826553,159.185440 161.790161,159.185440 167.753769,159.185440 
	C167.804611,159.446945 167.855453,159.708466 167.906296,159.969971 
	C165.502502,160.206528 163.098694,160.443085 159.899170,160.757950 
	C159.899170,164.632172 159.899170,168.533676 159.899170,172.914886 
z"/>
<path fill="#E79840" opacity="1.000000" stroke="none" 
	d="
M205.092346,168.909164 
	C205.947861,170.656540 206.803360,172.403931 208.036896,174.923401 
	C202.703659,174.923401 198.591537,174.923401 194.448288,174.923401 
	C195.010529,180.679123 196.775375,181.489639 205.340759,180.281433 
	C201.654175,183.637329 197.931671,183.884277 194.499023,181.000626 
	C191.566208,178.536880 190.763245,172.898453 192.868408,169.550369 
	C195.201965,165.839096 198.624878,165.110550 203.716919,167.793472 
	C203.614044,168.489105 203.496490,168.635803 203.029236,168.584808 
	C196.941086,167.178574 195.460297,167.987610 193.749451,173.580582 
	C197.476135,173.580582 201.101013,173.580582 205.165543,173.580582 
	C204.814911,172.100693 204.523651,170.871384 204.448273,169.459900 
	C204.806885,169.154892 204.949615,169.032028 205.092346,168.909164 
z"/>
<path fill="#DC933F" opacity="1.000000" stroke="none" 
	d="
M302.860352,181.233536 
	C298.834442,175.923096 298.843597,170.956406 302.569214,167.664734 
	C306.048889,164.590363 310.846375,165.361069 314.277863,170.087692 
	C310.089508,168.572922 305.781342,165.588654 303.121033,170.541718 
	C302.028778,172.575317 302.211151,176.225693 303.337158,178.322571 
	C305.612762,182.560318 309.736237,181.056732 313.490448,180.366623 
	C310.395599,183.350403 307.012665,183.999603 302.860352,181.233536 
z"/>
<path fill="#DC933F" opacity="1.000000" stroke="none" 
	d="
M466.515381,167.289337 
	C465.267639,168.028488 463.886597,168.422073 461.903381,168.987259 
	C461.903381,173.447037 461.903381,177.912979 461.903381,182.378922 
	C457.991730,177.975937 462.669250,171.521835 457.639313,167.288208 
	C461.824707,166.339493 459.654572,157.708191 466.639496,159.063416 
	C464.957062,161.052399 463.316406,162.991989 461.263519,165.418945 
	C463.632782,166.124741 465.007416,166.534241 466.515381,167.289337 
z"/>
<path fill="#C8883F" opacity="1.000000" stroke="none" 
	d="
M341.288757,160.818710 
	C341.317841,165.577194 341.052856,169.930161 341.427429,174.227386 
	C341.660492,176.901093 342.861206,179.490433 343.849091,182.876694 
	C341.832031,183.153458 339.827637,182.132126 339.671295,179.344620 
	C339.317688,173.040405 339.438629,166.709595 339.366577,160.389603 
	C339.999359,160.389618 340.632141,160.389633 341.288757,160.818710 
z"/>
<path fill="#C8883F" opacity="1.000000" stroke="none" 
	d="
M489.444885,160.755188 
	C489.476013,168.224777 489.476013,175.260040 489.476013,182.295319 
	C489.079681,182.339874 488.683350,182.384430 488.287018,182.428986 
	C487.954132,181.666687 487.342743,180.908142 487.332397,180.141510 
	C487.249756,174.016541 487.241150,167.889587 487.312592,161.764420 
	C487.326050,160.611237 486.852203,158.063919 489.444885,160.755188 
z"/>
<path fill="#C8883F" opacity="1.000000" stroke="none" 
	d="
M481.504364,165.255066 
	C481.504272,171.252167 481.504272,176.782837 481.504272,182.313507 
	C480.984222,182.308594 480.464142,182.303696 479.944092,182.298782 
	C479.944092,174.604477 479.944092,166.910172 479.944092,159.215866 
	C480.282990,159.165482 480.621857,159.115097 480.960754,159.064713 
	C481.141998,160.972687 481.323242,162.880661 481.504364,165.255066 
z"/>
<path fill="#DA923F" opacity="1.000000" stroke="none" 
	d="
M635.141113,167.667526 
	C630.610657,167.890442 629.000244,170.287643 629.070129,174.213318 
	C629.118469,176.929794 629.079407,179.647842 629.079407,182.365173 
	C628.627319,182.373291 628.175171,182.381393 627.723083,182.389496 
	C627.723083,177.087936 627.723083,171.786392 627.723083,167.122482 
	C629.424133,166.758224 630.912170,166.170441 632.380737,166.215652 
	C633.435608,166.248138 634.464417,167.126068 635.141113,167.667526 
z"/>
<path fill="#E09540" opacity="1.000000" stroke="none" 
	d="
M358.918121,163.327484 
	C358.919128,167.770416 358.709747,171.766739 359.004761,175.725449 
	C359.161896,177.834229 360.191589,179.877991 361.062469,182.717407 
	C359.020630,182.916916 357.186035,181.672684 357.081390,178.995499 
	C356.824677,172.430267 356.997498,165.848251 356.997498,159.272980 
	C357.424286,159.221436 357.851105,159.169891 358.277893,159.118332 
	C358.491089,160.367294 358.704315,161.616257 358.918121,163.327484 
z"/>
<path fill="#C8883F" opacity="1.000000" stroke="none" 
	d="
M294.731873,179.381714 
	C294.536591,180.734299 294.345886,181.660416 294.155151,182.586533 
	C293.825043,182.566483 293.494904,182.546417 293.164795,182.526367 
	C293.164795,177.127045 293.164795,171.727737 293.164795,166.328415 
	C293.688660,166.294037 294.212555,166.259659 294.736420,166.225281 
	C294.736420,170.468613 294.736420,174.711929 294.731873,179.381714 
z"/>
<path fill="#687175" opacity="1.000000" stroke="none" 
	d="
M402.820251,102.198555 
	C402.540466,94.444603 402.260651,86.690659 402.275055,78.467972 
	C402.958282,77.977440 403.347290,77.955643 403.736328,77.933846 
	C403.799225,85.346077 403.862122,92.758316 403.701569,100.823181 
	C403.264252,101.721657 403.044983,101.962570 402.820251,102.198555 
z"/>
<path fill="#7E8487" opacity="1.000000" stroke="none" 
	d="
M402.933197,102.524185 
	C403.044983,101.962570 403.264252,101.721657 403.643219,101.295959 
	C407.615295,107.180649 411.422272,113.245209 415.129395,119.673935 
	C411.035065,114.308685 407.040588,108.579254 402.933197,102.524185 
z"/>
<path fill="#BDBAB7" opacity="1.000000" stroke="none" 
	d="
M375.684204,122.969727 
	C376.835480,123.149048 377.624573,123.935516 378.412354,123.934212 
	C391.129913,123.913170 403.847351,123.791985 416.762756,123.304947 
	C417.485809,123.353188 418.010864,123.789978 419.478851,125.011185 
	C404.337982,125.011185 390.378906,125.025032 376.420502,124.935753 
	C376.050446,124.933388 375.687622,123.810616 375.684204,122.969727 
z"/>
<path fill="#7E8487" opacity="1.000000" stroke="none" 
	d="
M389.696869,102.903816 
	C387.237366,107.248192 384.428711,111.536880 381.296082,115.932220 
	C383.763977,111.641953 386.555847,107.245041 389.696869,102.903816 
z"/>
<path fill="#7E8487" opacity="1.000000" stroke="none" 
	d="
M403.678040,77.539978 
	C403.347290,77.955643 402.958282,77.977440 402.276978,78.002441 
	C391.588348,75.952255 391.014587,76.437202 391.122345,87.824959 
	C390.635345,88.827339 390.268402,89.089935 389.901489,89.352539 
	C389.852844,87.865807 389.661163,86.366959 389.785950,84.894928 
	C390.029877,82.017387 390.168243,76.757309 390.844177,76.677711 
	C395.026337,76.185242 399.345886,76.859428 403.678040,77.539978 
z"/>
<path fill="#7E8487" opacity="1.000000" stroke="none" 
	d="
M391.334534,89.935341 
	C391.111023,94.136345 390.887512,98.337357 390.320862,102.800217 
	C389.917450,98.913887 389.857178,94.765694 390.204834,90.209908 
	C390.853333,89.846657 391.093933,89.890999 391.334534,89.935341 
z"/>
<path fill="#1C303B" opacity="1.000000" stroke="none" 
	d="
M391.580902,89.913727 
	C391.093933,89.890999 390.853333,89.846657 390.253662,89.725922 
	C389.894592,89.649536 389.888580,89.500610 389.895020,89.426575 
	C390.268402,89.089935 390.635345,88.827339 391.183350,88.274765 
	C391.911163,88.242035 392.457947,88.499275 393.004700,88.756516 
	C392.612213,89.135048 392.219757,89.513580 391.580902,89.913727 
z"/>
<path fill="#7E8487" opacity="1.000000" stroke="none" 
	d="
M417.128082,122.676147 
	C416.329529,122.229424 415.631592,121.429634 414.952026,120.295151 
	C415.723206,120.747993 416.475922,121.535538 417.128082,122.676147 
z"/>
<path fill="#7E8487" opacity="1.000000" stroke="none" 
	d="
M380.812988,115.796936 
	C380.668213,116.420952 380.310974,116.869713 379.698364,117.307068 
	C379.828827,116.737671 380.214722,116.179680 380.812988,115.796936 
z"/>
<path fill="#E79840" opacity="1.000000" stroke="none" 
	d="
M203.910095,168.124146 
	C204.372528,168.077591 204.656479,168.249298 205.016388,168.665085 
	C204.949615,169.032028 204.806885,169.154892 204.283890,169.339859 
	C203.697235,169.222168 203.522339,169.015671 203.378922,168.782486 
	C203.496490,168.635803 203.614044,168.489105 203.910095,168.124146 
z"/>
<path fill="#C8883F" opacity="1.000000" stroke="none" 
	d="
M220.984253,182.255096 
	C221.080597,182.036469 221.262604,182.026794 221.717819,182.007980 
	C221.684006,182.153900 221.376953,182.308975 220.984253,182.255096 
z"/>
<path fill="#1C303B" opacity="1.000000" stroke="none" 
	d="
M396.959473,93.093880 
	C396.829956,92.878731 396.700409,92.663589 396.570892,92.448441 
	C396.726135,92.528679 396.881409,92.608917 397.030548,92.855118 
	C397.024445,93.021072 396.959473,93.093880 396.959473,93.093880 
z"/>
<path fill="#1C303B" opacity="1.000000" stroke="none" 
	d="
M397.062012,92.989967 
	C397.099609,92.958862 397.043549,93.175957 397.001526,93.134918 
	C396.959473,93.093880 397.024445,93.021072 397.062012,92.989967 
z"/>
<path fill="#1A2C36" opacity="1.000000" stroke="none" 
	d="
M272.440338,172.546722 
	C274.264496,167.955490 277.602234,166.928787 281.467621,168.340302 
	C284.988983,169.626221 285.565338,172.843155 284.892456,176.210556 
	C284.184418,179.753967 281.562958,181.222397 278.313232,180.940338 
	C273.593018,180.530670 272.020660,177.310806 272.440338,172.546722 
z"/>
<path fill="#1A2C36" opacity="1.000000" stroke="none" 
	d="
M589.224609,179.796646 
	C588.393738,176.698868 586.977234,173.569702 587.717224,171.082047 
	C588.180481,169.524887 592.079529,167.857178 594.089355,168.211395 
	C596.096558,168.565109 598.449829,171.103867 599.183777,173.198853 
	C599.753723,174.825974 598.649109,178.272278 597.244934,179.068069 
	C595.165161,180.246719 592.161133,179.794418 589.224609,179.796646 
z"/>
<path fill="#1A2C36" opacity="1.000000" stroke="none" 
	d="
M322.570984,169.344727 
	C328.143799,166.891434 332.244629,167.944565 332.677399,172.243057 
	C332.928284,174.734512 331.759705,178.143448 329.990692,179.869293 
	C327.737000,182.067963 324.370331,181.522873 322.077911,178.871994 
	C319.413208,175.790588 319.437408,172.630569 322.570984,169.344727 
z"/>
<path fill="#1B2D36" opacity="1.000000" stroke="none" 
	d="
M409.879700,179.115112 
	C407.148071,175.353012 407.104767,171.916245 410.502136,169.167847 
	C413.277069,166.922974 416.421326,167.175964 419.017853,169.679932 
	C421.677948,172.245163 421.725586,175.428223 419.681366,178.252457 
	C417.084503,181.840271 413.685974,181.927246 409.879700,179.115112 
z"/>
<path fill="#1B2D36" opacity="1.000000" stroke="none" 
	d="
M262.789246,170.317017 
	C264.702545,173.898209 265.001129,177.403152 261.710968,179.417099 
	C259.837677,180.563782 256.553558,180.743576 254.475876,179.919266 
	C250.951462,178.520981 250.194916,173.671738 252.343124,170.583710 
	C254.738815,167.139938 258.590393,166.922531 262.789246,170.317017 
z"/>
<path fill="#1B2D36" opacity="1.000000" stroke="none" 
	d="
M378.877808,176.446854 
	C376.768372,180.569778 373.461029,182.515854 369.864349,180.170456 
	C367.918549,178.901535 366.412323,175.295319 366.564667,172.859665 
	C366.796539,169.153046 369.909332,167.259079 373.768951,167.968124 
	C378.208221,168.783630 379.493225,171.899933 378.877808,176.446854 
z"/>
<path fill="#1B2D36" opacity="1.000000" stroke="none" 
	d="
M550.867554,180.975067 
	C546.148254,180.713684 543.231628,178.330017 544.015930,174.092499 
	C544.440002,171.801727 547.040100,168.992020 549.295898,168.173889 
	C552.851624,166.884338 555.812012,169.038071 556.554810,172.915451 
	C557.356079,177.097565 555.625916,179.971176 550.867554,180.975067 
z"/>
<path fill="#1B2D36" opacity="1.000000" stroke="none" 
	d="
M439.431763,171.732620 
	C441.392975,168.150009 444.342194,166.932892 447.516449,168.313660 
	C449.318451,169.097488 451.374512,171.364670 451.594238,173.173035 
	C451.845032,175.237061 450.769409,178.315262 449.183563,179.508224 
	C447.615356,180.687851 444.401245,180.822769 442.427551,180.065231 
	C439.050018,178.768875 438.508606,175.496704 439.431763,171.732620 
z"/>
<path fill="#1A2C36" opacity="1.000000" stroke="none" 
	d="
M203.029236,168.584808 
	C203.522339,169.015671 203.697235,169.222168 204.068008,169.522034 
	C204.523651,170.871384 204.814911,172.100693 205.165543,173.580582 
	C201.101013,173.580582 197.476135,173.580582 193.749451,173.580582 
	C195.460297,167.987610 196.941086,167.178574 203.029236,168.584808 
z"/>
</svg>