<svg version="1.1" id="Layer_1" xmlns="http://www.w3.org/2000/svg" xmlns:xlink="http://www.w3.org/1999/xlink" x="0px" y="0px"
	 width="100%" viewBox="0 0 593 408" enable-background="new 0 0 593 408" xml:space="preserve">
<path fill="#130907" opacity="1.000000" stroke="none" 
	d="
M411.000000,409.000000 
	C274.000031,409.000000 137.500061,409.000000 1.000073,409.000000 
	C1.000049,273.000061 1.000049,137.000137 1.000024,1.000146 
	C198.666550,1.000098 396.333099,1.000098 593.999756,1.000049 
	C593.999817,136.999863 593.999817,272.999725 593.999878,408.999786 
	C533.166687,409.000000 472.333344,409.000000 411.000000,409.000000 
M250.734787,344.256348 
	C251.210327,345.009521 251.685883,345.762695 252.505096,347.060181 
	C254.889847,339.738800 257.055847,333.089081 259.221832,326.439362 
	C258.549377,326.193268 257.876953,325.947144 257.204498,325.701019 
	C254.792847,331.604736 252.381195,337.508453 249.485550,342.874176 
	C249.025070,341.679657 248.633743,340.452393 248.087860,339.298279 
	C247.274643,337.578949 246.719803,335.098145 245.358383,334.482819 
	C244.298965,334.003998 241.502808,335.458221 240.674057,336.794678 
	C239.163925,339.229980 238.540558,342.215179 237.547195,344.970947 
	C240.183563,344.533173 242.819946,344.095367 245.460815,343.656830 
	C246.812408,343.758850 248.406113,343.879150 250.734787,344.256348 
M282.763885,344.380554 
	C285.819153,343.224152 288.874390,342.067719 291.712616,340.993469 
	C292.224884,342.160522 292.955292,343.824585 293.685669,345.488647 
	C294.221527,345.346527 294.757385,345.204376 295.293243,345.062256 
	C294.959778,342.428864 294.626343,339.795502 294.292877,337.162109 
	C292.508881,337.438843 290.724854,337.715607 289.056213,337.974487 
	C288.609589,336.977448 288.088257,335.813568 287.375397,334.222076 
	C285.280151,337.693451 283.612244,340.456848 281.364990,342.619171 
	C281.027710,341.705170 280.178833,340.594025 280.441925,339.911407 
	C281.564850,336.997955 280.111542,334.967712 277.793854,334.570068 
	C276.231232,334.301941 273.659607,335.641235 272.710571,337.050323 
	C271.207703,339.281769 270.685638,342.173737 269.748535,344.786224 
	C272.376984,344.450073 275.005463,344.113922 278.629211,343.650482 
	C278.864410,343.725494 280.429108,344.224396 282.763885,344.380554 
M422.180634,344.627716 
	C424.727264,343.281189 427.273895,341.934662 428.910522,341.069305 
	C430.844574,342.915344 432.486450,344.482513 434.234711,346.811981 
	C434.129791,348.866272 434.024872,350.920593 433.919952,352.974884 
	C434.538483,353.249573 435.157043,353.524261 435.775574,353.798950 
	C435.603638,347.534088 439.096375,344.859802 443.891968,342.716766 
	C447.084015,341.290375 446.863373,337.286865 444.188660,335.963806 
	C442.653931,335.204590 441.180817,334.320831 439.201721,333.229370 
	C437.602356,337.234985 435.827728,341.679657 433.211639,345.724396 
	C433.156342,344.099243 432.975464,342.466705 433.070923,340.850464 
	C433.297058,337.020752 432.262268,335.366608 428.392487,337.767303 
	C427.920990,338.059784 427.155670,337.878601 426.824707,337.898773 
	C426.438019,336.797180 426.136780,335.938965 425.835541,335.080750 
	C425.172150,335.551758 424.195251,335.880219 423.904083,336.520477 
	C423.033478,338.435028 422.431396,340.471741 421.155701,343.075317 
	C420.353973,341.622986 419.599609,340.141815 418.737640,338.726135 
	C417.804108,337.192902 417.057098,335.240479 415.667450,334.410431 
	C414.891327,333.946838 412.404999,335.000427 411.683716,336.052246 
	C409.790802,338.812378 408.443390,341.946533 406.175110,345.052948 
	C399.599182,340.661102 399.403473,337.368866 405.437408,332.878601 
	C407.169647,331.589600 408.955902,330.353699 410.549042,328.907990 
	C411.104279,328.404144 411.152649,327.341675 411.432495,326.534363 
	C411.077881,326.302460 410.723267,326.070526 410.368652,325.838623 
	C407.744232,327.747986 405.119812,329.657349 401.919464,331.010529 
	C401.712982,330.841461 401.506470,330.672394 401.519531,329.862579 
	C401.661987,328.519501 401.804413,327.176422 402.075989,324.615784 
	C396.282379,331.154572 392.202637,344.534760 394.571991,347.954681 
	C395.691803,345.181458 396.737549,342.591736 397.732391,340.127991 
	C399.742767,342.594910 401.255493,345.005402 403.300140,346.814880 
	C405.665680,348.908417 406.752991,347.500671 407.571350,344.777954 
	C410.215302,344.543182 412.859283,344.308441 415.503235,344.073669 
	C415.493378,344.019989 415.483521,343.966309 415.473663,343.912628 
	C417.657257,343.912628 419.840851,343.912628 422.180634,344.627716 
M193.318222,342.949524 
	C192.788055,341.259064 192.257889,339.568604 191.656586,337.651337 
	C190.035141,338.205292 188.746841,338.645416 187.507446,339.068848 
	C187.119781,338.066315 186.784500,337.199219 186.337799,336.043976 
	C184.616516,336.837463 183.195297,337.492615 182.072250,338.010315 
	C181.618515,336.475159 181.238831,335.190521 180.859131,333.905884 
	C180.351166,333.958801 179.843201,334.011719 179.335236,334.064636 
	C178.540054,337.594574 177.744858,341.124512 176.949677,344.654449 
	C177.410355,344.821930 177.871048,344.989410 178.331741,345.156921 
	C179.672623,344.086670 181.013504,343.016418 182.376740,341.928345 
	C183.083725,343.120575 183.671356,344.111572 184.376480,345.300659 
	C186.178909,343.708038 187.645508,342.412170 188.192978,341.928436 
	C190.565399,343.083038 192.279388,343.917236 194.737137,344.894562 
	C197.400543,344.545471 200.063950,344.196350 203.712967,343.718079 
	C204.385803,344.281128 206.121506,346.945526 208.957458,343.071136 
	C210.554535,343.512146 212.151596,343.953186 213.833832,344.417725 
	C213.190292,346.068512 212.551010,347.708344 211.892761,349.396820 
	C210.443909,348.652557 209.333649,348.082214 208.223404,347.511871 
	C207.906281,347.900177 207.589157,348.288483 207.272034,348.676758 
	C208.564728,349.852478 209.782410,351.823242 211.173645,351.954468 
	C212.304153,352.061127 214.125015,350.190033 214.787338,348.792145 
	C216.112640,345.995148 217.117645,342.974518 217.727524,339.940247 
	C218.040833,338.381317 217.646561,335.464294 216.819321,335.151459 
	C215.222229,334.547485 212.220581,334.660278 211.368942,335.727234 
	C209.762863,337.739319 209.267487,340.638000 207.404266,343.169250 
	C206.839249,341.763702 206.365509,340.312103 205.685532,338.964539 
	C204.880341,337.368927 204.225159,335.222076 202.880768,334.534363 
	C201.918884,334.042358 199.466461,335.154602 198.499496,336.265289 
	C196.702179,338.329742 195.503784,340.915588 193.318222,342.949524 
M150.092636,337.197327 
	C149.927048,337.001617 149.761459,336.805878 149.753540,335.893982 
	C150.635468,332.698944 151.517410,329.503876 152.522003,325.864532 
	C149.873154,326.968628 148.416702,327.575714 146.821854,327.403900 
	C141.843536,325.145721 137.183517,326.608246 132.507706,329.160431 
	C134.172867,329.390472 135.838043,329.620514 137.549484,329.856964 
	C135.863159,335.671631 134.188507,341.446014 132.513855,347.220398 
	C133.165024,347.433655 133.816193,347.646912 134.467361,347.860168 
	C136.823334,341.549835 139.179291,335.239502 141.340378,329.451141 
	C143.603378,329.130035 145.275452,328.892761 147.965179,328.231964 
	C147.329208,331.237457 146.644028,334.233673 146.072601,337.251373 
	C145.604904,339.721375 145.272842,342.217072 144.880646,344.701355 
	C145.362610,344.846039 145.844574,344.990723 146.326523,345.135376 
	C148.323395,343.329376 150.320267,341.523407 151.955673,340.044312 
	C153.482269,341.806641 154.699066,343.211304 155.915863,344.615997 
	C156.409698,344.158936 156.903534,343.701874 157.397369,343.244812 
	C153.876068,342.810608 160.063675,331.605927 150.092636,337.197327 
M416.095825,278.228394 
	C410.905579,279.355682 413.778564,275.789062 413.382751,273.867615 
	C412.861450,271.336884 411.712219,268.935516 410.832977,266.478516 
	C408.263275,267.522797 405.040039,267.954865 403.317932,269.793152 
	C401.768158,271.447479 400.938293,274.839966 401.420074,277.121796 
	C402.575256,282.592773 398.923859,285.208069 396.325134,288.633148 
	C395.523590,282.643982 395.184875,276.839600 395.050140,271.030457 
	C394.983978,268.177246 394.390686,266.030640 390.985382,266.084503 
	C387.777039,266.135223 386.644257,268.110077 386.680115,270.984406 
	C386.738159,275.638458 386.875061,280.291473 386.395935,285.291138 
	C384.179382,287.810516 382.353973,290.927277 377.145416,290.938721 
	C378.032501,285.131744 378.949524,279.807495 379.603180,274.451111 
	C379.808472,272.768768 379.492340,269.543121 379.098938,269.492828 
	C374.369324,268.887573 370.425262,264.375122 364.911835,267.223938 
	C359.218475,270.165741 355.873657,274.847687 352.167542,280.399963 
	C349.416443,281.358154 348.909790,279.713745 349.082397,277.588318 
	C349.216522,275.937164 349.731689,274.319550 349.910004,272.668945 
	C350.520172,267.020233 347.504242,264.444031 342.485352,267.096313 
	C339.144867,268.861603 336.597382,272.200287 333.857239,274.993927 
	C332.718567,276.154816 332.002625,277.730377 331.094482,279.117401 
	C330.773041,276.288147 331.629456,273.992554 331.858887,271.635925 
	C332.026123,269.918091 331.366547,268.119781 331.075562,266.357330 
	C328.948486,267.253021 325.560577,267.606628 324.903778,269.134399 
	C321.282410,277.557800 320.716431,286.516785 322.509277,295.486145 
	C322.776764,296.824310 325.054504,298.740356 326.283051,298.655884 
	C327.779846,298.552948 329.688446,296.894775 330.457214,295.410980 
	C331.817017,292.786530 332.188416,289.662659 333.451782,286.972412 
	C335.126556,283.406067 337.260590,280.055420 339.197296,276.612061 
	C341.809601,288.683228 343.041534,289.831879 352.203156,289.107666 
	C353.016083,293.111847 354.238617,296.698883 358.668518,298.300385 
	C363.968964,300.216522 367.334473,297.086517 370.857544,293.749176 
	C373.369141,298.024384 376.590759,300.378357 381.249756,297.985809 
	C383.397919,296.882660 385.156281,295.020599 387.776794,293.789307 
	C392.214813,300.514252 396.609711,300.709869 401.609039,294.403625 
	C402.223022,293.629120 403.061340,292.939056 403.403656,292.057617 
	C405.722443,286.086548 410.281677,284.960846 415.943085,286.065674 
	C416.266022,286.128662 416.596985,286.150787 416.980103,286.939514 
	C418.585297,294.459808 422.764954,298.428406 429.941803,298.866821 
	C436.479462,299.266174 442.258789,297.299591 447.698120,292.776123 
	C451.126709,297.593018 455.498138,300.627106 461.506836,298.227600 
	C464.586426,296.997833 467.178986,294.548492 470.671844,292.902740 
	C476.533691,300.705109 483.413879,301.101837 491.762421,294.036346 
	C500.459930,300.779114 509.206665,300.422974 518.542053,294.776337 
	C520.166809,296.150024 521.717651,298.448975 523.441284,298.586792 
	C524.683777,298.686157 526.557129,296.108551 527.430603,294.364990 
	C528.680237,291.870667 529.033936,288.937042 530.207397,286.392639 
	C531.728943,283.093689 533.680542,279.993011 535.446960,276.806976 
	C535.888794,276.939423 536.330627,277.071899 536.772400,277.204346 
	C537.372131,281.773804 535.967712,287.461945 542.629700,288.677856 
	C547.857422,289.631989 551.746216,286.976227 554.770020,283.326263 
	C555.843384,282.030640 555.316101,279.408936 555.629395,276.303162 
	C551.719849,278.429077 549.232178,279.781769 546.094055,281.488190 
	C546.094055,278.416199 546.276062,276.296967 546.046753,274.223236 
	C545.776062,271.775787 545.613403,267.564758 544.585510,267.300354 
	C542.087341,266.657806 538.411316,266.971863 536.485779,268.504089 
	C532.832275,271.411377 530.072327,275.441559 526.828613,279.133484 
	C527.425903,276.367615 528.185791,273.532135 528.595459,270.646912 
	C528.783813,269.320465 528.651489,266.953949 528.023438,266.710083 
	C526.653625,266.178131 524.461426,266.137695 523.362000,266.937073 
	C521.904602,267.996796 520.620544,269.929535 520.230896,271.700317 
	C519.199829,276.385864 518.690369,281.186218 517.387268,286.296783 
	C509.422882,292.700195 504.589600,293.535522 499.692780,288.927185 
	C501.545074,288.205322 503.369385,287.824860 504.803711,286.862854 
	C507.367432,285.143372 510.127197,283.420044 512.019836,281.066833 
	C514.726013,277.702148 514.955811,273.635986 512.423584,269.906952 
	C509.812134,266.061188 505.938293,265.550385 501.774292,266.674835 
	C494.906952,268.529266 491.340759,273.430023 489.981445,280.113678 
	C489.455841,282.698151 489.314026,285.360687 488.355835,288.306610 
	C487.564270,288.897644 486.811798,289.920929 485.973633,289.996735 
	C483.680084,290.204102 480.775818,290.866943 479.166168,289.784241 
	C476.574646,288.041107 477.477478,285.192932 479.300629,282.821747 
	C480.611633,281.116699 481.870819,279.341705 482.911804,277.464142 
	C488.537872,267.316986 494.219299,257.167053 494.161560,245.049484 
	C494.129059,238.225403 491.930328,234.111832 487.987732,233.314774 
	C484.206573,232.550369 479.784302,235.659805 476.953094,241.095093 
	C476.571869,241.826981 476.251007,242.591919 475.929871,243.353256 
	C474.284515,247.254120 472.648224,251.158813 470.735596,254.218384 
	C471.021027,251.751801 471.367126,249.290451 471.580170,246.817642 
	C472.152893,240.169312 469.886230,234.854523 466.029846,233.650635 
	C461.761749,232.318207 456.633453,235.158798 453.964447,241.765182 
	C451.073730,248.920441 448.649078,256.392853 447.168060,263.951691 
	C445.752899,271.174530 445.812408,278.686310 444.662018,286.490540 
	C441.160919,288.260132 437.805817,290.539124 434.101807,291.600800 
	C432.010162,292.200348 429.344421,290.797150 426.937286,290.296082 
	C430.338593,287.553131 433.468994,286.431396 436.193542,284.678711 
	C440.779663,281.728455 442.530701,274.978516 440.209259,270.673676 
	C437.824707,266.251678 431.988892,264.341522 426.820740,267.697632 
	C422.911926,270.235962 420.225037,274.655884 416.095825,278.228394 
M216.366226,239.819427 
	C210.291733,239.538803 204.455765,240.217331 199.167114,243.620514 
	C192.926819,247.636078 190.375473,255.996262 194.080597,262.351959 
	C194.938660,263.823914 197.667419,264.622131 199.618698,264.796173 
	C200.236267,264.851288 201.984329,261.730682 201.751328,260.302155 
	C200.071259,250.001450 205.427063,245.245911 215.950516,248.242889 
	C215.244980,253.633820 214.548431,259.058960 213.813324,264.478851 
	C213.680054,265.461334 213.388687,266.422363 213.170319,267.393311 
	C210.989166,268.172729 208.382309,269.457001 208.208023,271.013611 
	C208.018600,272.705566 210.090378,274.650665 211.831268,277.592163 
	C211.776978,277.953735 211.583527,279.766602 211.222031,281.545319 
	C210.362976,285.772125 209.899155,290.569427 204.827209,291.851227 
	C199.733871,293.138458 198.250824,288.556458 195.917343,285.418518 
	C195.142899,284.377075 193.105316,282.983521 192.589905,283.298218 
	C191.353714,284.052979 190.076508,285.643158 189.885254,287.042389 
	C189.237488,291.781128 192.032303,294.963287 195.820023,297.086151 
	C205.035080,302.250854 215.852310,297.999481 219.176453,287.901123 
	C220.492218,283.904022 221.226944,279.715637 222.543350,274.312836 
	C224.894745,276.841858 226.812683,278.365662 228.023041,280.326294 
	C230.106430,283.701141 231.676102,287.388306 233.593857,290.871429 
	C236.452637,296.063721 240.676865,299.263947 246.848755,298.870697 
	C253.397888,298.453491 257.947693,294.608856 261.141937,289.272552 
	C262.030212,287.788574 261.471893,285.438751 261.577271,283.486145 
	C261.117188,283.327484 260.657104,283.168793 260.197052,283.010132 
	C258.825775,284.096252 257.327087,285.056091 256.104675,286.289703 
	C249.846909,292.604950 245.886169,291.979095 241.412003,284.225189 
	C238.915085,279.897980 235.941116,275.846039 232.817902,271.118774 
	C232.494980,271.980225 232.507263,271.755951 232.619720,271.679993 
	C233.163391,271.312836 233.710693,270.937836 234.298462,270.651184 
	C244.878296,265.491180 250.904861,256.662384 254.163101,245.714218 
	C254.567459,244.355545 254.476334,241.987793 253.638092,241.327499 
	C252.448425,240.390381 249.852158,239.810318 248.753967,240.501984 
	C246.842117,241.706070 245.316696,243.828888 244.162018,245.868210 
	C241.560181,250.463501 239.650467,255.482773 236.774277,259.881744 
	C233.786316,264.451660 229.261627,267.129456 223.149963,267.355499 
	C223.813568,262.655304 224.387466,258.246246 225.081451,253.856140 
	C225.334534,252.255051 225.445145,250.370865 226.357559,249.180634 
	C229.908157,244.548935 229.321106,242.311157 223.673676,240.895966 
	C221.594040,240.374832 219.424438,240.212646 216.366226,239.819427 
M131.811569,249.943756 
	C135.808319,249.226685 139.805069,248.509613 144.465439,247.673477 
	C143.693146,251.903351 143.054611,255.127075 142.521835,258.368164 
	C140.661880,269.683105 138.782516,280.995483 137.037262,292.328308 
	C136.550858,295.486877 136.892899,298.597137 141.093048,298.860199 
	C144.841217,299.094879 147.035324,297.397736 147.147736,293.343231 
	C147.211945,291.026886 147.605225,288.709412 147.980331,286.413696 
	C150.064270,273.659607 152.188034,260.911987 154.357346,247.804642 
	C160.474655,248.184921 165.934082,248.559998 171.398056,248.849594 
	C174.340317,249.005539 178.030045,249.799255 178.643951,245.659042 
	C179.328445,241.042877 175.111206,240.624008 172.230896,240.569427 
	C160.779129,240.352402 149.285172,240.134277 137.876373,240.922775 
	C132.987030,241.260712 127.893333,243.411880 123.566444,245.907608 
	C118.186646,249.010651 116.632828,257.359436 120.096855,262.177429 
	C121.112061,263.589478 123.809616,263.791931 125.736099,264.548767 
	C126.329193,262.785950 127.721779,260.835785 127.361115,259.296417 
	C126.391937,255.159790 126.948891,252.073654 131.811569,249.943756 
M293.406555,285.781799 
	C293.098145,288.585846 292.295471,291.456726 292.662262,294.169495 
	C292.891083,295.861847 294.873566,298.581604 296.090027,298.592987 
	C298.147858,298.612213 300.485382,297.158722 302.179413,295.709656 
	C303.033661,294.978912 302.729309,292.898712 302.957214,291.429993 
	C305.191559,277.030487 307.427643,262.631195 309.727631,247.817322 
	C316.153534,248.198181 321.932281,248.583466 327.716064,248.865219 
	C330.564117,249.003952 333.773529,249.291107 334.141296,245.256302 
	C334.478241,241.559494 331.574280,240.773087 328.858948,240.775589 
	C315.938843,240.787476 303.007629,240.755554 290.106415,241.327103 
	C286.658875,241.479828 283.051666,243.273972 279.959778,245.073822 
	C274.235687,248.405914 272.021912,256.746552 275.471527,262.035950 
	C276.433624,263.511139 279.313751,264.777496 281.020599,264.476471 
	C283.476410,264.043304 284.212128,261.909119 283.105530,259.030273 
	C281.303711,254.342728 282.815948,251.275345 287.680847,249.866348 
	C291.547058,248.746597 295.662842,248.488647 299.848175,247.819244 
	C297.671021,260.731903 295.630951,272.831604 293.406555,285.781799 
M302.499451,106.295731 
	C321.806213,106.295677 341.112946,106.299171 360.419708,106.288612 
	C361.913391,106.287796 363.628998,106.626640 364.839447,106.013718 
	C366.101929,105.374466 367.652832,103.770622 367.648193,102.594177 
	C367.643524,101.414932 366.052917,99.967766 364.815857,99.163231 
	C363.980164,98.619774 362.552856,98.950813 361.390167,98.950630 
	C322.776672,98.944458 284.163177,98.943970 245.549698,98.953110 
	C244.390060,98.953384 242.999222,98.687180 242.128036,99.219383 
	C240.981781,99.919624 239.440674,101.360687 239.529358,102.352692 
	C239.646606,103.664536 240.938019,105.282188 242.170013,105.965027 
	C243.340027,106.613510 245.083618,106.285690 246.575058,106.286804 
	C264.883179,106.300468 283.191315,106.295677 302.499451,106.295731 
M70.461952,272.130859 
	C71.784660,264.142212 73.107368,256.153595 74.473076,247.905273 
	C77.053337,247.905273 79.460342,248.505524 81.291313,247.735718 
	C83.106888,246.972382 84.342125,244.828751 85.831879,243.290512 
	C84.247375,242.190277 82.708778,240.228149 81.070328,240.140884 
	C74.425888,239.786987 67.749565,239.945282 61.087879,240.069412 
	C59.641171,240.096375 57.845257,240.358032 56.858200,241.238251 
	C55.644836,242.320267 54.580124,244.141388 54.512943,245.689102 
	C54.480507,246.436356 56.790306,247.693390 58.195007,247.994553 
	C60.070999,248.396744 62.098125,248.093994 64.502586,248.093994 
	C62.200844,262.664886 59.977692,276.738281 57.772877,290.695587 
	C54.809673,291.194702 51.971901,291.143677 49.683334,292.239594 
	C48.092514,293.001343 47.256527,295.339447 46.083321,296.973358 
	C47.793297,297.933502 49.483772,299.660034 51.217064,299.704163 
	C55.679394,299.817688 60.156471,299.097839 64.635925,298.884613 
	C67.458603,298.750214 70.458000,299.505829 73.072716,298.772766 
	C74.956337,298.244720 76.336334,295.920227 77.940956,294.397003 
	C76.394585,293.256104 74.988701,291.754456 73.260170,291.081238 
	C71.701546,290.474243 69.789658,290.774323 67.846451,290.663696 
	C68.669746,284.503815 69.440346,278.738220 70.461952,272.130859 
M81.480728,293.837036 
	C80.024689,298.511536 81.121002,300.108032 85.709023,299.804108 
	C89.357101,299.562408 92.990295,299.040802 96.640114,298.895874 
	C100.295998,298.750702 104.043747,299.375153 107.593872,298.757599 
	C109.384430,298.446167 110.826691,296.132355 112.426422,294.723938 
	C110.788689,293.459045 109.309395,291.806732 107.463150,291.051666 
	C105.982597,290.446167 104.056824,290.929260 101.977432,290.929260 
	C104.305733,276.188080 106.522713,262.151703 108.774017,247.898056 
	C111.522743,247.898056 113.935112,248.502533 115.758240,247.725128 
	C117.520325,246.973740 118.675316,244.798615 120.097000,243.248901 
	C118.545715,242.166412 117.041504,240.239243 115.434891,240.149734 
	C108.959557,239.788940 102.451271,239.922958 95.958305,240.043777 
	C94.341644,240.073868 92.375191,240.295090 91.225937,241.232880 
	C90.022171,242.215164 89.053726,244.171982 89.071701,245.689972 
	C89.081398,246.508636 91.282669,247.715179 92.651764,248.003738 
	C94.548843,248.403580 96.593300,248.104172 98.910858,248.104172 
	C96.603973,262.644745 94.353508,276.829712 92.235252,290.181335 
	C88.248436,291.393250 85.123032,292.343292 81.480728,293.837036 
M272.500153,53.247318 
	C268.668335,53.247314 264.836517,53.245533 261.004700,53.247730 
	C255.173721,53.251068 249.321808,52.989994 243.526093,53.444466 
	C242.022263,53.562393 240.694229,55.922020 239.285431,57.251972 
	C240.670227,58.439915 241.949234,59.800903 243.485962,60.740307 
	C244.216934,61.187153 245.438843,60.837467 246.438354,60.837509 
	C274.760468,60.838608 303.082550,60.840256 331.404663,60.832020 
	C332.734436,60.831635 334.349945,61.195660 335.324860,60.582710 
	C336.680145,59.730602 338.241028,58.195816 338.406372,56.798542 
	C338.526215,55.785374 336.709259,54.182835 335.411316,53.475807 
	C334.368042,52.907520 332.807953,53.253304 331.477173,53.252773 
	C312.151520,53.245087 292.825836,53.247406 272.500153,53.247318 
M271.499695,174.490555 
	C290.816071,174.490051 310.132477,174.491837 329.448853,174.486450 
	C332.196655,174.485672 335.239929,174.542984 335.075195,170.652634 
	C334.930115,167.226639 332.166992,167.166412 329.540344,167.167725 
	C301.398376,167.181747 273.256378,167.189789 245.114471,167.156555 
	C242.221329,167.153137 239.337738,167.443024 239.435684,171.042526 
	C239.525894,174.357849 242.382980,174.509399 245.022049,174.500641 
	C253.514511,174.472473 262.007111,174.490372 271.499695,174.490555 
M242.287933,128.981400 
	C264.230042,129.017014 286.172180,129.038788 308.114197,129.105728 
	C310.853821,129.114090 313.673340,128.629303 313.284698,125.425133 
	C313.119507,124.063347 310.195312,122.030144 308.506470,122.011841 
	C287.064148,121.779457 265.618134,121.812584 244.174271,121.956871 
	C242.667709,121.967003 240.404297,123.056343 239.894958,124.244766 
	C239.429993,125.329681 240.869812,127.230927 242.287933,128.981400 
M335.499969,151.903183 
	C344.305145,151.903000 353.110291,151.894394 361.915466,151.907547 
	C364.694458,151.911697 367.703217,151.818863 367.813690,148.204193 
	C367.924927,144.562912 364.991241,144.259537 362.158112,144.260483 
	C344.381653,144.266495 326.605133,144.277206 308.828735,144.250351 
	C305.936981,144.245987 303.074829,144.652969 303.180115,148.212891 
	C303.285461,151.775269 306.271454,151.925888 309.081299,151.914917 
	C317.554047,151.881836 326.027039,151.903107 335.499969,151.903183 
M242.360672,151.798492 
	C257.514435,151.836060 272.668243,151.866730 287.821930,151.917572 
	C290.543610,151.926712 293.096191,151.451691 293.108582,148.111389 
	C293.121033,144.756393 290.550262,144.278030 287.837311,144.279419 
	C273.347931,144.286865 258.857361,144.198120 244.370834,144.401672 
	C242.745178,144.424530 240.615082,145.743088 239.738373,147.113144 
	C239.257034,147.865387 240.906052,149.980850 242.360672,151.798492 
M258.502197,83.431183 
	C264.975525,83.427513 271.462708,83.650673 277.912079,83.255608 
	C279.462677,83.160629 280.887573,81.014252 282.370300,79.811302 
	C280.885162,78.587906 279.427338,76.344467 277.910522,76.303864 
	C266.631714,76.001945 255.336700,75.982010 244.059464,76.309830 
	C242.450256,76.356606 240.909332,78.752335 239.336807,80.060944 
	C240.910995,81.182716 242.403412,83.100349 244.075226,83.272148 
	C248.510101,83.727890 253.022461,83.429504 258.502197,83.431183 
M365.777679,121.958206 
	C353.311035,121.924667 340.841492,121.755150 328.381104,122.018211 
	C326.696991,122.053772 325.058746,124.262207 323.399231,125.464500 
	C325.070984,126.672768 326.716766,128.883804 328.418671,128.927917 
	C340.213745,129.233566 352.021820,129.171463 363.821930,128.986176 
	C365.349792,128.962189 367.592346,127.893257 368.149078,126.684425 
	C368.631561,125.636826 367.191528,123.703758 365.777679,121.958206 
M340.457611,175.889069 
	C338.525085,177.817444 337.170135,180.075470 339.618988,182.290649 
	C342.065186,184.503494 344.143311,182.838196 345.959259,180.851334 
	C356.507538,169.310425 356.695404,172.372620 345.768250,161.108719 
	C344.473419,159.773972 340.782043,158.832153 339.628174,159.670868 
	C336.687622,161.808289 338.789948,164.257370 340.724335,166.265137 
	C342.162750,167.758087 343.547699,169.302551 345.075806,170.953003 
	C343.436188,172.708496 342.201599,174.030319 340.457611,175.889069 
M382.666443,117.830276 
	C381.400055,116.504921 380.354279,114.708961 378.806671,113.983627 
	C377.187042,113.224518 375.085205,113.494164 373.194153,113.314133 
	C373.343018,115.232521 372.935730,117.454468 373.776611,118.995178 
	C374.918976,121.088326 377.015900,122.660484 378.879272,124.643166 
	C376.883392,126.839767 374.718903,128.585022 373.467682,130.837555 
	C372.715302,132.192047 373.386292,134.337158 373.417603,136.126938 
	C375.202972,135.987396 377.285706,136.374451 378.699188,135.576324 
	C380.505463,134.556427 381.774994,132.583359 383.270203,131.015762 
	C389.249878,124.746651 389.249084,124.745895 382.666443,117.830276 
M232.358307,158.664246 
	C230.694748,155.018799 229.031189,151.373352 227.062225,147.058670 
	C228.090973,145.925873 230.237000,144.197922 231.473175,141.966019 
	C232.227951,140.603271 231.583328,138.465439 231.567230,136.675720 
	C229.789520,136.818756 227.551422,136.336563 226.330414,137.235641 
	C223.826614,139.079330 221.892273,141.687408 219.677994,143.935989 
	C217.688049,145.956757 215.592499,148.687119 218.482040,150.653381 
	C222.870575,153.639664 223.765411,162.337082 232.358307,158.664246 
M232.724091,64.844551 
	C230.596619,62.184406 228.469147,59.524258 226.286026,56.794521 
	C228.100311,54.841988 230.104980,53.364067 231.116028,51.379848 
	C231.914291,49.813255 231.490494,47.623966 231.609451,45.711231 
	C229.712936,45.941673 227.061188,45.446217 226.035370,46.513512 
	C214.232086,58.793938 214.466690,55.359192 225.204681,66.964493 
	C225.429932,67.207932 225.653824,67.454788 225.898987,67.677284 
	C229.260941,70.728157 231.120026,70.163300 232.724091,64.844551 
M369.789398,325.965210 
	C367.333618,326.608887 364.877838,327.252533 362.422058,327.896210 
	C362.463318,328.207764 362.504608,328.519287 362.545898,328.830841 
	C363.759613,329.073212 364.973358,329.315552 366.599670,329.640289 
	C363.676636,335.241638 365.419678,342.899963 358.264343,347.359467 
	C362.136749,347.063080 366.009155,346.766693 369.881592,346.470306 
	C369.883575,345.987122 369.885559,345.503967 369.887573,345.020813 
	C368.430511,344.593842 366.973480,344.166840 365.260529,343.664886 
	C366.641968,339.247040 367.671295,335.021149 369.369019,331.083405 
	C369.892303,329.869629 372.204468,328.899414 373.760529,328.799591 
	C375.489410,328.688690 377.290283,329.699738 379.081177,330.228638 
	C377.475159,335.995117 375.892609,341.677307 374.310059,347.359528 
	C374.951630,347.553040 375.593170,347.746521 376.234741,347.940002 
	C378.520416,341.704315 380.806122,335.468628 383.076813,329.273804 
	C385.151886,329.119202 387.076233,328.975830 389.000610,328.832428 
	C389.004517,328.241058 389.008423,327.649689 389.012329,327.058289 
	C382.890747,326.706299 376.769165,326.354340 369.789398,325.965210 
M169.585846,273.764465 
	C168.625336,275.366028 166.898376,277.006378 166.976730,278.555328 
	C167.028030,279.569183 169.695633,281.244751 171.188110,281.241211 
	C175.495926,281.230957 179.895920,280.904541 184.060791,279.887543 
	C185.635651,279.502930 186.665970,276.888306 187.944504,275.290192 
	C186.388718,274.248962 184.837265,272.340485 183.276306,272.332703 
	C178.975739,272.311157 174.671204,273.085419 169.585846,273.764465 
M309.723755,326.501404 
	C308.317047,329.454834 306.910339,332.408295 305.368591,335.645233 
	C301.382263,334.535217 299.013367,336.786041 297.961578,340.507111 
	C297.579834,341.857513 297.976959,344.680206 298.506653,344.807953 
	C300.297516,345.239868 302.307098,344.764740 304.553253,344.615021 
	C304.824066,345.006897 305.473267,345.946320 306.124512,346.888672 
	C308.057922,340.227631 309.915161,333.913361 311.658691,327.567902 
	C311.744110,327.257050 310.835266,326.672974 309.723755,326.501404 
M360.863068,327.959167 
	C360.979645,327.666290 361.261780,327.169281 361.188812,327.110107 
	C358.598206,325.008911 350.215271,326.144226 349.024780,328.975647 
	C350.252350,329.162415 351.406677,329.338043 353.048737,329.587860 
	C350.221283,335.559753 351.557770,342.882202 344.670929,347.251251 
	C348.491425,347.044556 352.311920,346.837860 356.132416,346.631165 
	C356.120178,346.026184 356.107910,345.421204 356.095673,344.816193 
	C354.670746,344.522125 353.245819,344.228058 351.661499,343.901123 
	C352.892487,339.866058 354.180084,336.264801 355.058075,332.566315 
	C355.726196,329.751953 357.076294,328.172150 360.863068,327.959167 
M337.191101,337.192841 
	C336.286530,336.301270 335.381927,335.409698 334.169128,334.214325 
	C335.035370,332.707855 336.155853,330.759247 337.374268,328.640320 
	C338.165588,329.725555 338.707886,330.469238 339.250153,331.212921 
	C339.635681,331.205750 340.021210,331.198578 340.406738,331.191437 
	C340.545258,329.538177 340.683807,327.884949 340.822357,326.231720 
	C339.050720,326.509491 337.145966,326.480896 335.554138,327.172546 
	C334.490570,327.634674 333.512939,328.999481 333.116394,330.170197 
	C331.378601,335.300446 329.752563,340.476868 328.359680,345.709381 
	C328.043121,346.898438 328.818451,348.378174 329.091187,349.724121 
	C329.523895,349.692230 329.956604,349.660370 330.389282,349.628510 
	C330.807068,347.447845 331.489166,345.278351 331.581635,343.083984 
	C331.726013,339.657166 333.411621,338.019104 337.191101,337.192841 
M320.552795,345.966522 
	C324.630005,345.048340 326.862549,342.216339 327.218689,338.346375 
	C327.334045,337.092926 325.336639,335.645081 324.305664,334.286133 
	C322.248322,336.050049 319.717072,337.498749 318.272736,339.670380 
	C316.943390,341.669128 316.575897,344.500305 320.552795,345.966522 
M164.168304,334.271271 
	C162.668716,336.307495 160.489243,338.168427 159.903503,340.440247 
	C159.498825,342.009796 160.861603,345.156433 162.232101,345.746796 
	C163.601471,346.336700 165.963425,344.622375 167.890244,343.918182 
	C167.711136,343.402466 167.532028,342.886719 167.352921,342.370972 
	C165.651855,342.370972 163.950775,342.370972 162.909302,342.370972 
	C165.044144,340.461487 167.102982,338.619995 169.161835,336.778503 
	C167.744522,335.850494 166.327209,334.922455 164.168304,334.271271 
M454.688843,336.368683 
	C453.756378,338.467804 452.823944,340.566925 451.891510,342.666077 
	C451.483917,342.510406 451.076324,342.354767 450.668732,342.199127 
	C451.133972,339.805786 451.599182,337.412445 452.064392,335.019104 
	C448.252747,336.980682 447.243744,340.040253 447.877289,343.573944 
	C448.016815,344.352173 449.381714,345.330658 450.292633,345.464172 
	C452.260437,345.752594 454.299744,345.552917 456.037384,345.552917 
	C456.402008,343.271729 456.805176,340.652649 457.243713,338.039520 
	C457.542908,336.256683 457.890503,334.483093 454.688843,336.368683 
M226.395142,344.125214 
	C228.211853,344.670166 230.164139,345.889191 231.804886,345.559204 
	C233.272095,345.264099 234.395676,343.260529 235.670868,342.010773 
	C235.327621,341.673492 234.984375,341.336212 234.641129,340.998962 
	C233.005096,341.823639 231.369064,342.648315 228.350723,344.169769 
	C229.578796,340.966522 230.276276,339.147278 230.969345,337.339508 
	C232.459763,338.038330 233.443787,338.499725 234.427795,338.961121 
	C234.633652,337.912140 235.330078,336.574432 234.924484,335.885345 
	C234.385086,334.968964 232.950302,334.009491 231.967697,334.075409 
	C230.861084,334.149628 229.366257,335.106293 228.858749,336.097992 
	C227.687668,338.386383 227.011520,340.928040 226.395142,344.125214 
M271.519775,326.113983 
	C270.913910,326.230255 269.878204,326.186035 269.765961,326.486603 
	C267.749084,331.888214 265.752686,337.302338 263.996155,342.791962 
	C263.668060,343.817322 264.397675,345.181091 264.639191,346.388702 
	C265.025726,346.359283 265.412292,346.329865 265.798859,346.300446 
	C267.859802,339.793152 269.920746,333.285828 271.519775,326.113983 
M461.127228,334.817291 
	C460.093475,338.294220 457.166840,341.594116 459.461670,345.249084 
	C462.918640,342.033966 466.110016,339.065887 469.897430,335.543457 
	C467.505890,335.908173 465.490265,336.215576 464.678040,336.339447 
	C463.119812,335.290833 462.341797,334.767273 461.127228,334.817291 
M224.053085,339.920532 
	C223.889908,338.637421 223.726746,337.354309 223.563568,336.071198 
	C223.022415,336.074524 222.481247,336.077820 221.940079,336.081146 
	C221.299469,339.237976 220.658844,342.394806 220.018219,345.551605 
	C220.612274,345.700958 221.206345,345.850281 221.800400,345.999603 
	C222.518082,344.218811 223.235764,342.438019 224.053085,339.920532 
z"/>
<path fill="#EBC2B3" opacity="1.000000" stroke="none" 
	d="
M216.831055,239.853073 
	C219.424438,240.212646 221.594040,240.374832 223.673676,240.895966 
	C229.321106,242.311157 229.908157,244.548935 226.357559,249.180634 
	C225.445145,250.370865 225.334534,252.255051 225.081451,253.856140 
	C224.387466,258.246246 223.813568,262.655304 223.149963,267.355499 
	C229.261627,267.129456 233.786316,264.451660 236.774277,259.881744 
	C239.650467,255.482773 241.560181,250.463501 244.162018,245.868210 
	C245.316696,243.828888 246.842117,241.706070 248.753967,240.501984 
	C249.852158,239.810318 252.448425,240.390381 253.638092,241.327499 
	C254.476334,241.987793 254.567459,244.355545 254.163101,245.714218 
	C250.904861,256.662384 244.878296,265.491180 234.298462,270.651184 
	C233.710693,270.937836 233.163391,271.312836 232.619720,271.679993 
	C232.507263,271.755951 232.494980,271.980225 232.817902,271.118774 
	C235.941116,275.846039 238.915085,279.897980 241.412003,284.225189 
	C245.886169,291.979095 249.846909,292.604950 256.104675,286.289703 
	C257.327087,285.056091 258.825775,284.096252 260.197052,283.010132 
	C260.657104,283.168793 261.117188,283.327484 261.577271,283.486145 
	C261.471893,285.438751 262.030212,287.788574 261.141937,289.272552 
	C257.947693,294.608856 253.397888,298.453491 246.848755,298.870697 
	C240.676865,299.263947 236.452637,296.063721 233.593857,290.871429 
	C231.676102,287.388306 230.106430,283.701141 228.023041,280.326294 
	C226.812683,278.365662 224.894745,276.841858 222.543350,274.312836 
	C221.226944,279.715637 220.492218,283.904022 219.176453,287.901123 
	C215.852310,297.999481 205.035080,302.250854 195.820023,297.086151 
	C192.032303,294.963287 189.237488,291.781128 189.885254,287.042389 
	C190.076508,285.643158 191.353714,284.052979 192.589905,283.298218 
	C193.105316,282.983521 195.142899,284.377075 195.917343,285.418518 
	C198.250824,288.556458 199.733871,293.138458 204.827209,291.851227 
	C209.899155,290.569427 210.362976,285.772125 211.222031,281.545319 
	C211.583527,279.766602 211.776978,277.953735 211.831268,277.592163 
	C210.090378,274.650665 208.018600,272.705566 208.208023,271.013611 
	C208.382309,269.457001 210.989166,268.172729 213.170319,267.393311 
	C213.388687,266.422363 213.680054,265.461334 213.813324,264.478851 
	C214.548431,259.058960 215.244980,253.633820 215.950516,248.242889 
	C205.427063,245.245911 200.071259,250.001450 201.751328,260.302155 
	C201.984329,261.730682 200.236267,264.851288 199.618698,264.796173 
	C197.667419,264.622131 194.938660,263.823914 194.080597,262.351959 
	C190.375473,255.996262 192.926819,247.636078 199.167114,243.620514 
	C204.455765,240.217331 210.291733,239.538803 216.831055,239.853073 
z"/>
<path fill="#EEDAD2" opacity="1.000000" stroke="none" 
	d="
M131.414337,250.048660 
	C126.948891,252.073654 126.391937,255.159790 127.361115,259.296417 
	C127.721779,260.835785 126.329193,262.785950 125.736099,264.548767 
	C123.809616,263.791931 121.112061,263.589478 120.096855,262.177429 
	C116.632828,257.359436 118.186646,249.010651 123.566444,245.907608 
	C127.893333,243.411880 132.987030,241.260712 137.876373,240.922775 
	C149.285172,240.134277 160.779129,240.352402 172.230896,240.569427 
	C175.111206,240.624008 179.328445,241.042877 178.643951,245.659042 
	C178.030045,249.799255 174.340317,249.005539 171.398056,248.849594 
	C165.934082,248.559998 160.474655,248.184921 154.357346,247.804642 
	C152.188034,260.911987 150.064270,273.659607 147.980331,286.413696 
	C147.605225,288.709412 147.211945,291.026886 147.147736,293.343231 
	C147.035324,297.397736 144.841217,299.094879 141.093048,298.860199 
	C136.892899,298.597137 136.550858,295.486877 137.037262,292.328308 
	C138.782516,280.995483 140.661880,269.683105 142.521835,258.368164 
	C143.054611,255.127075 143.693146,251.903351 144.465439,247.673477 
	C139.805069,248.509613 135.808319,249.226685 131.414337,250.048660 
z"/>
<path fill="#EBB7A4" opacity="1.000000" stroke="none" 
	d="
M293.498718,285.356537 
	C295.630951,272.831604 297.671021,260.731903 299.848175,247.819244 
	C295.662842,248.488647 291.547058,248.746597 287.680847,249.866348 
	C282.815948,251.275345 281.303711,254.342728 283.105530,259.030273 
	C284.212128,261.909119 283.476410,264.043304 281.020599,264.476471 
	C279.313751,264.777496 276.433624,263.511139 275.471527,262.035950 
	C272.021912,256.746552 274.235687,248.405914 279.959778,245.073822 
	C283.051666,243.273972 286.658875,241.479828 290.106415,241.327103 
	C303.007629,240.755554 315.938843,240.787476 328.858948,240.775589 
	C331.574280,240.773087 334.478241,241.559494 334.141296,245.256302 
	C333.773529,249.291107 330.564117,249.003952 327.716064,248.865219 
	C321.932281,248.583466 316.153534,248.198181 309.727631,247.817322 
	C307.427643,262.631195 305.191559,277.030487 302.957214,291.429993 
	C302.729309,292.898712 303.033661,294.978912 302.179413,295.709656 
	C300.485382,297.158722 298.147858,298.612213 296.090027,298.592987 
	C294.873566,298.581604 292.891083,295.861847 292.662262,294.169495 
	C292.295471,291.456726 293.098145,288.585846 293.498718,285.356537 
z"/>
<path fill="#F0F0F0" opacity="1.000000" stroke="none" 
	d="
M301.999451,106.295692 
	C283.191315,106.295677 264.883179,106.300468 246.575058,106.286804 
	C245.083618,106.285690 243.340027,106.613510 242.170013,105.965027 
	C240.938019,105.282188 239.646606,103.664536 239.529358,102.352692 
	C239.440674,101.360687 240.981781,99.919624 242.128036,99.219383 
	C242.999222,98.687180 244.390060,98.953384 245.549698,98.953110 
	C284.163177,98.943970 322.776672,98.944458 361.390167,98.950630 
	C362.552856,98.950813 363.980164,98.619774 364.815857,99.163231 
	C366.052917,99.967766 367.643524,101.414932 367.648193,102.594177 
	C367.652832,103.770622 366.101929,105.374466 364.839447,106.013718 
	C363.628998,106.626640 361.913391,106.287796 360.419708,106.288612 
	C341.112946,106.299171 321.806213,106.295677 301.999451,106.295692 
z"/>
<path fill="#E37D56" opacity="1.000000" stroke="none" 
	d="
M469.991699,292.650330 
	C467.178986,294.548492 464.586426,296.997833 461.506836,298.227600 
	C455.498138,300.627106 451.126709,297.593018 447.344971,292.336945 
	C446.402466,289.955536 445.813080,288.013306 445.223694,286.071075 
	C445.812408,278.686310 445.752899,271.174530 447.168060,263.951691 
	C448.649078,256.392853 451.073730,248.920441 453.964447,241.765182 
	C456.633453,235.158798 461.761749,232.318207 466.029846,233.650635 
	C469.886230,234.854523 472.152893,240.169312 471.580170,246.817642 
	C471.367126,249.290451 471.021027,251.751801 470.894226,254.611145 
	C471.052887,255.003906 471.021881,254.936569 470.648041,255.082794 
	C470.173187,256.503235 470.072174,257.777466 470.007874,259.036560 
	C470.044556,259.021393 470.023651,258.944794 469.648285,258.975403 
	C464.913727,267.189667 460.437622,275.314850 456.295593,283.606934 
	C455.482269,285.235199 455.122955,288.441315 456.040222,289.265076 
	C457.402039,290.488007 460.335907,290.999664 462.149231,290.414703 
	C464.359863,289.701538 466.102814,287.538452 468.298828,286.244537 
	C469.030273,288.541168 469.510986,290.595764 469.991699,292.650330 
M454.981873,265.400085 
	C454.780487,267.045441 454.508423,268.686066 454.398621,270.337524 
	C454.299469,271.829620 454.377716,273.333466 454.377716,274.832153 
	C460.727448,264.068268 466.362122,253.268524 464.071991,239.567993 
	C459.339417,243.411636 457.653900,248.448654 454.981873,265.400085 
z"/>
<path fill="#F2F2F2" opacity="1.000000" stroke="none" 
	d="
M70.336449,272.551727 
	C69.440346,278.738220 68.669746,284.503815 67.846451,290.663696 
	C69.789658,290.774323 71.701546,290.474243 73.260170,291.081238 
	C74.988701,291.754456 76.394585,293.256104 77.940964,294.397003 
	C76.336334,295.920227 74.956337,298.244720 73.072716,298.772766 
	C70.458000,299.505829 67.458603,298.750214 64.635925,298.884613 
	C60.156471,299.097839 55.679394,299.817688 51.217064,299.704163 
	C49.483772,299.660034 47.793297,297.933502 46.083321,296.973328 
	C47.256527,295.339447 48.092514,293.001343 49.683334,292.239594 
	C51.971901,291.143677 54.809673,291.194702 57.772877,290.695587 
	C59.977692,276.738281 62.200844,262.664886 64.502586,248.093994 
	C62.098125,248.093994 60.070999,248.396744 58.195007,247.994553 
	C56.790306,247.693390 54.480507,246.436356 54.512943,245.689102 
	C54.580124,244.141388 55.644836,242.320267 56.858200,241.238251 
	C57.845257,240.358032 59.641171,240.096375 61.087879,240.069412 
	C67.749565,239.945282 74.425888,239.786987 81.070328,240.140884 
	C82.708778,240.228149 84.247375,242.190277 85.831879,243.290497 
	C84.342125,244.828751 83.106888,246.972382 81.291313,247.735718 
	C79.460342,248.505524 77.053337,247.905273 74.473076,247.905273 
	C73.107368,256.153595 71.784660,264.142212 70.336449,272.551727 
z"/>
<path fill="#F1E6E2" opacity="1.000000" stroke="none" 
	d="
M81.739182,293.565186 
	C85.123032,292.343292 88.248436,291.393250 92.235252,290.181335 
	C94.353508,276.829712 96.603973,262.644745 98.910858,248.104172 
	C96.593300,248.104172 94.548843,248.403580 92.651764,248.003738 
	C91.282669,247.715179 89.081398,246.508636 89.071701,245.689972 
	C89.053726,244.171982 90.022171,242.215164 91.225937,241.232880 
	C92.375191,240.295090 94.341644,240.073868 95.958305,240.043777 
	C102.451271,239.922958 108.959557,239.788940 115.434891,240.149734 
	C117.041504,240.239243 118.545715,242.166412 120.097000,243.248901 
	C118.675316,244.798615 117.520325,246.973740 115.758240,247.725128 
	C113.935112,248.502533 111.522743,247.898056 108.774017,247.898056 
	C106.522713,262.151703 104.305733,276.188080 101.977432,290.929260 
	C104.056824,290.929260 105.982597,290.446167 107.463150,291.051666 
	C109.309395,291.806732 110.788689,293.459045 112.426430,294.723938 
	C110.826691,296.132355 109.384430,298.446167 107.593872,298.757599 
	C104.043747,299.375153 100.295998,298.750702 96.640114,298.895874 
	C92.990295,299.040802 89.357101,299.562408 85.709023,299.804108 
	C81.121002,300.108032 80.024689,298.511536 81.739182,293.565186 
z"/>
<path fill="#E27147" opacity="1.000000" stroke="none" 
	d="
M470.331787,292.776550 
	C469.510986,290.595764 469.030273,288.541168 468.394196,285.788940 
	C468.833771,276.375793 469.428711,267.660309 470.023651,258.944794 
	C470.023651,258.944794 470.044556,259.021393 470.354492,258.870056 
	C470.783539,257.457977 470.902710,256.197266 471.021881,254.936569 
	C471.021881,254.936569 471.052887,255.003906 471.030823,255.033035 
	C472.648224,251.158813 474.284515,247.254120 475.929871,243.353256 
	C476.251007,242.591919 476.571869,241.826981 476.953094,241.095093 
	C479.784302,235.659805 484.206573,232.550369 487.987732,233.314774 
	C491.930328,234.111832 494.129059,238.225403 494.161560,245.049484 
	C494.219299,257.167053 488.537872,267.316986 482.911804,277.464142 
	C481.870819,279.341705 480.611633,281.116699 479.300629,282.821747 
	C477.477478,285.192932 476.574646,288.041107 479.166168,289.784241 
	C480.775818,290.866943 483.680084,290.204102 485.973633,289.996735 
	C486.811798,289.920929 487.564270,288.897644 488.937927,288.388947 
	C490.028046,290.340027 490.536041,292.208771 491.044037,294.077515 
	C483.413879,301.101837 476.533691,300.705109 470.331787,292.776550 
M485.698364,257.041534 
	C486.764130,251.450775 488.967682,245.842148 485.569916,240.231430 
	C479.007843,250.917160 477.743896,262.710236 476.857666,274.591034 
	C477.291229,274.740082 477.724762,274.889160 478.158325,275.038239 
	C480.570129,269.290619 482.981964,263.543030 485.698364,257.041534 
z"/>
<path fill="#E3E2E1" opacity="1.000000" stroke="none" 
	d="
M273.000183,53.247322 
	C292.825836,53.247406 312.151520,53.245087 331.477173,53.252773 
	C332.807953,53.253304 334.368042,52.907520 335.411316,53.475807 
	C336.709259,54.182835 338.526215,55.785374 338.406372,56.798542 
	C338.241028,58.195816 336.680145,59.730602 335.324860,60.582710 
	C334.349945,61.195660 332.734436,60.831635 331.404663,60.832020 
	C303.082550,60.840256 274.760468,60.838608 246.438354,60.837509 
	C245.438843,60.837467 244.216934,61.187153 243.485962,60.740307 
	C241.949234,59.800903 240.670227,58.439915 239.285431,57.251976 
	C240.694229,55.922020 242.022263,53.562393 243.526093,53.444466 
	C249.321808,52.989994 255.173721,53.251068 261.004700,53.247730 
	C264.836517,53.245533 268.668335,53.247314 273.000183,53.247322 
z"/>
<path fill="#EDEDEC" opacity="1.000000" stroke="none" 
	d="
M270.999695,174.490524 
	C262.007111,174.490372 253.514511,174.472473 245.022049,174.500641 
	C242.382980,174.509399 239.525894,174.357849 239.435684,171.042526 
	C239.337738,167.443024 242.221329,167.153137 245.114471,167.156555 
	C273.256378,167.189789 301.398376,167.181747 329.540344,167.167725 
	C332.166992,167.166412 334.930115,167.226639 335.075195,170.652634 
	C335.239929,174.542984 332.196655,174.485672 329.448853,174.486450 
	C310.132477,174.491837 290.816071,174.490051 270.999695,174.490524 
z"/>
<path fill="#E8A085" opacity="1.000000" stroke="none" 
	d="
M387.091400,293.502655 
	C385.156281,295.020599 383.397919,296.882660 381.249756,297.985809 
	C376.590759,300.378357 373.369141,298.024384 370.857544,293.749176 
	C367.334473,297.086517 363.968964,300.216522 358.668518,298.300385 
	C354.238617,296.698883 353.016083,293.111847 352.145050,288.345032 
	C352.408417,285.122498 352.729858,282.662537 353.051300,280.202606 
	C355.873657,274.847687 359.218475,270.165741 364.911835,267.223938 
	C370.425262,264.375122 374.369324,268.887573 379.098938,269.492828 
	C379.492340,269.543121 379.808472,272.768768 379.603180,274.451111 
	C378.949524,279.807495 378.032501,285.131744 377.145416,290.938721 
	C382.353973,290.927277 384.179382,287.810516 386.690674,285.518738 
	C387.020721,288.331787 387.056061,290.917236 387.091400,293.502655 
M367.014374,274.134460 
	C363.121307,277.440765 360.875549,281.637024 361.072083,286.748230 
	C361.137451,288.448944 362.471741,290.100891 363.225952,291.775116 
	C364.842438,290.600708 367.372009,289.741089 367.905548,288.193329 
	C369.555298,283.407562 370.444580,278.359619 371.827942,272.583435 
	C369.776764,273.172821 368.749512,273.468018 367.014374,274.134460 
z"/>
<path fill="#DD5927" opacity="1.000000" stroke="none" 
	d="
M517.973328,285.940887 
	C518.690369,281.186218 519.199829,276.385864 520.230896,271.700317 
	C520.620544,269.929535 521.904602,267.996796 523.362000,266.937073 
	C524.461426,266.137695 526.653625,266.178131 528.023438,266.710083 
	C528.651489,266.953949 528.783813,269.320465 528.595459,270.646912 
	C528.185791,273.532135 527.425903,276.367615 526.828613,279.133484 
	C530.072327,275.441559 532.832275,271.411377 536.485779,268.504089 
	C538.411316,266.971863 542.087341,266.657806 544.585510,267.300354 
	C545.613403,267.564758 545.776062,271.775787 546.046753,274.223236 
	C546.276062,276.296967 546.094055,278.416199 546.094055,281.488190 
	C549.232178,279.781769 551.719849,278.429077 555.629395,276.303162 
	C555.316101,279.408936 555.843384,282.030640 554.770020,283.326263 
	C551.746216,286.976227 547.857422,289.631989 542.629700,288.677856 
	C535.967712,287.461945 537.372131,281.773804 536.772400,277.204346 
	C536.330627,277.071899 535.888794,276.939423 535.446960,276.806976 
	C533.680542,279.993011 531.728943,283.093689 530.207397,286.392639 
	C529.033936,288.937042 528.680237,291.870667 527.430603,294.364990 
	C526.557129,296.108551 524.683777,298.686157 523.441284,298.586792 
	C521.717651,298.448975 520.166809,296.150024 518.270874,294.102600 
	C517.990906,290.932861 517.982117,288.436859 517.973328,285.940887 
z"/>
<path fill="#E69475" opacity="1.000000" stroke="none" 
	d="
M387.434082,293.645996 
	C387.056061,290.917236 387.020721,288.331787 386.982025,285.345642 
	C386.875061,280.291473 386.738159,275.638458 386.680115,270.984406 
	C386.644257,268.110077 387.777039,266.135223 390.985382,266.084503 
	C394.390686,266.030640 394.983978,268.177246 395.050140,271.030457 
	C395.184875,276.839600 395.523590,282.643982 396.325134,288.633148 
	C398.923859,285.208069 402.575256,282.592773 401.420074,277.121796 
	C400.938293,274.839966 401.768158,271.447479 403.317932,269.793152 
	C405.040039,267.954865 408.263275,267.522797 410.832977,266.478516 
	C411.712219,268.935516 412.861450,271.336884 413.382751,273.867615 
	C413.778564,275.789062 410.905579,279.355682 416.546326,278.670227 
	C416.972595,281.472015 416.948395,283.831970 416.924194,286.191895 
	C416.596985,286.150787 416.266022,286.128662 415.943085,286.065674 
	C410.281677,284.960846 405.722443,286.086548 403.403656,292.057617 
	C403.061340,292.939056 402.223022,293.629120 401.609039,294.403625 
	C396.609711,300.709869 392.214813,300.514252 387.434082,293.645996 
z"/>
<path fill="#E8AA93" opacity="1.000000" stroke="none" 
	d="
M352.609436,280.301270 
	C352.729858,282.662537 352.408417,285.122498 352.100677,287.935242 
	C343.041534,289.831879 341.809601,288.683228 339.197296,276.612061 
	C337.260590,280.055420 335.126556,283.406067 333.451782,286.972412 
	C332.188416,289.662659 331.817017,292.786530 330.457214,295.410980 
	C329.688446,296.894775 327.779846,298.552948 326.283051,298.655884 
	C325.054504,298.740356 322.776764,296.824310 322.509277,295.486145 
	C320.716431,286.516785 321.282410,277.557800 324.903778,269.134399 
	C325.560577,267.606628 328.948486,267.253021 331.075562,266.357330 
	C331.366547,268.119781 332.026123,269.918091 331.858887,271.635925 
	C331.629456,273.992554 330.773041,276.288147 331.094482,279.117401 
	C332.002625,277.730377 332.718567,276.154816 333.857239,274.993927 
	C336.597382,272.200287 339.144867,268.861603 342.485352,267.096313 
	C347.504242,264.444031 350.520172,267.020233 349.910004,272.668945 
	C349.731689,274.319550 349.216522,275.937164 349.082397,277.588318 
	C348.909790,279.713745 349.416443,281.358154 352.609436,280.301270 
z"/>
<path fill="#E58865" opacity="1.000000" stroke="none" 
	d="
M416.952148,286.565704 
	C416.948395,283.831970 416.972595,281.472015 416.995544,278.675262 
	C420.225037,274.655884 422.911926,270.235962 426.820740,267.697632 
	C431.988892,264.341522 437.824707,266.251678 440.209259,270.673676 
	C442.530701,274.978516 440.779663,281.728455 436.193542,284.678711 
	C433.468994,286.431396 430.338593,287.553131 426.937286,290.296082 
	C429.344421,290.797150 432.010162,292.200348 434.101807,291.600800 
	C437.805817,290.539124 441.160919,288.260132 444.942871,286.280823 
	C445.813080,288.013306 446.402466,289.955536 446.989929,292.257843 
	C442.258789,297.299591 436.479462,299.266174 429.941803,298.866821 
	C422.764954,298.428406 418.585297,294.459808 416.952148,286.565704 
M433.886322,276.347412 
	C432.774475,275.301056 431.310150,273.160034 430.608063,273.386047 
	C426.084595,274.842590 425.352509,278.616211 426.674011,283.805786 
	C429.024353,281.564941 431.374725,279.324127 433.886322,276.347412 
z"/>
<path fill="#E06637" opacity="1.000000" stroke="none" 
	d="
M517.680298,286.118835 
	C517.982117,288.436859 517.990906,290.932861 517.996826,293.823608 
	C509.206665,300.422974 500.459930,300.779114 491.403229,294.056946 
	C490.536041,292.208771 490.028046,290.340027 489.258698,288.229462 
	C489.314026,285.360687 489.455841,282.698151 489.981445,280.113678 
	C491.340759,273.430023 494.906952,268.529266 501.774292,266.674835 
	C505.938293,265.550385 509.812134,266.061188 512.423584,269.906952 
	C514.955811,273.635986 514.726013,277.702148 512.019836,281.066833 
	C510.127197,283.420044 507.367432,285.143372 504.803711,286.862854 
	C503.369385,287.824860 501.545074,288.205322 499.692780,288.927185 
	C504.589600,293.535522 509.422882,292.700195 517.680298,286.118835 
M499.213898,276.896820 
	C498.780548,278.812286 498.347198,280.727722 497.753723,283.350983 
	C502.251892,281.819489 505.902069,280.814819 506.469513,276.425385 
	C506.596039,275.446716 505.343170,274.289764 504.725403,273.214874 
	C503.020752,274.226379 501.316101,275.237915 499.213898,276.896820 
z"/>
<path fill="#F3F2F2" opacity="1.000000" stroke="none" 
	d="
M241.879044,128.876892 
	C240.869812,127.230927 239.429993,125.329681 239.894958,124.244766 
	C240.404297,123.056343 242.667709,121.967003 244.174271,121.956871 
	C265.618134,121.812584 287.064148,121.779457 308.506470,122.011841 
	C310.195312,122.030144 313.119507,124.063347 313.284698,125.425133 
	C313.673340,128.629303 310.853821,129.114090 308.114197,129.105728 
	C286.172180,129.038788 264.230042,129.017014 241.879044,128.876892 
z"/>
<path fill="#E4E3E3" opacity="1.000000" stroke="none" 
	d="
M334.999939,151.903183 
	C326.027039,151.903107 317.554047,151.881836 309.081299,151.914917 
	C306.271454,151.925888 303.285461,151.775269 303.180115,148.212891 
	C303.074829,144.652969 305.936981,144.245987 308.828735,144.250351 
	C326.605133,144.277206 344.381653,144.266495 362.158112,144.260483 
	C364.991241,144.259537 367.924927,144.562912 367.813690,148.204193 
	C367.703217,151.818863 364.694458,151.911697 361.915466,151.907547 
	C353.110291,151.894394 344.305145,151.903000 334.999939,151.903183 
z"/>
<path fill="#E5E4E4" opacity="1.000000" stroke="none" 
	d="
M241.977600,151.640076 
	C240.906052,149.980850 239.257034,147.865387 239.738373,147.113144 
	C240.615082,145.743088 242.745178,144.424530 244.370834,144.401672 
	C258.857361,144.198120 273.347931,144.286865 287.837311,144.279419 
	C290.550262,144.278030 293.121033,144.756393 293.108582,148.111389 
	C293.096191,151.451691 290.543610,151.926712 287.821930,151.917572 
	C272.668243,151.866730 257.514435,151.836060 241.977600,151.640076 
z"/>
<path fill="#ECEBEB" opacity="1.000000" stroke="none" 
	d="
M258.003113,83.431152 
	C253.022461,83.429504 248.510101,83.727890 244.075226,83.272148 
	C242.403412,83.100349 240.910995,81.182716 239.336807,80.060944 
	C240.909332,78.752335 242.450256,76.356606 244.059464,76.309830 
	C255.336700,75.982010 266.631714,76.001945 277.910522,76.303864 
	C279.427338,76.344467 280.885162,78.587906 282.370300,79.811295 
	C280.887573,81.014252 279.462677,83.160629 277.912079,83.255608 
	C271.462708,83.650673 264.975525,83.427513 258.003113,83.431152 
z"/>
<path fill="#F2F2F2" opacity="1.000000" stroke="none" 
	d="
M366.189453,122.060135 
	C367.191528,123.703758 368.631561,125.636826 368.149078,126.684425 
	C367.592346,127.893257 365.349792,128.962189 363.821930,128.986176 
	C352.021820,129.171463 340.213745,129.233566 328.418671,128.927917 
	C326.716766,128.883804 325.070984,126.672768 323.399231,125.464508 
	C325.058746,124.262207 326.696991,122.053772 328.381104,122.018211 
	C340.841492,121.755150 353.311035,121.924667 366.189453,122.060135 
z"/>
<path fill="#EDECEC" opacity="1.000000" stroke="none" 
	d="
M340.712311,175.620605 
	C342.201599,174.030319 343.436188,172.708496 345.075806,170.953003 
	C343.547699,169.302551 342.162750,167.758087 340.724335,166.265137 
	C338.789948,164.257370 336.687622,161.808289 339.628174,159.670868 
	C340.782043,158.832153 344.473419,159.773972 345.768250,161.108719 
	C356.695404,172.372620 356.507538,169.310425 345.959259,180.851334 
	C344.143311,182.838196 342.065186,184.503494 339.618988,182.290649 
	C337.170135,180.075470 338.525085,177.817444 340.712311,175.620605 
z"/>
<path fill="#E8E8E7" opacity="1.000000" stroke="none" 
	d="
M382.911438,118.091194 
	C389.249084,124.745895 389.249878,124.746651 383.270203,131.015762 
	C381.774994,132.583359 380.505463,134.556427 378.699188,135.576324 
	C377.285706,136.374451 375.202972,135.987396 373.417603,136.126953 
	C373.386292,134.337158 372.715302,132.192047 373.467682,130.837555 
	C374.718903,128.585022 376.883392,126.839767 378.879272,124.643166 
	C377.015900,122.660484 374.918976,121.088326 373.776611,118.995178 
	C372.935730,117.454468 373.343018,115.232521 373.194153,113.314133 
	C375.085205,113.494164 377.187042,113.224518 378.806671,113.983627 
	C380.354279,114.708961 381.400055,116.504921 382.911438,118.091194 
z"/>
<path fill="#ECEBEB" opacity="1.000000" stroke="none" 
	d="
M232.157837,158.967712 
	C223.765411,162.337082 222.870575,153.639664 218.482040,150.653381 
	C215.592499,148.687119 217.688049,145.956757 219.677994,143.935989 
	C221.892273,141.687408 223.826614,139.079330 226.330414,137.235641 
	C227.551422,136.336563 229.789520,136.818756 231.567230,136.675720 
	C231.583328,138.465439 232.227951,140.603271 231.473175,141.966019 
	C230.237000,144.197922 228.090973,145.925873 227.062225,147.058670 
	C229.031189,151.373352 230.694748,155.018799 232.157837,158.967712 
z"/>
<path fill="#ECEBEB" opacity="1.000000" stroke="none" 
	d="
M232.806885,65.200974 
	C231.120026,70.163300 229.260941,70.728157 225.898987,67.677284 
	C225.653824,67.454788 225.429932,67.207932 225.204681,66.964493 
	C214.466690,55.359192 214.232086,58.793938 226.035370,46.513512 
	C227.061188,45.446217 229.712936,45.941673 231.609436,45.711231 
	C231.490494,47.623966 231.914291,49.813255 231.116028,51.379848 
	C230.104980,53.364067 228.100311,54.841988 226.286026,56.794521 
	C228.469147,59.524258 230.596619,62.184406 232.806885,65.200974 
z"/>
<path fill="#DEDDDC" opacity="1.000000" stroke="none" 
	d="
M370.218475,325.983765 
	C376.769165,326.354340 382.890747,326.706299 389.012329,327.058289 
	C389.008423,327.649689 389.004517,328.241058 389.000610,328.832428 
	C387.076233,328.975830 385.151886,329.119202 383.076813,329.273804 
	C380.806122,335.468628 378.520416,341.704315 376.234741,347.940002 
	C375.593170,347.746521 374.951630,347.553040 374.310059,347.359528 
	C375.892609,341.677307 377.475159,335.995117 379.081177,330.228638 
	C377.290283,329.699738 375.489410,328.688690 373.760529,328.799591 
	C372.204468,328.899414 369.892303,329.869629 369.369019,331.083405 
	C367.671295,335.021149 366.641968,339.247040 365.260529,343.664886 
	C366.973480,344.166840 368.430511,344.593842 369.887573,345.020813 
	C369.885559,345.503967 369.883575,345.987122 369.881592,346.470306 
	C366.009155,346.766693 362.136749,347.063080 358.264343,347.359467 
	C365.419678,342.899963 363.676636,335.241638 366.599670,329.640289 
	C364.973358,329.315552 363.759613,329.073212 362.545898,328.830841 
	C362.504608,328.519287 362.463318,328.207764 362.422058,327.896210 
	C364.877838,327.252533 367.333618,326.608887 370.218475,325.983765 
z"/>
<path fill="#EACBBF" opacity="1.000000" stroke="none" 
	d="
M169.977036,273.654663 
	C174.671204,273.085419 178.975739,272.311157 183.276306,272.332703 
	C184.837265,272.340485 186.388718,274.248962 187.944519,275.290192 
	C186.665970,276.888306 185.635651,279.502930 184.060791,279.887543 
	C179.895920,280.904541 175.495926,281.230957 171.188110,281.241211 
	C169.695633,281.244751 167.028030,279.569183 166.976730,278.555328 
	C166.898376,277.006378 168.625336,275.366028 169.977036,273.654663 
z"/>
<path fill="#E0DFDF" opacity="1.000000" stroke="none" 
	d="
M406.753723,344.819183 
	C406.752991,347.500671 405.665680,348.908417 403.300140,346.814880 
	C401.255493,345.005402 399.742767,342.594910 397.732391,340.127991 
	C396.737549,342.591736 395.691803,345.181458 394.571991,347.954681 
	C392.202637,344.534760 396.282379,331.154572 402.075989,324.615784 
	C401.804413,327.176422 401.661987,328.519501 401.259521,330.465149 
	C401.498138,331.234039 401.996765,331.400360 402.495422,331.566711 
	C405.119812,329.657349 407.744232,327.747986 410.368652,325.838623 
	C410.723267,326.070526 411.077881,326.302460 411.432495,326.534363 
	C411.152649,327.341675 411.104279,328.404144 410.549042,328.907990 
	C408.955902,330.353699 407.169647,331.589600 405.437408,332.878601 
	C399.403473,337.368866 399.599182,340.661102 406.502502,344.960693 
	C406.829865,344.868408 406.753723,344.819183 406.753723,344.819183 
z"/>
<path fill="#DCDBDB" opacity="1.000000" stroke="none" 
	d="
M310.056580,326.358765 
	C310.835266,326.672974 311.744110,327.257050 311.658691,327.567902 
	C309.915161,333.913361 308.057922,340.227631 306.124512,346.888672 
	C305.473267,345.946320 304.824066,345.006897 304.553253,344.615021 
	C302.307098,344.764740 300.297516,345.239868 298.506653,344.807953 
	C297.976959,344.680206 297.579834,341.857513 297.961578,340.507111 
	C299.013367,336.786041 301.382263,334.535217 305.368591,335.645233 
	C306.910339,332.408295 308.317047,329.454834 310.056580,326.358765 
z"/>
<path fill="#DEDDDC" opacity="1.000000" stroke="none" 
	d="
M208.310440,343.168152 
	C209.267487,340.638000 209.762863,337.739319 211.368942,335.727234 
	C212.220581,334.660278 215.222229,334.547485 216.819321,335.151459 
	C217.646561,335.464294 218.040833,338.381317 217.727524,339.940247 
	C217.117645,342.974518 216.112640,345.995148 214.787338,348.792145 
	C214.125015,350.190033 212.304153,352.061127 211.173645,351.954468 
	C209.782410,351.823242 208.564728,349.852478 207.272034,348.676758 
	C207.589157,348.288483 207.906281,347.900177 208.223404,347.511871 
	C209.333649,348.082214 210.443909,348.652557 211.892761,349.396820 
	C212.551010,347.708344 213.190292,346.068512 213.833832,344.417725 
	C212.151596,343.953186 210.554535,343.512146 208.604126,343.095398 
	C208.250778,343.119690 208.310440,343.168152 208.310440,343.168152 
z"/>
<path fill="#E0DFDF" opacity="1.000000" stroke="none" 
	d="
M360.454468,328.087158 
	C357.076294,328.172150 355.726196,329.751953 355.058075,332.566315 
	C354.180084,336.264801 352.892487,339.866058 351.661499,343.901123 
	C353.245819,344.228058 354.670746,344.522125 356.095673,344.816193 
	C356.107910,345.421204 356.120178,346.026184 356.132416,346.631165 
	C352.311920,346.837860 348.491425,347.044556 344.670929,347.251251 
	C351.557770,342.882202 350.221283,335.559753 353.048737,329.587860 
	C351.406677,329.338043 350.252350,329.162415 349.024780,328.975647 
	C350.215271,326.144226 358.598206,325.008911 361.188812,327.110107 
	C361.261780,327.169281 360.979645,327.666290 360.454468,328.087158 
z"/>
<path fill="#E3E2E1" opacity="1.000000" stroke="none" 
	d="
M146.960266,328.182831 
	C148.416702,327.575714 149.873154,326.968628 152.522003,325.864532 
	C151.517410,329.503876 150.635468,332.698944 149.465607,336.450500 
	C149.010361,337.610352 148.843079,338.213654 148.675781,338.816956 
	C149.303925,338.480621 149.932083,338.144287 150.560226,337.807953 
	C160.063675,331.605927 153.876068,342.810608 157.397369,343.244812 
	C156.903534,343.701874 156.409698,344.158936 155.915863,344.615997 
	C154.699066,343.211304 153.482269,341.806641 151.955673,340.044312 
	C150.320267,341.523407 148.323395,343.329376 146.326523,345.135376 
	C145.844574,344.990723 145.362610,344.846039 144.880646,344.701355 
	C145.272842,342.217072 145.604904,339.721375 146.072601,337.251373 
	C146.644028,334.233673 147.329208,331.237457 147.480957,328.326172 
	C146.996735,328.420349 146.960266,328.182831 146.960266,328.182831 
z"/>
<path fill="#E3E2E1" opacity="1.000000" stroke="none" 
	d="
M434.053101,346.124329 
	C435.827728,341.679657 437.602356,337.234985 439.201721,333.229370 
	C441.180817,334.320831 442.653931,335.204590 444.188660,335.963806 
	C446.863373,337.286865 447.084015,341.290375 443.891968,342.716766 
	C439.096375,344.859802 435.603638,347.534088 435.775574,353.798950 
	C435.157043,353.524261 434.538483,353.249573 433.919952,352.974884 
	C434.024872,350.920593 434.129791,348.866272 434.152832,346.438904 
	C434.070923,346.065857 434.053101,346.124329 434.053101,346.124329 
z"/>
<path fill="#E5E4E4" opacity="1.000000" stroke="none" 
	d="
M193.993378,344.751404 
	C192.279388,343.917236 190.565399,343.083038 188.192978,341.928436 
	C187.645508,342.412170 186.178909,343.708038 184.376480,345.300659 
	C183.671356,344.111572 183.083725,343.120575 182.376740,341.928345 
	C181.013504,343.016418 179.672623,344.086670 178.331741,345.156921 
	C177.871048,344.989410 177.410355,344.821930 176.949677,344.654449 
	C177.744858,341.124512 178.540054,337.594574 179.335236,334.064636 
	C179.843201,334.011719 180.351166,333.958801 180.859131,333.905884 
	C181.238831,335.190521 181.618515,336.475159 182.072250,338.010315 
	C183.195297,337.492615 184.616516,336.837463 186.337799,336.043976 
	C186.784500,337.199219 187.119781,338.066315 187.507446,339.068848 
	C188.746841,338.645416 190.035141,338.205292 191.656586,337.651337 
	C192.257889,339.568604 192.788055,341.259064 193.659317,343.360443 
	C193.981232,344.097931 193.978882,344.424591 193.993378,344.751404 
z"/>
<path fill="#E0DFDF" opacity="1.000000" stroke="none" 
	d="
M422.024445,343.912628 
	C419.840851,343.912628 417.657257,343.912628 415.473663,343.912628 
	C415.483521,343.966309 415.493378,344.019989 415.503235,344.073669 
	C412.859283,344.308441 410.215302,344.543182 407.162537,344.798584 
	C406.753723,344.819183 406.829865,344.868408 406.854248,344.900024 
	C408.443390,341.946533 409.790802,338.812378 411.683716,336.052246 
	C412.404999,335.000427 414.891327,333.946838 415.667450,334.410431 
	C417.057098,335.240479 417.804108,337.192902 418.737640,338.726135 
	C419.599609,340.141815 420.353973,341.622986 421.531982,343.127502 
	C421.946960,343.424011 421.985718,343.668335 422.024445,343.912628 
z"/>
<path fill="#E0DFDF" opacity="1.000000" stroke="none" 
	d="
M194.365265,344.822998 
	C193.978882,344.424591 193.981232,344.097931 194.028229,343.527893 
	C195.503784,340.915588 196.702179,338.329742 198.499496,336.265289 
	C199.466461,335.154602 201.918884,334.042358 202.880768,334.534363 
	C204.225159,335.222076 204.880341,337.368927 205.685532,338.964539 
	C206.365509,340.312103 206.839249,341.763702 207.857361,343.168701 
	C208.310440,343.168152 208.250778,343.119690 208.227341,343.097351 
	C206.121506,346.945526 204.385803,344.281128 203.712967,343.718079 
	C200.063950,344.196350 197.400543,344.545471 194.365265,344.822998 
z"/>
<path fill="#D7D6D5" opacity="1.000000" stroke="none" 
	d="
M336.927795,337.440857 
	C333.411621,338.019104 331.726013,339.657166 331.581635,343.083984 
	C331.489166,345.278351 330.807068,347.447845 330.389282,349.628510 
	C329.956604,349.660370 329.523895,349.692230 329.091187,349.724121 
	C328.818451,348.378174 328.043121,346.898438 328.359680,345.709381 
	C329.752563,340.476868 331.378601,335.300446 333.116394,330.170197 
	C333.512939,328.999481 334.490570,327.634674 335.554138,327.172546 
	C337.145966,326.480896 339.050720,326.509491 340.822357,326.231720 
	C340.683807,327.884949 340.545258,329.538177 340.406738,331.191437 
	C340.021210,331.198578 339.635681,331.205750 339.250153,331.212921 
	C338.707886,330.469238 338.165588,329.725555 337.374268,328.640320 
	C336.155853,330.759247 335.035370,332.707855 334.169128,334.214325 
	C335.381927,335.409698 336.286530,336.301270 336.927795,337.440857 
z"/>
<path fill="#E3E2E1" opacity="1.000000" stroke="none" 
	d="
M281.993805,344.723328 
	C280.429108,344.224396 278.864410,343.725494 278.629211,343.650482 
	C275.005463,344.113922 272.376984,344.450073 269.748535,344.786224 
	C270.685638,342.173737 271.207703,339.281769 272.710571,337.050323 
	C273.659607,335.641235 276.231232,334.301941 277.793854,334.570068 
	C280.111542,334.967712 281.564850,336.997955 280.441925,339.911407 
	C280.178833,340.594025 281.027710,341.705170 281.664551,343.170166 
	C281.973999,344.055206 281.983887,344.389252 281.993805,344.723328 
z"/>
<path fill="#DCDBDB" opacity="1.000000" stroke="none" 
	d="
M146.891052,327.793365 
	C146.960266,328.182831 146.996735,328.420349 146.972137,328.537933 
	C145.275452,328.892761 143.603378,329.130035 141.340378,329.451141 
	C139.179291,335.239502 136.823334,341.549835 134.467361,347.860168 
	C133.816193,347.646912 133.165024,347.433655 132.513855,347.220398 
	C134.188507,341.446014 135.863159,335.671631 137.549484,329.856964 
	C135.838043,329.620514 134.172867,329.390472 132.507706,329.160431 
	C137.183517,326.608246 141.843536,325.145721 146.891052,327.793365 
z"/>
<path fill="#E5E4E4" opacity="1.000000" stroke="none" 
	d="
M249.999802,343.999451 
	C248.406113,343.879150 246.812408,343.758850 245.460815,343.656830 
	C242.819946,344.095367 240.183563,344.533173 237.547195,344.970947 
	C238.540558,342.215179 239.163925,339.229980 240.674057,336.794678 
	C241.502808,335.458221 244.298965,334.003998 245.358383,334.482819 
	C246.719803,335.098145 247.274643,337.578949 248.087860,339.298279 
	C248.633743,340.452393 249.025070,341.679657 249.704742,343.291565 
	C249.923935,343.708954 249.999802,343.999481 249.999802,343.999451 
z"/>
<path fill="#E0DFDF" opacity="1.000000" stroke="none" 
	d="
M320.181274,345.931854 
	C316.575897,344.500305 316.943390,341.669128 318.272736,339.670380 
	C319.717072,337.498749 322.248322,336.050049 324.305664,334.286133 
	C325.336639,335.645081 327.334045,337.092926 327.218689,338.346375 
	C326.862549,342.216339 324.630005,345.048340 320.181274,345.931854 
z"/>
<path fill="#E0DFDF" opacity="1.000000" stroke="none" 
	d="
M282.378845,344.551941 
	C281.983887,344.389252 281.973999,344.055206 281.954224,343.470673 
	C283.612244,340.456848 285.280151,337.693451 287.375397,334.222076 
	C288.088257,335.813568 288.609589,336.977448 289.056213,337.974487 
	C290.724854,337.715607 292.508881,337.438843 294.292877,337.162109 
	C294.626343,339.795502 294.959778,342.428864 295.293243,345.062256 
	C294.757385,345.204376 294.221527,345.346527 293.685669,345.488647 
	C292.955292,343.824585 292.224884,342.160522 291.712616,340.993469 
	C288.874390,342.067719 285.819153,343.224152 282.378845,344.551941 
z"/>
<path fill="#D7D6D5" opacity="1.000000" stroke="none" 
	d="
M164.539093,334.132874 
	C166.327209,334.922455 167.744522,335.850494 169.161835,336.778503 
	C167.102982,338.619995 165.044144,340.461487 162.909302,342.370972 
	C163.950775,342.370972 165.651855,342.370972 167.352921,342.370972 
	C167.532028,342.886719 167.711136,343.402466 167.890244,343.918182 
	C165.963425,344.622375 163.601471,346.336700 162.232101,345.746796 
	C160.861603,345.156433 159.498825,342.009796 159.903503,340.440247 
	C160.489243,338.168427 162.668716,336.307495 164.539093,334.132874 
z"/>
<path fill="#DEDDDC" opacity="1.000000" stroke="none" 
	d="
M454.862549,336.034058 
	C457.890503,334.483093 457.542908,336.256683 457.243713,338.039520 
	C456.805176,340.652649 456.402008,343.271729 456.037384,345.552917 
	C454.299744,345.552917 452.260437,345.752594 450.292633,345.464172 
	C449.381714,345.330658 448.016815,344.352173 447.877289,343.573944 
	C447.243744,340.040253 448.252747,336.980682 452.064392,335.019104 
	C451.599182,337.412445 451.133972,339.805786 450.668732,342.199127 
	C451.076324,342.354767 451.483917,342.510406 451.891510,342.666077 
	C452.823944,340.566925 453.756378,338.467804 454.862549,336.034058 
z"/>
<path fill="#E4E3E3" opacity="1.000000" stroke="none" 
	d="
M422.102539,344.270172 
	C421.985718,343.668335 421.946960,343.424011 421.816345,342.820221 
	C422.431396,340.471741 423.033478,338.435028 423.904083,336.520477 
	C424.195251,335.880219 425.172150,335.551758 425.835541,335.080750 
	C426.136780,335.938965 426.438019,336.797180 426.824707,337.898773 
	C427.155670,337.878601 427.920990,338.059784 428.392487,337.767303 
	C432.262268,335.366608 433.297058,337.020752 433.070923,340.850464 
	C432.975464,342.466705 433.156342,344.099243 433.632385,345.924377 
	C434.053101,346.124329 434.070923,346.065857 434.099640,346.057770 
	C432.486450,344.482513 430.844574,342.915344 428.910522,341.069305 
	C427.273895,341.934662 424.727264,343.281189 422.102539,344.270172 
z"/>
<path fill="#E0DFDF" opacity="1.000000" stroke="none" 
	d="
M226.264862,343.746094 
	C227.011520,340.928040 227.687668,338.386383 228.858749,336.097992 
	C229.366257,335.106293 230.861084,334.149628 231.967697,334.075409 
	C232.950302,334.009491 234.385086,334.968964 234.924484,335.885345 
	C235.330078,336.574432 234.633652,337.912140 234.427795,338.961121 
	C233.443787,338.499725 232.459763,338.038330 230.969345,337.339508 
	C230.276276,339.147278 229.578796,340.966522 228.350723,344.169769 
	C231.369064,342.648315 233.005096,341.823639 234.641129,340.998962 
	C234.984375,341.336212 235.327621,341.673492 235.670868,342.010773 
	C234.395676,343.260529 233.272095,345.264099 231.804886,345.559204 
	C230.164139,345.889191 228.211853,344.670166 226.264862,343.746094 
z"/>
<path fill="#D7D6D5" opacity="1.000000" stroke="none" 
	d="
M250.367294,344.127930 
	C249.999802,343.999481 249.923935,343.708954 249.946747,343.560547 
	C252.381195,337.508453 254.792847,331.604736 257.204498,325.701019 
	C257.876953,325.947144 258.549377,326.193268 259.221832,326.439362 
	C257.055847,333.089081 254.889847,339.738800 252.505096,347.060181 
	C251.685883,345.762695 251.210327,345.009521 250.367294,344.127930 
z"/>
<path fill="#D7D6D5" opacity="1.000000" stroke="none" 
	d="
M271.750732,326.446228 
	C269.920746,333.285828 267.859802,339.793152 265.798859,346.300446 
	C265.412292,346.329865 265.025726,346.359283 264.639191,346.388702 
	C264.397675,345.181091 263.668060,343.817322 263.996155,342.791962 
	C265.752686,337.302338 267.749084,331.888214 269.765961,326.486603 
	C269.878204,326.186035 270.913910,326.230255 271.750732,326.446228 
z"/>
<path fill="#DCDBDB" opacity="1.000000" stroke="none" 
	d="
M461.345490,334.530518 
	C462.341797,334.767273 463.119812,335.290833 464.678040,336.339447 
	C465.490265,336.215576 467.505890,335.908173 469.897430,335.543457 
	C466.110016,339.065887 462.918640,342.033966 459.461670,345.249084 
	C457.166840,341.594116 460.093475,338.294220 461.345490,334.530518 
z"/>
<path fill="#D7D6D5" opacity="1.000000" stroke="none" 
	d="
M224.003265,340.288879 
	C223.235764,342.438019 222.518082,344.218811 221.800400,345.999603 
	C221.206345,345.850281 220.612274,345.700958 220.018219,345.551605 
	C220.658844,342.394806 221.299469,339.237976 221.940079,336.081146 
	C222.481247,336.077820 223.022415,336.074524 223.563568,336.071198 
	C223.726746,337.354309 223.889908,338.637421 224.003265,340.288879 
z"/>
<path fill="#160A07" opacity="1.000000" stroke="none" 
	d="
M469.648285,258.975403 
	C469.428711,267.660309 468.833771,276.375793 468.143433,285.546875 
	C466.102814,287.538452 464.359863,289.701538 462.149231,290.414703 
	C460.335907,290.999664 457.402039,290.488007 456.040222,289.265076 
	C455.122955,288.441315 455.482269,285.235199 456.295593,283.606934 
	C460.437622,275.314850 464.913727,267.189667 469.648285,258.975403 
z"/>
<path fill="#24120D" opacity="1.000000" stroke="none" 
	d="
M455.013794,264.966370 
	C457.653900,248.448654 459.339417,243.411636 464.071991,239.567993 
	C466.362122,253.268524 460.727448,264.068268 454.377716,274.832153 
	C454.377716,273.333466 454.299469,271.829620 454.398621,270.337524 
	C454.508423,268.686066 454.780487,267.045441 455.013794,264.966370 
z"/>
<path fill="#160A07" opacity="1.000000" stroke="none" 
	d="
M470.648041,255.082794 
	C470.902710,256.197266 470.783539,257.457977 470.317780,258.885193 
	C470.072174,257.777466 470.173187,256.503235 470.648041,255.082794 
z"/>
<path fill="#24120D" opacity="1.000000" stroke="none" 
	d="
M485.546082,257.418488 
	C482.981964,263.543030 480.570129,269.290619 478.158325,275.038239 
	C477.724762,274.889160 477.291229,274.740082 476.857666,274.591034 
	C477.743896,262.710236 479.007843,250.917160 485.569916,240.231430 
	C488.967682,245.842148 486.764130,251.450775 485.546082,257.418488 
z"/>
<path fill="#24120D" opacity="1.000000" stroke="none" 
	d="
M367.368317,273.948822 
	C368.749512,273.468018 369.776764,273.172821 371.827942,272.583435 
	C370.444580,278.359619 369.555298,283.407562 367.905548,288.193329 
	C367.372009,289.741089 364.842438,290.600708 363.225952,291.775116 
	C362.471741,290.100891 361.137451,288.448944 361.072083,286.748230 
	C360.875549,281.637024 363.121307,277.440765 367.368317,273.948822 
z"/>
<path fill="#24120D" opacity="1.000000" stroke="none" 
	d="
M433.805695,276.715332 
	C431.374725,279.324127 429.024353,281.564941 426.674011,283.805786 
	C425.352509,278.616211 426.084595,274.842590 430.608063,273.386047 
	C431.310150,273.160034 432.774475,275.301056 433.805695,276.715332 
z"/>
<path fill="#24120D" opacity="1.000000" stroke="none" 
	d="
M499.412659,276.573120 
	C501.316101,275.237915 503.020752,274.226379 504.725403,273.214874 
	C505.343170,274.289764 506.596039,275.446716 506.469513,276.425385 
	C505.902069,280.814819 502.251892,281.819489 497.753723,283.350983 
	C498.347198,280.727722 498.780548,278.812286 499.412659,276.573120 
z"/>
<path fill="#130907" opacity="1.000000" stroke="none" 
	d="
M402.207458,331.288635 
	C401.996765,331.400360 401.498138,331.234039 401.149719,330.785522 
	C401.506470,330.672394 401.712982,330.841461 402.207458,331.288635 
z"/>
<path fill="#130907" opacity="1.000000" stroke="none" 
	d="
M150.326431,337.502625 
	C149.932083,338.144287 149.303925,338.480621 148.675781,338.816956 
	C148.843079,338.213654 149.010361,337.610352 149.386780,336.808594 
	C149.761459,336.805878 149.927048,337.001617 150.326431,337.502625 
z"/>
</svg>