<svg version="1.1" id="Layer_1" xmlns="http://www.w3.org/2000/svg" xmlns:xlink="http://www.w3.org/1999/xlink" x="0px" y="0px"
	 width="100%" viewBox="0 0 697 377" enable-background="new 0 0 697 377" xml:space="preserve">
<path fill="#12292C" opacity="1.000000" stroke="none" 
	d="
M527.000000,378.000000 
	C351.374084,378.000000 176.248154,378.000000 1.061110,378.000000 
	C1.061110,252.403320 1.061110,126.806610 1.061110,1.104951 
	C233.209290,1.104951 465.418640,1.104951 697.813965,1.104951 
	C697.813965,126.666435 697.813965,252.333206 697.813965,378.000000 
	C641.139832,378.000000 584.319946,378.000000 527.000000,378.000000 
M538.026062,329.082489 
	C538.026062,329.082489 538.032898,328.977600 537.751648,328.462067 
	C536.526428,328.268066 535.301208,328.074066 533.872131,327.114899 
	C534.271545,323.419037 534.671021,319.723145 535.221863,315.851654 
	C535.114380,315.863708 535.006897,315.875732 534.338684,315.693573 
	C533.283203,315.938293 531.314575,316.156219 531.306519,316.431732 
	C531.130249,322.429840 531.172180,328.434326 531.172180,334.437561 
	C531.571411,334.459778 531.970581,334.481964 532.369812,334.504181 
	C532.906433,332.351593 533.443054,330.199005 534.583191,328.387451 
	C535.714844,328.602448 536.846558,328.817413 538.026062,329.082489 
M364.970001,324.506439 
	C364.621552,324.396362 364.273132,324.286316 363.924683,324.176239 
	C364.234406,324.497955 364.544128,324.819672 364.690369,325.643066 
	C365.462891,326.700378 366.235413,327.757690 367.007965,328.815002 
	C367.416962,328.430542 367.825958,328.046051 368.234955,327.661560 
	C367.203613,326.725739 366.172302,325.789917 364.970001,324.506439 
M394.693817,315.015869 
	C401.916443,313.657104 400.406281,320.076385 402.000916,324.507355 
	C404.385071,320.016632 403.515686,316.729279 400.767883,314.313599 
	C398.715698,312.509430 395.936493,311.996216 393.834839,315.020355 
	C393.834839,315.020355 394.071533,315.107849 394.693817,315.015869 
M300.301666,328.701202 
	C301.366760,328.781250 302.431824,328.861298 303.496918,328.941345 
	C303.535431,328.757874 303.573975,328.574432 303.612488,328.390961 
	C302.632507,328.026367 301.652496,327.661743 300.273804,326.533051 
	C300.273804,320.352722 300.273804,314.172394 300.273804,307.992035 
	C299.533417,308.026245 298.793030,308.060425 298.052643,308.094635 
	C298.648376,314.792511 299.244141,321.490387 300.301666,328.701202 
M236.565018,316.579224 
	C238.730499,316.119904 241.100281,314.924866 242.992264,315.450317 
	C244.336334,315.823608 245.035980,318.517181 246.350693,320.725067 
	C246.806732,318.264191 247.185486,316.220337 247.592819,314.022217 
	C245.286850,313.777405 242.861816,312.966522 240.733292,313.452972 
	C238.691879,313.919525 236.958069,315.731873 234.905090,317.250793 
	C234.964432,317.524048 235.023788,317.797302 235.083145,318.070557 
	C235.388794,317.742188 235.694443,317.413849 236.565018,316.579224 
M290.981842,320.392578 
	C290.873962,319.997345 290.766083,319.602142 290.996857,318.726990 
	C290.996857,317.637970 290.996857,316.548981 290.996857,315.459961 
	C290.521667,315.434387 290.046448,315.408813 289.571259,315.383240 
	C289.399750,316.691559 289.228210,317.999878 288.245300,319.607971 
	C286.757355,319.652618 285.262695,319.808990 283.782776,319.719910 
	C280.081299,319.497040 278.629730,321.315796 278.918701,324.828796 
	C279.225067,328.553497 281.367554,329.478760 284.106506,328.946320 
	C282.883972,327.185730 281.669739,325.437134 280.455536,323.688538 
	C282.474091,322.791321 284.459076,321.801880 286.529755,321.047791 
	C287.236115,320.790558 288.157867,321.124756 288.944916,321.888763 
	C288.585663,323.583069 288.226379,325.277344 287.790894,327.331238 
	C292.626434,326.691376 292.372742,324.111115 290.981842,320.392578 
M455.916107,309.070312 
	C457.703186,308.907501 459.490265,308.744690 461.277374,308.581879 
	C461.231812,308.136841 461.186218,307.691833 461.140656,307.246796 
	C459.073395,307.246796 457.006104,307.246796 454.314453,307.179382 
	C453.897003,307.201843 453.479584,307.224304 452.237518,307.095520 
	C450.418488,307.095520 448.599457,307.095520 446.780426,307.095520 
	C446.786346,307.611145 446.792297,308.126770 446.798218,308.642365 
	C448.835205,308.813751 450.872223,308.985138 452.973419,310.071686 
	C452.973419,316.049469 452.973419,322.027283 452.973419,328.005066 
	C453.684723,328.005615 454.396027,328.006134 455.107330,328.006683 
	C455.107330,321.730743 455.107330,315.454803 455.916107,309.070312 
M127.902939,310.128632 
	C127.902939,316.134918 127.902939,322.141205 127.902939,328.147491 
	C128.621643,328.132690 129.340332,328.117889 130.059036,328.103088 
	C130.059036,321.770752 130.059036,315.438416 130.868622,309.042114 
	C132.630920,308.879120 134.393219,308.716156 136.155533,308.553162 
	C136.112579,308.117706 136.069641,307.682251 136.026703,307.246796 
	C133.996918,307.246796 131.967148,307.246796 129.313156,307.179382 
	C128.895782,307.201843 128.478424,307.224335 127.235664,307.095520 
	C125.414703,307.095520 123.593750,307.095520 121.772789,307.095520 
	C121.769402,307.600006 121.766014,308.104492 121.762634,308.608978 
	C123.796272,308.812744 125.829918,309.016510 127.902939,310.128632 
M328.929718,321.109833 
	C331.652710,322.406311 334.375702,323.702789 337.128387,325.013397 
	C337.128387,323.074493 337.128387,320.155151 337.128387,316.569092 
	C333.401672,318.311554 330.639221,319.603149 327.306580,321.311584 
	C324.923309,326.404266 325.418243,327.826080 328.654999,328.193878 
	C328.474823,325.914825 328.285431,323.519379 328.929718,321.109833 
M479.142242,316.223480 
	C476.728241,317.627136 475.404205,317.121613 475.443024,314.140900 
	C475.468567,312.178253 475.447845,310.215027 475.447845,308.252045 
	C475.105408,308.283997 474.762970,308.315918 474.420532,308.347839 
	C474.420532,314.874115 474.420532,321.400421 474.420532,327.926697 
	C475.451141,325.657867 475.459717,323.392273 475.449280,321.126740 
	C475.428314,316.576080 477.882324,318.434692 479.961945,319.516052 
	C480.122009,318.403229 480.261047,317.436646 480.917206,316.047150 
	C481.260193,315.396912 481.603149,314.746674 481.946136,314.096405 
	C481.730560,313.961700 481.514984,313.826965 481.299408,313.692261 
	C480.819244,314.416077 480.339111,315.139893 479.142242,316.223480 
M170.853973,321.969330 
	C171.889938,320.546539 173.883148,318.992859 173.711197,317.735229 
	C173.511719,316.276276 171.511627,314.125549 170.113495,313.978058 
	C167.741196,313.727783 164.175400,314.014130 163.028046,315.527832 
	C161.422760,317.645721 161.576096,321.096558 160.977051,323.977112 
	C161.501251,324.065857 162.025452,324.154572 162.549652,324.243286 
	C162.755646,323.498932 162.961624,322.754547 164.031815,322.014130 
	C166.057922,321.994995 168.084015,321.975861 170.853973,321.969330 
M223.972183,326.955109 
	C223.972183,326.955109 223.933228,327.050018 224.576614,327.306305 
	C225.649155,327.455109 226.721680,327.603943 228.064941,327.790314 
	C228.064941,325.604462 228.073853,323.453949 228.063354,321.303528 
	C228.025009,313.458954 224.574951,311.365509 217.133041,314.979492 
	C218.401367,314.979492 219.452881,314.751251 220.350159,315.026245 
	C222.318329,315.629364 225.781036,316.355133 225.857437,317.264160 
	C226.183899,321.148102 222.744614,319.463440 220.801224,319.674072 
	C218.400787,319.934265 215.989182,319.751740 215.504501,323.594421 
	C216.663940,325.398285 217.823364,327.202179 219.747375,328.989410 
	C221.189804,328.312866 222.632233,327.636322 223.972183,326.955109 
M501.483521,327.174316 
	C502.554047,327.405243 503.624603,327.636139 504.651367,327.857574 
	C504.651367,324.333832 504.651367,320.952087 504.651367,318.290100 
	C502.134949,318.798920 499.840149,319.032074 497.716919,319.763306 
	C495.927032,320.379700 493.378204,321.241180 492.905457,322.599731 
	C492.342255,324.218353 493.359589,328.020813 494.178192,328.167664 
	C496.292572,328.546936 498.674347,327.435425 500.882233,326.961945 
	C500.882233,326.961945 500.823151,327.015167 501.483521,327.174316 
M359.500000,50.944214 
	C348.011444,50.944733 336.522888,50.928425 325.034363,50.952305 
	C318.511963,50.965862 317.785706,51.663509 317.782196,58.045292 
	C317.765564,88.348427 317.764618,118.651588 317.782532,148.954727 
	C317.786102,154.983139 318.664948,155.849792 324.760773,155.852173 
	C363.055939,155.867203 401.351135,155.868286 439.646301,155.850906 
	C445.814880,155.848099 446.777130,154.837631 446.780029,148.483139 
	C446.793610,118.512993 446.792725,88.542854 446.780670,58.572712 
	C446.777893,51.691406 446.014893,50.953358 438.921875,50.949997 
	C412.781250,50.937611 386.640625,50.944542 359.500000,50.944214 
M309.746094,63.561775 
	C309.745544,61.897385 309.754028,60.232929 309.742828,58.568611 
	C309.696075,51.620258 309.024658,50.944847 301.927734,50.937271 
	C287.946838,50.922348 273.965851,50.907501 259.985046,50.947426 
	C254.298492,50.963665 253.218887,52.018841 253.215118,57.615772 
	C253.191086,93.400230 253.192535,129.184723 253.212234,164.969193 
	C253.215469,170.854660 254.240952,171.851303 260.287262,171.867157 
	C274.101624,171.903366 287.916168,171.890121 301.730621,171.875854 
	C309.058929,171.868301 309.737732,171.201706 309.740265,163.909210 
	C309.751770,130.787766 309.745758,97.666321 309.746094,63.561775 
M320.117249,232.219162 
	C309.883087,232.219162 299.648956,232.219162 289.414795,232.219162 
	C289.387024,232.373535 289.359222,232.527908 289.331451,232.682281 
	C290.481812,232.924698 291.632202,233.167114 292.871094,233.428177 
	C292.871094,248.502991 292.871094,263.462250 292.871094,278.600891 
	C291.628967,278.889343 290.464813,279.159698 289.300690,279.430054 
	C289.322296,279.659180 289.343933,279.888275 289.365540,280.117371 
	C296.298309,280.117371 303.231079,280.117371 310.581635,280.117371 
	C309.039734,278.978180 306.994873,278.191132 306.963043,277.329742 
	C306.702057,270.266144 306.815857,263.188690 306.815857,256.182983 
	C313.504303,255.843018 314.595764,256.850616 314.948212,262.625488 
	C315.210388,266.921051 315.187683,271.298157 316.069916,275.474579 
	C317.052673,280.126648 322.257019,282.106049 328.888031,280.905457 
	C333.032074,280.155182 335.263885,277.804779 334.931213,273.061676 
	C333.701385,274.614563 332.701691,275.876831 331.701996,277.139130 
	C331.218079,277.060303 330.734161,276.981445 330.250244,276.902618 
	C329.897308,274.257812 329.221588,271.608643 329.257141,268.969055 
	C329.337067,263.033264 329.004852,257.496826 323.031067,256.056641 
	C325.593628,253.099182 329.314453,250.537567 330.479889,247.107666 
	C333.096863,239.405975 329.452759,234.517242 320.117249,232.219162 
M620.791077,280.558105 
	C625.533203,280.558105 630.275269,280.558105 635.574219,280.558105 
	C633.895874,278.917023 632.079834,277.976410 632.043152,276.970886 
	C631.790833,270.055267 631.910522,263.126038 631.910522,256.288849 
	C638.437744,255.807892 639.680054,256.775452 639.989197,262.183319 
	C640.160217,265.175171 639.970642,268.191101 640.208557,271.175049 
	C640.898682,279.833374 649.506897,284.364868 656.906677,279.829041 
	C658.450012,278.883026 659.263367,276.746033 660.413147,275.157867 
	C660.152344,275.002014 659.891479,274.846191 659.630676,274.690338 
	C658.512451,275.470581 657.394226,276.250824 655.933472,277.270050 
	C652.061523,269.808228 658.498230,258.767639 646.336426,255.420288 
	C647.503784,254.755142 647.905273,254.460785 648.352844,254.281250 
	C654.723572,251.725571 656.555908,248.840408 656.040344,242.137772 
	C655.614380,236.599762 653.341309,233.289520 646.872192,232.829620 
	C636.381409,232.083801 625.798828,232.628723 616.298218,232.628723 
	C616.743347,233.649185 617.945862,235.140396 617.963623,236.645615 
	C618.114929,249.474640 618.137451,262.307495 617.947144,275.135468 
	C617.922180,276.819824 616.478027,278.483063 615.595093,280.360382 
	C616.668640,280.409515 618.284424,280.483429 620.791077,280.558105 
M199.157822,274.352997 
	C199.553177,276.225494 199.948532,278.097992 200.368652,280.087677 
	C206.468262,280.087677 213.347427,280.087677 220.226608,280.087677 
	C219.252411,280.877075 218.278214,281.666504 217.304016,282.455902 
	C216.708755,280.302917 216.436600,277.989777 215.462677,276.024445 
	C211.105377,267.231781 206.523621,258.550568 202.093079,249.793625 
	C201.522415,248.665741 200.661880,246.688110 201.118591,246.191040 
	C205.660385,241.248016 208.470383,234.383896 216.840515,232.163177 
	C212.169830,232.163177 208.528839,232.163177 204.887863,232.163177 
	C204.879974,232.324646 204.872101,232.486115 204.864227,232.647583 
	C206.164841,232.906326 207.465439,233.165085 209.378326,233.545639 
	C202.826874,240.734039 196.789902,247.357941 190.752945,253.981842 
	C189.743073,247.544510 189.614594,241.728241 189.841766,235.925919 
	C189.892670,234.625839 191.189041,233.374512 191.866287,232.181305 
	C185.781601,232.181305 179.436813,232.181305 173.897568,232.181305 
	C174.590012,233.445694 175.871994,234.705246 175.886047,235.978821 
	C176.033066,249.304993 176.042496,262.634216 175.879120,275.960022 
	C175.862106,277.347290 174.486862,278.717926 173.728363,280.121155 
	C179.709885,280.121155 186.175171,280.121155 193.511932,280.121155 
	C189.451309,278.134186 188.284332,264.861694 190.949600,258.481323 
	C193.676178,263.688568 196.289810,268.680145 199.157822,274.352997 
M456.908173,233.837357 
	C463.447845,234.709015 465.786469,240.288757 469.606476,244.715332 
	C469.361786,240.506912 469.117126,236.298508 468.878998,232.202789 
	C456.782349,232.202789 445.157867,232.202789 434.805481,232.202789 
	C435.532959,234.053177 436.778198,235.775040 436.802307,237.513855 
	C436.973114,249.823776 436.990753,262.138763 436.789764,274.447754 
	C436.759369,276.310547 435.340240,278.150604 434.514130,280.118774 
	C445.799011,280.118774 458.133392,280.118774 470.975281,280.118774 
	C470.975281,275.351257 470.975281,270.657501 470.975281,264.406891 
	C466.428833,273.435547 461.461151,279.961212 450.985077,278.543884 
	C450.985077,271.290070 450.985077,264.251770 450.985077,257.212219 
	C458.231964,255.819794 459.173645,261.730286 462.113281,266.813812 
	C462.113281,259.183441 462.113281,252.774002 462.113281,245.106903 
	C459.477356,250.600174 457.712891,255.360062 450.586731,254.187241 
	C450.586731,248.921021 450.773804,243.646347 450.527893,238.391953 
	C450.328857,234.139099 451.803040,232.473251 456.908173,233.837357 
M592.763428,252.671127 
	C590.733215,253.427826 588.703064,254.184525 585.584961,255.346710 
	C585.584961,249.626984 585.578979,245.179413 585.586243,240.731873 
	C585.599182,232.804016 587.851135,231.287949 595.003784,235.013351 
	C597.350464,236.235611 599.132629,238.659836 600.954956,240.726608 
	C602.058289,241.977905 602.743225,243.598068 603.616089,245.052521 
	C603.940613,244.947418 604.265076,244.842316 604.589600,244.737213 
	C604.356995,240.539612 604.124390,236.342010 603.895142,232.204071 
	C591.822632,232.204071 580.216187,232.204071 569.826172,232.204071 
	C570.551025,234.118408 571.776306,235.879272 571.800781,237.656693 
	C571.970520,249.967285 571.995667,262.283173 571.777405,274.592194 
	C571.744568,276.445129 570.201233,278.271271 569.337341,280.151855 
	C581.012024,280.151855 593.332764,280.151855 605.935303,280.151855 
	C605.935303,275.140076 605.935303,270.565826 605.935303,265.991547 
	C604.451843,267.155060 603.794617,268.460266 603.071533,269.727966 
	C599.990356,275.129395 595.559753,278.615204 589.164124,278.740204 
	C588.015625,278.762634 585.865173,277.301666 585.827576,276.452606 
	C585.544006,270.043488 585.672791,263.616119 585.672791,257.307281 
	C593.225464,255.793030 594.103455,261.810242 597.221985,266.599426 
	C597.221985,259.095215 597.221985,252.761093 597.221985,245.495819 
	C595.592285,248.263351 594.457764,250.189880 592.763428,252.671127 
M129.321182,231.815460 
	C119.663475,231.815750 110.004990,231.755920 100.348892,231.880569 
	C98.885994,231.899460 96.250000,232.623413 96.165337,233.280167 
	C95.513092,238.340164 95.356384,243.464005 95.045975,248.568054 
	C97.743889,245.382126 99.148743,242.048843 100.664688,238.766876 
	C102.322044,235.178741 104.890511,233.055511 109.314095,233.677536 
	C109.314095,248.805252 109.314095,263.684174 109.314095,278.719208 
	C107.470627,278.927521 105.966202,279.097565 104.461777,279.267578 
	C104.482948,279.519379 104.504112,279.771210 104.525284,280.023010 
	C112.531860,280.023010 120.538437,280.023010 128.545013,280.023010 
	C128.557159,279.766602 128.569305,279.510193 128.581451,279.253784 
	C126.874947,279.072510 125.168442,278.891235 123.381081,278.701385 
	C123.381081,263.550140 123.381081,248.658752 123.381081,233.361755 
	C133.224213,234.143753 132.843430,243.326965 136.851654,249.210281 
	C136.851654,243.111664 136.851654,237.633545 136.851654,231.815506 
	C134.241577,231.815506 132.253098,231.815506 129.321182,231.815460 
M239.984268,235.692276 
	C239.984268,240.013962 239.984268,244.335663 239.984268,249.478058 
	C244.301544,243.122040 243.796326,233.819016 253.617035,233.178635 
	C253.617035,248.650848 253.617035,263.700745 253.617035,278.734802 
	C251.668335,278.930664 250.079208,279.090393 248.490082,279.250153 
	C248.499298,279.492645 248.508499,279.735168 248.517715,279.977692 
	C256.626770,279.977692 264.735840,279.977692 272.844910,279.977692 
	C272.850525,279.721771 272.856140,279.465851 272.861755,279.209930 
	C271.268463,279.040070 269.675171,278.870209 268.054871,278.697479 
	C268.054871,263.435669 268.054871,248.458084 268.054871,233.293457 
	C277.729248,234.275620 277.127869,243.399200 281.508209,248.573288 
	C281.759460,243.723801 281.702454,238.986649 281.122528,234.314377 
	C281.003235,233.353165 278.942535,231.931183 277.758179,231.912796 
	C266.276367,231.734604 254.790588,231.818390 243.305984,231.806595 
	C241.244339,231.804474 239.644119,232.211029 239.984268,235.692276 
M558.871460,266.451721 
	C555.059631,273.187256 551.305115,280.005463 541.102966,278.501862 
	C541.102966,276.566681 541.102966,274.774719 541.102966,272.982727 
	C541.102905,262.495544 541.102295,252.008347 541.103027,241.521149 
	C541.103516,234.071106 541.104248,234.071106 549.070129,232.141647 
	C539.767456,232.141647 531.936951,232.141647 525.180908,232.141647 
	C525.920593,233.927002 527.284119,235.716293 527.311646,237.525864 
	C527.501099,250.007721 527.509277,262.495453 527.298218,274.976624 
	C527.269226,276.690857 525.704590,278.379120 524.633118,280.513153 
	C535.488464,280.513153 546.732422,280.557007 557.974304,280.423279 
	C558.802734,280.413452 560.237000,279.199982 560.333984,278.415497 
	C560.906006,273.789490 561.165222,269.124817 561.529846,264.473145 
	C561.179810,264.436066 560.829773,264.399017 560.479736,264.361938 
	C560.047058,264.849121 559.614441,265.336304 558.871460,266.451721 
M496.885437,276.062744 
	C496.885437,261.977142 496.885437,247.891525 496.885437,233.698593 
	C499.502136,233.334747 501.495392,233.057602 503.488617,232.780441 
	C503.465698,232.588974 503.442780,232.397491 503.419861,232.206024 
	C495.480835,232.206024 487.541840,232.206024 480.889069,232.206024 
	C481.609283,233.962219 482.920410,235.700226 482.946259,237.457153 
	C483.127350,249.763428 483.147095,262.075409 482.935974,274.380676 
	C482.902740,276.317047 481.439117,278.228851 480.637848,280.149628 
	C491.714050,280.149628 503.696930,280.149628 515.965393,280.149628 
	C516.370728,274.777679 516.745605,269.808990 517.120483,264.840302 
	C516.679932,264.725189 516.239380,264.610077 515.798828,264.494934 
	C514.642273,266.419281 513.522766,268.367004 512.321655,270.263153 
	C509.674530,274.442322 506.574982,278.198639 501.240173,278.651489 
	C499.862183,278.768402 498.371704,277.559875 496.885437,276.062744 
M367.253418,272.400024 
	C367.947235,274.379211 368.641052,276.358429 369.370880,278.440308 
	C367.782593,278.915497 366.736633,279.228455 365.690704,279.541382 
	C365.734833,279.732452 365.778992,279.923492 365.823151,280.114563 
	C372.807770,280.114563 379.792389,280.114563 386.357574,280.114563 
	C385.187195,278.575256 383.703674,277.319275 383.107361,275.730347 
	C378.143524,262.504456 373.374634,249.205536 368.461945,235.960175 
	C367.670074,233.825150 367.761658,231.022522 363.997650,231.030289 
	C360.388000,231.037720 360.079010,233.627365 359.262512,235.811707 
	C354.371185,248.897339 349.642059,262.043823 344.698639,275.109406 
	C343.998047,276.961029 342.426056,278.483002 341.336060,280.044830 
	C343.777191,280.044830 346.862488,280.044830 349.947754,280.044830 
	C349.947266,279.861908 349.946777,279.678955 349.946289,279.496033 
	C348.626831,279.128693 347.307343,278.761383 345.733978,278.323364 
	C347.236908,274.192505 348.528381,270.423615 350.006683,266.729431 
	C350.391418,265.767975 351.328461,264.351990 352.064331,264.319122 
	C356.035522,264.141632 360.227173,263.640900 363.909210,264.724640 
	C365.476227,265.185852 365.988922,269.229187 367.253418,272.400024 
M424.059998,231.813782 
	C422.136902,231.813782 420.213776,231.813782 418.290680,231.813782 
	C418.275757,232.055161 418.260834,232.296539 418.245911,232.537918 
	C419.549530,232.893356 420.853149,233.248779 422.466309,233.688614 
	C418.581665,244.801453 414.823425,255.552734 410.627197,267.556946 
	C406.494537,255.290512 402.819244,244.381683 399.134186,233.443756 
	C400.653229,233.045944 401.650269,232.784821 402.647339,232.523697 
	C402.590576,232.374008 402.533813,232.224335 402.477051,232.074646 
	C395.753815,232.074646 389.030609,232.074646 382.763214,232.074646 
	C383.804016,233.809479 385.097595,235.380234 385.771545,237.182648 
	C390.659760,250.255203 395.385895,263.388306 400.262329,276.465271 
	C401.072144,278.636902 401.364319,281.204681 404.999237,281.208099 
	C408.710266,281.211609 408.875854,278.473694 409.622253,276.371094 
	C414.181824,263.526398 418.511719,250.600250 423.053436,237.749054 
	C423.787720,235.671371 425.197906,233.832565 426.265747,231.936462 
	C426.119751,231.924515 425.464417,231.870880 424.059998,231.813782 
M87.381760,279.491455 
	C85.339394,279.106537 83.974251,278.576202 84.014259,275.802979 
	C84.206078,262.509888 84.033646,249.211624 84.207680,235.918045 
	C84.224693,234.617935 85.725143,233.337265 86.451836,232.182892 
	C80.579079,232.182892 74.120872,232.182892 68.595718,232.182892 
	C69.242363,233.920044 70.346962,235.530151 70.365524,237.152664 
	C70.509987,249.782074 70.526360,262.414978 70.348747,275.043549 
	C70.324982,276.733154 68.993301,278.404388 68.229362,280.171875 
	C73.929710,280.171875 80.472359,280.171875 87.381760,279.491455 
M56.548996,248.503891 
	C57.681202,243.052475 54.001797,236.847687 58.927940,232.211761 
	C52.606606,232.211761 46.089367,232.211761 40.300434,232.211761 
	C41.132072,233.304779 42.766743,234.454453 42.781162,235.624115 
	C42.957325,249.913254 42.895699,264.205353 42.895699,278.486572 
	C41.606495,278.898010 40.559631,279.232117 39.512772,279.566193 
	C39.579937,279.721436 39.647106,279.876678 39.714275,280.031921 
	C46.300415,280.031921 52.886555,280.031921 58.534626,280.031921 
	C57.813381,278.181793 56.672733,276.574707 56.637226,274.943542 
	C56.452702,266.466522 56.549866,257.983368 56.548996,248.503891 
M410.201569,166.944717 
	C408.541992,165.891327 406.896149,163.949142 405.220673,163.923187 
	C389.929443,163.686279 374.633057,163.792297 359.338196,163.773407 
	C356.512909,163.769928 353.790558,164.754105 354.348785,167.755585 
	C354.651245,169.382095 357.576843,171.657288 359.358917,171.693665 
	C374.647400,172.005798 389.944946,171.882492 405.239807,171.864166 
	C408.040924,171.860809 410.148499,170.910431 410.201569,166.944717 
M350.253357,313.862762 
	C348.410492,314.390717 346.567596,314.918671 344.833984,315.415344 
	C344.833984,319.393341 344.833984,323.742432 344.833984,328.091492 
	C345.255585,328.072571 345.677155,328.053680 346.098755,328.034760 
	C346.098755,325.248627 346.066101,322.462036 346.106659,319.676514 
	C346.163818,315.747833 349.108704,315.423462 351.972534,315.136536 
	C355.419769,314.791077 355.032227,317.383514 355.090302,319.477570 
	C355.169586,322.335876 355.110138,325.198029 355.110138,328.058533 
	C355.756104,328.039307 356.402039,328.020081 357.048004,328.000824 
	C357.048004,324.709686 357.211426,321.408203 357.004395,318.130127 
	C356.773743,314.478241 354.922028,312.614563 350.253357,313.862762 
M574.663879,314.402008 
	C573.326904,314.672760 571.989929,314.943481 570.955322,315.152985 
	C570.955322,319.519257 570.955322,323.742798 570.955322,327.966339 
	C573.055176,322.885590 568.996155,315.125671 578.442993,313.761536 
	C577.386902,313.864746 576.330750,313.967926 574.663879,314.402008 
M142.002457,312.802795 
	C142.002457,317.877136 142.002457,322.951477 142.002457,328.025818 
	C142.491104,327.998810 142.979736,327.971802 143.468384,327.944763 
	C143.468384,321.205505 143.468384,314.466217 143.468384,307.726959 
	C143.102219,307.715149 142.736038,307.703369 142.369873,307.691589 
	C142.247711,309.092133 142.125565,310.492645 142.002457,312.802795 
M316.827179,308.599365 
	C316.739227,308.458130 316.668945,308.300598 316.558044,308.180573 
	C316.461273,308.075775 316.318726,308.013306 316.196381,307.932129 
	C315.801025,308.853546 315.081085,309.768860 315.063538,310.697418 
	C314.956940,316.336365 315.010376,321.978333 315.010376,327.619324 
	C315.657013,327.597626 316.303680,327.575958 316.950317,327.554291 
	C316.950317,321.503296 316.950317,315.452332 316.827179,308.599365 
M374.808655,309.411530 
	C374.808655,315.564148 374.808655,321.716766 374.808655,327.869415 
	C376.005615,321.580231 376.012695,315.327667 375.957916,309.075684 
	C375.956787,308.942932 375.243500,308.816406 374.808655,309.411530 
M160.188614,261.048706 
	C161.421844,260.873322 162.655090,260.697937 163.888321,260.522552 
	C163.831360,260.243744 163.774384,259.964966 163.717422,259.686157 
	C158.171844,259.686157 152.626266,259.686157 147.080704,259.686157 
	C147.091690,260.140594 147.102676,260.595001 147.113678,261.049438 
	C151.162003,261.049438 155.210327,261.049438 160.188614,261.048706 
M188.986969,325.781586 
	C188.986969,322.133240 188.986969,318.484894 188.986969,314.836517 
	C188.380539,314.867310 187.774109,314.898071 187.167679,314.928864 
	C187.167679,318.710114 187.152863,322.491760 187.242798,326.270905 
	C187.245361,326.378815 188.361725,326.460236 188.986969,325.781586 
M254.049423,327.456848 
	C254.240250,327.679932 254.406693,327.934326 254.633591,328.111115 
	C254.727692,328.184448 255.093811,328.101013 255.095627,328.073181 
	C255.388809,323.578064 255.660065,319.081482 255.932175,314.584991 
	C255.272247,314.577057 254.612320,314.569092 253.952393,314.561157 
	C253.952393,318.591797 253.952393,322.622406 254.049423,327.456848 
M410.792664,312.184174 
	C408.148010,314.013214 410.897186,315.832977 410.830841,317.667511 
	C410.709137,321.031952 410.796143,324.403961 410.796143,327.772797 
	C411.195129,327.754883 411.594116,327.736969 411.993103,327.719055 
	C411.993103,323.621094 411.993103,319.523132 411.993103,315.312073 
	C413.485321,315.070251 414.688843,314.875214 414.789062,314.858978 
	C413.621429,313.398346 412.284973,311.726562 411.043030,310.172943 
	C410.985321,310.510345 410.902832,310.992615 410.792664,312.184174 
M153.047791,326.592682 
	C153.614594,326.877625 154.181412,327.162537 154.748215,327.447479 
	C154.748215,324.128662 154.748215,320.809875 154.748215,317.491058 
	C154.170486,317.512177 153.592743,317.533295 153.015015,317.554413 
	C153.015015,320.303589 153.015015,323.052765 153.047791,326.592682 
M235.936279,322.645111 
	C237.251801,322.645111 238.567322,322.645111 239.882843,322.645111 
	C239.731369,322.041046 239.579895,321.436951 239.428436,320.832886 
	C238.266708,321.305237 237.104996,321.777618 235.936279,322.645111 
M365.942139,316.466217 
	C365.020905,316.849823 364.099670,317.233398 363.178406,317.617004 
	C363.485779,318.064545 363.793152,318.512115 364.100494,318.959656 
	C364.684296,318.290100 365.268127,317.620544 365.942139,316.466217 
M543.981140,321.409393 
	C544.068359,321.543304 544.128723,321.717712 544.251038,321.798706 
	C544.352417,321.865845 544.526672,321.822968 544.668640,321.828857 
	C544.539734,320.437714 544.410889,319.046570 544.282043,317.655396 
	C543.861267,317.740784 543.440491,317.826141 543.019775,317.911530 
	C543.293884,318.925323 543.568054,319.939148 543.981140,321.409393 
M394.842529,327.466125 
	C393.789673,327.081909 392.736847,326.697693 391.683990,326.313446 
	C391.609558,326.835449 391.535126,327.357452 391.460724,327.879456 
	C392.631561,327.879456 393.802368,327.879456 394.842529,327.466125 
M391.970734,321.191162 
	C391.609406,320.650574 391.248077,320.109985 390.886780,319.569366 
	C390.580261,320.208710 390.273743,320.848022 389.967224,321.487366 
	C390.615112,321.543365 391.263000,321.599335 391.970734,321.191162 
M541.860779,314.869568 
	C541.073914,314.262604 540.287048,313.655609 539.500122,313.048645 
	C539.313843,313.412109 539.127563,313.775604 538.941223,314.139069 
	C539.783691,314.422668 540.626160,314.706268 541.860779,314.869568 
M236.135452,332.737091 
	C236.259521,333.294189 236.383591,333.851318 236.507660,334.408417 
	C237.001129,334.183624 237.494598,333.958832 237.988068,333.734070 
	C237.510712,333.381165 237.033356,333.028259 236.135452,332.737091 
M484.479492,311.215332 
	C484.546753,310.916138 484.647125,310.619049 484.666595,310.316772 
	C484.675568,310.177673 484.526154,310.028381 484.448547,309.883698 
	C483.563812,310.838776 482.679077,311.793854 481.794342,312.748932 
	C482.239410,313.171448 482.684479,313.593964 483.129547,314.016479 
	C483.450195,313.294922 483.770874,312.573364 484.479492,311.215332 
M401.014740,327.810516 
	C401.119476,327.557709 401.224243,327.304901 401.328979,327.052094 
	C401.068085,327.037781 400.807159,327.023468 400.546265,327.009155 
	C400.601807,327.273804 400.657379,327.538483 401.014740,327.810516 
M247.163834,330.907623 
	C247.320694,331.078094 247.477554,331.248596 247.634399,331.419067 
	C247.695724,331.293091 247.836395,331.085449 247.804977,331.054901 
	C247.648987,330.903290 247.447632,330.798370 247.163834,330.907623 
M244.752716,334.078949 
	C244.879135,333.991180 245.005554,333.903381 245.131973,333.815582 
	C245.008072,333.839600 244.884155,333.863647 244.752716,334.078949 
M485.363800,307.980652 
	C485.228485,308.392242 485.093170,308.803833 484.957855,309.215424 
	C485.198792,309.287872 485.439697,309.360321 485.680664,309.432770 
	C485.769989,308.932556 485.859344,308.432312 485.363800,307.980652 
M241.629288,335.385803 
	C241.550629,335.480927 241.471985,335.576080 241.393341,335.671234 
	C241.488220,335.624695 241.583099,335.578186 241.629288,335.385803 
M240.351303,327.362976 
	C240.465958,327.426605 240.580597,327.490234 240.695251,327.553864 
	C240.630814,327.474426 240.566391,327.394989 240.351303,327.362976 
M542.534607,325.012878 
	C542.534607,325.012878 542.484497,325.028595 542.534607,325.012878 
M540.493835,328.064667 
	C540.493835,328.064667 540.437500,328.016113 540.493835,328.064667 
M503.526398,315.008087 
	C503.526398,315.008087 503.476837,315.028564 503.526398,315.008087 
M287.966492,313.562927 
	C287.966492,313.562927 287.937286,313.482361 287.966492,313.562927 
M500.737122,313.464081 
	C500.918335,313.450623 501.099518,313.437164 501.280701,313.423676 
	C501.121094,313.548126 500.961487,313.672577 500.737122,313.464081 
M334.035309,313.444611 
	C334.035309,313.444611 334.064392,313.525238 334.035309,313.444611 
M390.506561,316.531708 
	C390.506561,316.531708 390.491394,316.488403 390.506561,316.531708 
M246.474228,327.506409 
	C246.474228,327.506409 246.514481,327.492584 246.474228,327.506409 
M336.527588,314.499237 
	C336.527588,314.499237 336.484985,314.515228 336.527588,314.499237 
z"/>
<path fill="#CBB967" opacity="1.000000" stroke="none" 
	d="
M360.000000,50.944210 
	C386.640625,50.944542 412.781250,50.937611 438.921875,50.949997 
	C446.014893,50.953358 446.777893,51.691406 446.780670,58.572712 
	C446.792725,88.542854 446.793610,118.512993 446.780029,148.483139 
	C446.777130,154.837631 445.814880,155.848099 439.646301,155.850906 
	C401.351135,155.868286 363.055939,155.867203 324.760773,155.852173 
	C318.664948,155.849792 317.786102,154.983139 317.782532,148.954727 
	C317.764618,118.651588 317.765564,88.348427 317.782196,58.045292 
	C317.785706,51.663509 318.511963,50.965862 325.034363,50.952305 
	C336.522888,50.928425 348.011444,50.944733 360.000000,50.944210 
M413.500000,59.050098 
	C384.437836,59.050098 355.375671,59.050098 326.353943,59.050098 
	C326.353943,88.939606 326.353943,118.108871 326.353943,147.335205 
	C327.603882,147.453186 328.426147,147.598343 329.248474,147.598694 
	C364.206299,147.613907 399.164337,147.559692 434.121643,147.698120 
	C438.087402,147.713806 438.756866,146.138535 438.741852,142.658752 
	C438.628418,116.357620 438.685486,90.055771 438.665100,63.754166 
	C438.663971,62.310394 438.447327,60.866783 438.300964,59.050102 
	C430.104309,59.050102 422.302124,59.050102 413.500000,59.050098 
z"/>
<path fill="#CAB866" opacity="1.000000" stroke="none" 
	d="
M309.746063,64.053329 
	C309.745758,97.666321 309.751770,130.787766 309.740265,163.909210 
	C309.737732,171.201706 309.058929,171.868301 301.730621,171.875854 
	C287.916168,171.890121 274.101624,171.903366 260.287262,171.867157 
	C254.240952,171.851303 253.215469,170.854660 253.212234,164.969193 
	C253.192535,129.184723 253.191086,93.400230 253.215118,57.615772 
	C253.218887,52.018841 254.298492,50.963665 259.985046,50.947426 
	C273.965851,50.907501 287.946838,50.922348 301.927734,50.937271 
	C309.024658,50.944847 309.696075,51.620258 309.742828,58.568611 
	C309.754028,60.232929 309.745544,61.897385 309.746063,64.053329 
M301.724976,88.500153 
	C301.724976,78.775856 301.724976,69.051559 301.724976,59.304710 
	C287.839081,59.304710 274.911530,59.304710 261.777435,59.304710 
	C261.593170,60.484928 261.315094,61.437630 261.314362,62.390545 
	C261.289673,94.847046 261.336517,127.303726 261.223907,159.759857 
	C261.211761,163.258682 262.668762,163.891037 265.705200,163.852493 
	C275.856659,163.723602 286.016357,163.607544 296.161102,163.898651 
	C300.440338,164.021439 301.881134,162.953384 301.834076,158.406754 
	C301.596313,135.439972 301.724884,112.469398 301.724976,88.500153 
z"/>
<path fill="#C39452" opacity="1.000000" stroke="none" 
	d="
M320.524048,232.330750 
	C329.452759,234.517242 333.096863,239.405975 330.479889,247.107666 
	C329.314453,250.537567 325.593628,253.099182 323.031067,256.056641 
	C329.004852,257.496826 329.337067,263.033264 329.257141,268.969055 
	C329.221588,271.608643 329.897308,274.257812 330.250244,276.902618 
	C330.734161,276.981445 331.218079,277.060303 331.701996,277.139130 
	C332.701691,275.876831 333.701385,274.614563 334.931213,273.061676 
	C335.263885,277.804779 333.032074,280.155182 328.888031,280.905457 
	C322.257019,282.106049 317.052673,280.126648 316.069916,275.474579 
	C315.187683,271.298157 315.210388,266.921051 314.948212,262.625488 
	C314.595764,256.850616 313.504303,255.843018 306.815857,256.182983 
	C306.815857,263.188690 306.702057,270.266144 306.963043,277.329742 
	C306.994873,278.191132 309.039734,278.978180 310.581635,280.117371 
	C303.231079,280.117371 296.298309,280.117371 289.365540,280.117371 
	C289.343933,279.888275 289.322296,279.659180 289.300690,279.430054 
	C290.464813,279.159698 291.628967,278.889343 292.871094,278.600891 
	C292.871094,263.462250 292.871094,248.502991 292.871094,233.428177 
	C291.632202,233.167114 290.481812,232.924698 289.331451,232.682281 
	C289.359222,232.527908 289.387024,232.373535 289.414795,232.219162 
	C299.648956,232.219162 309.883087,232.219162 320.524048,232.330750 
M315.940918,249.080734 
	C316.163269,246.451508 316.691193,243.805481 316.547852,241.196335 
	C316.188538,234.655182 314.215820,233.080215 307.052185,233.339523 
	C307.052185,240.175858 307.052185,247.026352 307.052185,253.963425 
	C311.238678,254.836594 314.090118,253.640778 315.940918,249.080734 
z"/>
<path fill="#B76839" opacity="1.000000" stroke="none" 
	d="
M620.345581,280.557739 
	C618.284424,280.483429 616.668640,280.409515 615.595093,280.360382 
	C616.478027,278.483063 617.922180,276.819824 617.947144,275.135468 
	C618.137451,262.307495 618.114929,249.474640 617.963623,236.645615 
	C617.945862,235.140396 616.743347,233.649185 616.298218,232.628723 
	C625.798828,232.628723 636.381409,232.083801 646.872192,232.829620 
	C653.341309,233.289520 655.614380,236.599762 656.040344,242.137772 
	C656.555908,248.840408 654.723572,251.725571 648.352844,254.281250 
	C647.905273,254.460785 647.503784,254.755142 646.336426,255.420288 
	C658.498230,258.767639 652.061523,269.808228 655.933472,277.270050 
	C657.394226,276.250824 658.512451,275.470581 659.630676,274.690338 
	C659.891479,274.846191 660.152344,275.002014 660.413147,275.157867 
	C659.263367,276.746033 658.450012,278.883026 656.906677,279.829041 
	C649.506897,284.364868 640.898682,279.833374 640.208557,271.175049 
	C639.970642,268.191101 640.160217,265.175171 639.989197,262.183319 
	C639.680054,256.775452 638.437744,255.807892 631.910522,256.288849 
	C631.910522,263.126038 631.790833,270.055267 632.043152,276.970886 
	C632.079834,277.976410 633.895874,278.917023 635.574219,280.558105 
	C630.275269,280.558105 625.533203,280.558105 620.345581,280.557739 
M634.247559,233.093536 
	C633.469849,233.704163 632.032715,234.297531 632.016235,234.928116 
	C631.849182,241.306427 631.914368,247.690826 631.914368,254.025909 
	C638.521118,254.263535 640.580872,252.564484 641.460327,246.736633 
	C642.780273,237.990204 641.294128,234.821182 634.247559,233.093536 
z"/>
<path fill="#C49F59" opacity="1.000000" stroke="none" 
	d="
M199.030640,274.012329 
	C196.289810,268.680145 193.676178,263.688568 190.949600,258.481323 
	C188.284332,264.861694 189.451309,278.134186 193.511932,280.121155 
	C186.175171,280.121155 179.709885,280.121155 173.728363,280.121155 
	C174.486862,278.717926 175.862106,277.347290 175.879120,275.960022 
	C176.042496,262.634216 176.033066,249.304993 175.886047,235.978821 
	C175.871994,234.705246 174.590012,233.445694 173.897568,232.181305 
	C179.436813,232.181305 185.781601,232.181305 191.866287,232.181305 
	C191.189041,233.374512 189.892670,234.625839 189.841766,235.925919 
	C189.614594,241.728241 189.743073,247.544510 190.752945,253.981842 
	C196.789902,247.357941 202.826874,240.734039 209.378326,233.545639 
	C207.465439,233.165085 206.164841,232.906326 204.864227,232.647583 
	C204.872101,232.486115 204.879974,232.324646 204.887863,232.163177 
	C208.528839,232.163177 212.169830,232.163177 216.840515,232.163177 
	C208.470383,234.383896 205.660385,241.248016 201.118591,246.191040 
	C200.661880,246.688110 201.522415,248.665741 202.093079,249.793625 
	C206.523621,258.550568 211.105377,267.231781 215.462677,276.024445 
	C216.436600,277.989777 216.708755,280.302917 217.304016,282.455902 
	C218.278214,281.666504 219.252411,280.877075 220.226608,280.087677 
	C213.347427,280.087677 206.468262,280.087677 200.368652,280.087677 
	C199.948532,278.097992 199.553177,276.225494 199.030640,274.012329 
z"/>
<path fill="#B87E46" opacity="1.000000" stroke="none" 
	d="
M456.465820,233.785629 
	C451.803040,232.473251 450.328857,234.139099 450.527893,238.391953 
	C450.773804,243.646347 450.586731,248.921021 450.586731,254.187241 
	C457.712891,255.360062 459.477356,250.600174 462.113281,245.106903 
	C462.113281,252.774002 462.113281,259.183441 462.113281,266.813812 
	C459.173645,261.730286 458.231964,255.819794 450.985077,257.212219 
	C450.985077,264.251770 450.985077,271.290070 450.985077,278.543884 
	C461.461151,279.961212 466.428833,273.435547 470.975281,264.406891 
	C470.975281,270.657501 470.975281,275.351257 470.975281,280.118774 
	C458.133392,280.118774 445.799011,280.118774 434.514130,280.118774 
	C435.340240,278.150604 436.759369,276.310547 436.789764,274.447754 
	C436.990753,262.138763 436.973114,249.823776 436.802307,237.513855 
	C436.778198,235.775040 435.532959,234.053177 434.805481,232.202789 
	C445.157867,232.202789 456.782349,232.202789 468.878998,232.202789 
	C469.117126,236.298508 469.361786,240.506912 469.606476,244.715332 
	C465.786469,240.288757 463.447845,234.709015 456.465820,233.785629 
z"/>
<path fill="#B46C3D" opacity="1.000000" stroke="none" 
	d="
M593.043335,252.393768 
	C594.457764,250.189880 595.592285,248.263351 597.221985,245.495819 
	C597.221985,252.761093 597.221985,259.095215 597.221985,266.599426 
	C594.103455,261.810242 593.225464,255.793030 585.672791,257.307281 
	C585.672791,263.616119 585.544006,270.043488 585.827576,276.452606 
	C585.865173,277.301666 588.015625,278.762634 589.164124,278.740204 
	C595.559753,278.615204 599.990356,275.129395 603.071533,269.727966 
	C603.794617,268.460266 604.451843,267.155060 605.935303,265.991547 
	C605.935303,270.565826 605.935303,275.140076 605.935303,280.151855 
	C593.332764,280.151855 581.012024,280.151855 569.337341,280.151855 
	C570.201233,278.271271 571.744568,276.445129 571.777405,274.592194 
	C571.995667,262.283173 571.970520,249.967285 571.800781,237.656693 
	C571.776306,235.879272 570.551025,234.118408 569.826172,232.204071 
	C580.216187,232.204071 591.822632,232.204071 603.895142,232.204071 
	C604.124390,236.342010 604.356995,240.539612 604.589600,244.737213 
	C604.265076,244.842316 603.940613,244.947418 603.616089,245.052521 
	C602.743225,243.598068 602.058289,241.977905 600.954956,240.726608 
	C599.132629,238.659836 597.350464,236.235611 595.003784,235.013351 
	C587.851135,231.287949 585.599182,232.804016 585.586243,240.731873 
	C585.578979,245.179413 585.584961,249.626984 585.584961,255.346710 
	C588.703064,254.184525 590.733215,253.427826 593.043335,252.393768 
z"/>
<path fill="#CBAE60" opacity="1.000000" stroke="none" 
	d="
M129.792892,231.815491 
	C132.253098,231.815506 134.241577,231.815506 136.851654,231.815506 
	C136.851654,237.633545 136.851654,243.111664 136.851654,249.210281 
	C132.843430,243.326965 133.224213,234.143753 123.381081,233.361755 
	C123.381081,248.658752 123.381081,263.550140 123.381081,278.701385 
	C125.168442,278.891235 126.874947,279.072510 128.581451,279.253784 
	C128.569305,279.510193 128.557159,279.766602 128.545013,280.023010 
	C120.538437,280.023010 112.531860,280.023010 104.525284,280.023010 
	C104.504112,279.771210 104.482948,279.519379 104.461777,279.267578 
	C105.966202,279.097565 107.470627,278.927521 109.314095,278.719208 
	C109.314095,263.684174 109.314095,248.805252 109.314095,233.677536 
	C104.890511,233.055511 102.322044,235.178741 100.664688,238.766876 
	C99.148743,242.048843 97.743889,245.382126 95.045975,248.568054 
	C95.356384,243.464005 95.513092,238.340164 96.165337,233.280167 
	C96.250000,232.623413 98.885994,231.899460 100.348892,231.880569 
	C110.004990,231.755920 119.663475,231.815750 129.792892,231.815491 
z"/>
<path fill="#C19855" opacity="1.000000" stroke="none" 
	d="
M240.002182,235.256668 
	C239.644119,232.211029 241.244339,231.804474 243.305984,231.806595 
	C254.790588,231.818390 266.276367,231.734604 277.758179,231.912796 
	C278.942535,231.931183 281.003235,233.353165 281.122528,234.314377 
	C281.702454,238.986649 281.759460,243.723801 281.508209,248.573288 
	C277.127869,243.399200 277.729248,234.275620 268.054871,233.293457 
	C268.054871,248.458084 268.054871,263.435669 268.054871,278.697479 
	C269.675171,278.870209 271.268463,279.040070 272.861755,279.209930 
	C272.856140,279.465851 272.850525,279.721771 272.844910,279.977692 
	C264.735840,279.977692 256.626770,279.977692 248.517715,279.977692 
	C248.508499,279.735168 248.499298,279.492645 248.490082,279.250153 
	C250.079208,279.090393 251.668335,278.930664 253.617035,278.734802 
	C253.617035,263.700745 253.617035,248.650848 253.617035,233.178635 
	C243.796326,233.819016 244.301544,243.122040 239.984268,249.478058 
	C239.984268,244.335663 239.984268,240.013962 240.002182,235.256668 
z"/>
<path fill="#B67340" opacity="1.000000" stroke="none" 
	d="
M559.026611,266.137604 
	C559.614441,265.336304 560.047058,264.849121 560.479736,264.361938 
	C560.829773,264.399017 561.179810,264.436066 561.529846,264.473145 
	C561.165222,269.124817 560.906006,273.789490 560.333984,278.415497 
	C560.237000,279.199982 558.802734,280.413452 557.974304,280.423279 
	C546.732422,280.557007 535.488464,280.513153 524.633118,280.513153 
	C525.704590,278.379120 527.269226,276.690857 527.298218,274.976624 
	C527.509277,262.495453 527.501099,250.007721 527.311646,237.525864 
	C527.284119,235.716293 525.920593,233.927002 525.180908,232.141647 
	C531.936951,232.141647 539.767456,232.141647 549.070129,232.141647 
	C541.104248,234.071106 541.103516,234.071106 541.103027,241.521149 
	C541.102295,252.008347 541.102905,262.495544 541.102966,272.982727 
	C541.102966,274.774719 541.102966,276.566681 541.102966,278.501862 
	C551.305115,280.005463 555.059631,273.187256 559.026611,266.137604 
z"/>
<path fill="#B97A44" opacity="1.000000" stroke="none" 
	d="
M496.909180,276.511475 
	C498.371704,277.559875 499.862183,278.768402 501.240173,278.651489 
	C506.574982,278.198639 509.674530,274.442322 512.321655,270.263153 
	C513.522766,268.367004 514.642273,266.419281 515.798828,264.494934 
	C516.239380,264.610077 516.679932,264.725189 517.120483,264.840302 
	C516.745605,269.808990 516.370728,274.777679 515.965393,280.149628 
	C503.696930,280.149628 491.714050,280.149628 480.637848,280.149628 
	C481.439117,278.228851 482.902740,276.317047 482.935974,274.380676 
	C483.147095,262.075409 483.127350,249.763428 482.946259,237.457153 
	C482.920410,235.700226 481.609283,233.962219 480.889069,232.206024 
	C487.541840,232.206024 495.480835,232.206024 503.419861,232.206024 
	C503.442780,232.397491 503.465698,232.588974 503.488617,232.780441 
	C501.495392,233.057602 499.502136,233.334747 496.885437,233.698593 
	C496.885437,247.891525 496.885437,261.977142 496.909180,276.511475 
z"/>
<path fill="#BD8B4E" opacity="1.000000" stroke="none" 
	d="
M367.117065,272.022339 
	C365.988922,269.229187 365.476227,265.185852 363.909210,264.724640 
	C360.227173,263.640900 356.035522,264.141632 352.064331,264.319122 
	C351.328461,264.351990 350.391418,265.767975 350.006683,266.729431 
	C348.528381,270.423615 347.236908,274.192505 345.733978,278.323364 
	C347.307343,278.761383 348.626831,279.128693 349.946289,279.496033 
	C349.946777,279.678955 349.947266,279.861908 349.947754,280.044830 
	C346.862488,280.044830 343.777191,280.044830 341.336060,280.044830 
	C342.426056,278.483002 343.998047,276.961029 344.698639,275.109406 
	C349.642059,262.043823 354.371185,248.897339 359.262512,235.811707 
	C360.079010,233.627365 360.388000,231.037720 363.997650,231.030289 
	C367.761658,231.022522 367.670074,233.825150 368.461945,235.960175 
	C373.374634,249.205536 378.143524,262.504456 383.107361,275.730347 
	C383.703674,277.319275 385.187195,278.575256 386.357574,280.114563 
	C379.792389,280.114563 372.807770,280.114563 365.823151,280.114563 
	C365.778992,279.923492 365.734833,279.732452 365.690704,279.541382 
	C366.736633,279.228455 367.782593,278.915497 369.370880,278.440308 
	C368.641052,276.358429 367.947235,274.379211 367.117065,272.022339 
M356.803345,247.524338 
	C355.152039,252.268753 353.500732,257.013184 351.780701,261.955017 
	C356.067383,261.955017 359.679749,261.955017 363.760254,261.955017 
	C362.024414,256.772919 360.551483,252.237091 358.933472,247.753632 
	C358.766510,247.291046 357.734406,247.140686 356.803345,247.524338 
z"/>
<path fill="#BF884B" opacity="1.000000" stroke="none" 
	d="
M424.434540,231.815521 
	C425.464417,231.870880 426.119751,231.924515 426.265747,231.936462 
	C425.197906,233.832565 423.787720,235.671371 423.053436,237.749054 
	C418.511719,250.600250 414.181824,263.526398 409.622253,276.371094 
	C408.875854,278.473694 408.710266,281.211609 404.999237,281.208099 
	C401.364319,281.204681 401.072144,278.636902 400.262329,276.465271 
	C395.385895,263.388306 390.659760,250.255203 385.771545,237.182648 
	C385.097595,235.380234 383.804016,233.809479 382.763214,232.074646 
	C389.030609,232.074646 395.753815,232.074646 402.477051,232.074646 
	C402.533813,232.224335 402.590576,232.374008 402.647339,232.523697 
	C401.650269,232.784821 400.653229,233.045944 399.134186,233.443756 
	C402.819244,244.381683 406.494537,255.290512 410.627197,267.556946 
	C414.823425,255.552734 418.581665,244.801453 422.466309,233.688614 
	C420.853149,233.248779 419.549530,232.893356 418.245911,232.537918 
	C418.260834,232.296539 418.275757,232.055161 418.290680,231.813782 
	C420.213776,231.813782 422.136902,231.813782 424.434540,231.815521 
z"/>
<path fill="#C8B162" opacity="1.000000" stroke="none" 
	d="
M87.198380,279.831665 
	C80.472359,280.171875 73.929710,280.171875 68.229362,280.171875 
	C68.993301,278.404388 70.324982,276.733154 70.348747,275.043549 
	C70.526360,262.414978 70.509987,249.782074 70.365524,237.152664 
	C70.346962,235.530151 69.242363,233.920044 68.595718,232.182892 
	C74.120872,232.182892 80.579079,232.182892 86.451836,232.182892 
	C85.725143,233.337265 84.224693,234.617935 84.207680,235.918045 
	C84.033646,249.211624 84.206078,262.509888 84.014259,275.802979 
	C83.974251,278.576202 85.339394,279.106537 87.198380,279.831665 
z"/>
<path fill="#CAB866" opacity="1.000000" stroke="none" 
	d="
M56.548965,249.003113 
	C56.549866,257.983368 56.452702,266.466522 56.637226,274.943542 
	C56.672733,276.574707 57.813381,278.181793 58.534626,280.031921 
	C52.886555,280.031921 46.300415,280.031921 39.714275,280.031921 
	C39.647106,279.876678 39.579937,279.721436 39.512772,279.566193 
	C40.559631,279.232117 41.606495,278.898010 42.895699,278.486572 
	C42.895699,264.205353 42.957325,249.913254 42.781162,235.624115 
	C42.766743,234.454453 41.132072,233.304779 40.300434,232.211761 
	C46.089367,232.211761 52.606606,232.211761 58.927940,232.211761 
	C54.001797,236.847687 57.681202,243.052475 56.548965,249.003113 
z"/>
<path fill="#C8B665" opacity="1.000000" stroke="none" 
	d="
M410.250427,167.303192 
	C410.148499,170.910431 408.040924,171.860809 405.239807,171.864166 
	C389.944946,171.882492 374.647400,172.005798 359.358917,171.693665 
	C357.576843,171.657288 354.651245,169.382095 354.348785,167.755585 
	C353.790558,164.754105 356.512909,163.769928 359.338196,163.773407 
	C374.633057,163.792297 389.929443,163.686279 405.220673,163.923187 
	C406.896149,163.949142 408.541992,165.891327 410.250427,167.303192 
z"/>
<path fill="#8A8652" opacity="1.000000" stroke="none" 
	d="
M350.640991,313.807770 
	C354.922028,312.614563 356.773743,314.478241 357.004395,318.130127 
	C357.211426,321.408203 357.048004,324.709686 357.048004,328.000824 
	C356.402039,328.020081 355.756104,328.039307 355.110138,328.058533 
	C355.110138,325.198029 355.169586,322.335876 355.090302,319.477570 
	C355.032227,317.383514 355.419769,314.791077 351.972534,315.136536 
	C349.108704,315.423462 346.163818,315.747833 346.106659,319.676514 
	C346.066101,322.462036 346.098755,325.248627 346.098755,328.034760 
	C345.677155,328.053680 345.255585,328.072571 344.833984,328.091492 
	C344.833984,323.742432 344.833984,319.393341 344.833984,315.415344 
	C346.567596,314.918671 348.410492,314.390717 350.640991,313.807770 
z"/>
<path fill="#9A9357" opacity="1.000000" stroke="none" 
	d="
M500.949341,326.919312 
	C498.674347,327.435425 496.292572,328.546936 494.178192,328.167664 
	C493.359589,328.020813 492.342255,324.218353 492.905457,322.599731 
	C493.378204,321.241180 495.927032,320.379700 497.716919,319.763306 
	C499.840149,319.032074 502.134949,318.798920 504.651367,318.290100 
	C504.651367,320.952087 504.651367,324.333832 504.651367,327.857574 
	C503.624603,327.636139 502.554047,327.405243 501.350403,326.758972 
	C501.975128,324.854431 502.733002,323.365234 503.887329,321.096985 
	C500.568054,321.096985 498.431854,320.605377 496.745361,321.264435 
	C495.559052,321.727966 494.570923,323.689880 494.339752,325.119476 
	C494.247070,325.692780 496.329895,326.923676 497.589905,327.311859 
	C498.575836,327.615601 499.819946,327.081299 500.949341,326.919312 
z"/>
<path fill="#1D3230" opacity="1.000000" stroke="none" 
	d="
M218.982788,329.006042 
	C217.823364,327.202179 216.663940,325.398285 216.022430,323.283142 
	C219.645935,322.103241 222.751511,321.234619 225.857101,320.365967 
	C226.254349,320.997467 226.651596,321.628967 227.048859,322.260468 
	C226.010315,323.856964 224.971771,325.453491 223.933228,327.050018 
	C223.933228,327.050018 223.972183,326.955109 223.657639,326.968109 
	C221.889648,327.656067 220.436218,328.331055 218.982788,329.006042 
z"/>
<path fill="#A49B5A" opacity="1.000000" stroke="none" 
	d="
M224.254913,327.178162 
	C224.971771,325.453491 226.010315,323.856964 227.048859,322.260468 
	C226.651596,321.628967 226.254349,320.997467 225.857101,320.365967 
	C222.751511,321.234619 219.645935,322.103241 216.137726,323.014313 
	C215.989182,319.751740 218.400787,319.934265 220.801224,319.674072 
	C222.744614,319.463440 226.183899,321.148102 225.857437,317.264160 
	C225.781036,316.355133 222.318329,315.629364 220.350159,315.026245 
	C219.452881,314.751251 218.401367,314.979492 217.133041,314.979492 
	C224.574951,311.365509 228.025009,313.458954 228.063354,321.303528 
	C228.073853,323.453949 228.064941,325.604462 228.064941,327.790314 
	C226.721680,327.603943 225.649155,327.455109 224.254913,327.178162 
z"/>
<path fill="#9A9357" opacity="1.000000" stroke="none" 
	d="
M163.167603,322.010162 
	C162.961624,322.754547 162.755646,323.498932 162.549652,324.243286 
	C162.025452,324.154572 161.501251,324.065857 160.977051,323.977112 
	C161.576096,321.096558 161.422760,317.645721 163.028046,315.527832 
	C164.175400,314.014130 167.741196,313.727783 170.113495,313.978058 
	C171.511627,314.125549 173.511719,316.276276 173.711197,317.735229 
	C173.883148,318.992859 171.889938,320.546539 170.560272,321.611938 
	C170.740448,319.653595 171.214310,318.052643 171.688171,316.451721 
	C169.861115,316.000885 167.926620,314.930206 166.228668,315.224457 
	C162.341187,315.898193 163.028000,319.199554 163.167603,322.010162 
z"/>
<path fill="#182E2E" opacity="1.000000" stroke="none" 
	d="
M163.599701,322.012146 
	C163.028000,319.199554 162.341187,315.898193 166.228668,315.224457 
	C167.926620,314.930206 169.861115,316.000885 171.688171,316.451721 
	C171.214310,318.052643 170.740448,319.653595 170.188354,321.605621 
	C168.084015,321.975861 166.057922,321.994995 163.599701,322.012146 
z"/>
<path fill="#B1A45E" opacity="1.000000" stroke="none" 
	d="
M480.400085,316.470093 
	C480.261047,317.436646 480.122009,318.403229 479.961945,319.516052 
	C477.882324,318.434692 475.428314,316.576080 475.449280,321.126740 
	C475.459717,323.392273 475.451141,325.657867 474.420532,327.926697 
	C474.420532,321.400421 474.420532,314.874115 474.420532,308.347839 
	C474.762970,308.315918 475.105408,308.283997 475.447845,308.252045 
	C475.447845,310.215027 475.468567,312.178253 475.443024,314.140900 
	C475.404205,317.121613 476.728241,317.627136 479.635803,316.195251 
	C480.129364,316.167023 480.400085,316.470093 480.400085,316.470093 
z"/>
<path fill="#172D2D" opacity="1.000000" stroke="none" 
	d="
M535.070435,316.027283 
	C534.671021,319.723145 534.271545,323.419037 533.949707,327.538910 
	C534.027222,327.962921 533.979675,328.046417 533.979675,328.046417 
	C533.443054,330.199005 532.906433,332.351593 532.369812,334.504181 
	C531.970581,334.481964 531.571411,334.459778 531.172180,334.437561 
	C531.172180,328.434326 531.130249,322.429840 531.306519,316.431732 
	C531.314575,316.156219 533.283203,315.938293 534.660645,315.827026 
	C534.982544,315.960449 535.070435,316.027283 535.070435,316.027283 
z"/>
<path fill="#1D3230" opacity="1.000000" stroke="none" 
	d="
M327.876801,320.894775 
	C330.639221,319.603149 333.401672,318.311554 337.128387,316.569092 
	C337.128387,320.155151 337.128387,323.074493 337.128387,325.013397 
	C334.375702,323.702789 331.652710,322.406311 328.458862,321.058838 
	C327.988007,321.007843 327.876801,320.894775 327.876801,320.894775 
z"/>
<path fill="#8A8652" opacity="1.000000" stroke="none" 
	d="
M130.059036,309.106079 
	C130.059036,315.438416 130.059036,321.770752 130.059036,328.103088 
	C129.340332,328.117889 128.621643,328.132690 127.902939,328.147491 
	C127.902939,322.141205 127.902939,316.134918 127.904129,309.344452 
	C127.957230,308.122437 128.009140,307.684631 128.061050,307.246796 
	C128.478424,307.224335 128.895782,307.201843 129.648132,307.522827 
	C130.008423,308.279572 130.033737,308.692810 130.059036,309.106079 
z"/>
<path fill="#8A8652" opacity="1.000000" stroke="none" 
	d="
M453.062134,307.246796 
	C453.479584,307.224304 453.897003,307.201843 454.663208,307.534424 
	C455.043732,308.319244 455.075531,308.749054 455.107330,309.178864 
	C455.107330,315.454803 455.107330,321.730743 455.107330,328.006683 
	C454.396027,328.006134 453.684723,328.005615 452.973419,328.005066 
	C452.973419,322.027283 452.973419,316.049469 452.960510,309.295349 
	C452.985809,308.094910 453.023987,307.670868 453.062134,307.246796 
z"/>
<path fill="#8A8652" opacity="1.000000" stroke="none" 
	d="
M574.969238,314.236572 
	C576.330750,313.967926 577.386902,313.864746 578.442993,313.761536 
	C568.996155,315.125671 573.055176,322.885590 570.955322,327.966339 
	C570.955322,323.742798 570.955322,319.519257 570.955322,315.152985 
	C571.989929,314.943481 573.326904,314.672760 574.969238,314.236572 
z"/>
<path fill="#8A8652" opacity="1.000000" stroke="none" 
	d="
M142.002930,312.347992 
	C142.125565,310.492645 142.247711,309.092133 142.369873,307.691589 
	C142.736038,307.703369 143.102219,307.715149 143.468384,307.726959 
	C143.468384,314.466217 143.468384,321.205505 143.468384,327.944763 
	C142.979736,327.971802 142.491104,327.998810 142.002457,328.025818 
	C142.002457,322.951477 142.002457,317.877136 142.002930,312.347992 
z"/>
<path fill="#A49B5A" opacity="1.000000" stroke="none" 
	d="
M290.658203,319.206909 
	C290.766083,319.602142 290.873962,319.997345 290.658264,320.717957 
	C289.883514,321.091827 289.432343,321.140289 288.981201,321.188751 
	C288.157867,321.124756 287.236115,320.790558 286.529755,321.047791 
	C284.459076,321.801880 282.474091,322.791321 280.455536,323.688538 
	C281.669739,325.437134 282.883972,327.185730 284.106506,328.946320 
	C281.367554,329.478760 279.225067,328.553497 278.918701,324.828796 
	C278.629730,321.315796 280.081299,319.497040 283.782776,319.719910 
	C285.262695,319.808990 286.757355,319.652618 288.919464,319.512634 
	C289.948486,319.347168 290.303345,319.277039 290.658203,319.206909 
z"/>
<path fill="#8A8652" opacity="1.000000" stroke="none" 
	d="
M316.888733,309.000366 
	C316.950317,315.452332 316.950317,321.503296 316.950317,327.554291 
	C316.303680,327.575958 315.657013,327.597626 315.010376,327.619324 
	C315.010376,321.978333 314.956940,316.336365 315.063538,310.697418 
	C315.081085,309.768860 315.801025,308.853546 316.196381,307.932129 
	C316.318726,308.013306 316.461273,308.075775 316.558044,308.180573 
	C316.668945,308.300598 316.739227,308.458130 316.888733,309.000366 
z"/>
<path fill="#8A8652" opacity="1.000000" stroke="none" 
	d="
M235.089066,316.952759 
	C236.958069,315.731873 238.691879,313.919525 240.733292,313.452972 
	C242.861816,312.966522 245.286850,313.777405 247.592819,314.022217 
	C247.185486,316.220337 246.806732,318.264191 246.350693,320.725067 
	C245.035980,318.517181 244.336334,315.823608 242.992264,315.450317 
	C241.100281,314.924866 238.730499,316.119904 236.056335,316.788574 
	C235.547668,316.997925 235.089066,316.952759 235.089066,316.952759 
z"/>
<path fill="#B1A45E" opacity="1.000000" stroke="none" 
	d="
M299.839844,328.188263 
	C299.244141,321.490387 298.648376,314.792511 298.052643,308.094635 
	C298.793030,308.060425 299.533417,308.026245 300.273804,307.992035 
	C300.273804,314.172394 300.273804,320.352722 300.264648,327.137573 
	C300.116943,327.890808 299.978394,328.039551 299.839844,328.188263 
z"/>
<path fill="#1D3230" opacity="1.000000" stroke="none" 
	d="
M393.893066,314.930695 
	C395.936493,311.996216 398.715698,312.509430 400.767883,314.313599 
	C403.515686,316.729279 404.385071,320.016632 402.000916,324.507355 
	C400.406281,320.076385 401.916443,313.657104 394.339355,315.016266 
	C393.984894,315.016663 393.893066,314.930695 393.893066,314.930695 
z"/>
<path fill="#C8B665" opacity="1.000000" stroke="none" 
	d="
M374.835571,309.049255 
	C375.243500,308.816406 375.956787,308.942932 375.957916,309.075684 
	C376.012695,315.327667 376.005615,321.580231 374.808655,327.869415 
	C374.808655,321.716766 374.808655,315.564148 374.835571,309.049255 
z"/>
<path fill="#CBAE60" opacity="1.000000" stroke="none" 
	d="
M159.723633,261.049072 
	C155.210327,261.049438 151.162003,261.049438 147.113678,261.049438 
	C147.102676,260.595001 147.091690,260.140594 147.080704,259.686157 
	C152.626266,259.686157 158.171844,259.686157 163.717422,259.686157 
	C163.774384,259.964966 163.831360,260.243744 163.888321,260.522552 
	C162.655090,260.697937 161.421844,260.873322 159.723633,261.049072 
z"/>
<path fill="#8A8652" opacity="1.000000" stroke="none" 
	d="
M188.972870,326.167786 
	C188.361725,326.460236 187.245361,326.378815 187.242798,326.270905 
	C187.152863,322.491760 187.167679,318.710114 187.167679,314.928864 
	C187.774109,314.898071 188.380539,314.867310 188.986969,314.836517 
	C188.986969,318.484894 188.986969,322.133240 188.972870,326.167786 
z"/>
<path fill="#8A8652" opacity="1.000000" stroke="none" 
	d="
M254.000916,327.054932 
	C253.952393,322.622406 253.952393,318.591797 253.952393,314.561157 
	C254.612320,314.569092 255.272247,314.577057 255.932175,314.584991 
	C255.660065,319.081482 255.388809,323.578064 255.095627,328.073181 
	C255.093811,328.101013 254.727692,328.184448 254.633591,328.111115 
	C254.406693,327.934326 254.240250,327.679932 254.000916,327.054932 
z"/>
<path fill="#CAB866" opacity="1.000000" stroke="none" 
	d="
M410.806519,311.829529 
	C410.902832,310.992615 410.985321,310.510345 411.043030,310.172943 
	C412.284973,311.726562 413.621429,313.398346 414.789062,314.858978 
	C414.688843,314.875214 413.485321,315.070251 411.993103,315.312073 
	C411.993103,319.523132 411.993103,323.621094 411.993103,327.719055 
	C411.594116,327.736969 411.195129,327.754883 410.796143,327.772797 
	C410.796143,324.403961 410.709137,321.031952 410.830841,317.667511 
	C410.897186,315.832977 408.148010,314.013214 410.806519,311.829529 
z"/>
<path fill="#8A8652" opacity="1.000000" stroke="none" 
	d="
M153.031403,326.197327 
	C153.015015,323.052765 153.015015,320.303589 153.015015,317.554413 
	C153.592743,317.533295 154.170486,317.512177 154.748215,317.491058 
	C154.748215,320.809875 154.748215,324.128662 154.748215,327.447479 
	C154.181412,327.162537 153.614594,326.877625 153.031403,326.197327 
z"/>
<path fill="#1D3230" opacity="1.000000" stroke="none" 
	d="
M288.963074,321.538757 
	C289.432343,321.140289 289.883514,321.091827 290.674896,321.024841 
	C292.372742,324.111115 292.626434,326.691376 287.790894,327.331238 
	C288.226379,325.277344 288.585663,323.583069 288.963074,321.538757 
z"/>
<path fill="#1D3230" opacity="1.000000" stroke="none" 
	d="
M328.042023,321.065918 
	C328.285431,323.519379 328.474823,325.914825 328.654999,328.193878 
	C325.418243,327.826080 324.923309,326.404266 327.591675,321.103180 
	C327.876801,320.894775 327.988007,321.007843 328.042023,321.065918 
z"/>
<path fill="#71734B" opacity="1.000000" stroke="none" 
	d="
M455.511719,309.124573 
	C455.075531,308.749054 455.043732,308.319244 454.975403,307.568115 
	C457.006104,307.246796 459.073395,307.246796 461.140656,307.246796 
	C461.186218,307.691833 461.231812,308.136841 461.277374,308.581879 
	C459.490265,308.744690 457.703186,308.907501 455.511719,309.124573 
z"/>
<path fill="#71734B" opacity="1.000000" stroke="none" 
	d="
M127.648361,307.171143 
	C128.009140,307.684631 127.957230,308.122437 127.884445,308.890289 
	C125.829918,309.016510 123.796272,308.812744 121.762634,308.608978 
	C121.766014,308.104492 121.769402,307.600006 121.772789,307.095520 
	C123.593750,307.095520 125.414703,307.095520 127.648361,307.171143 
z"/>
<path fill="#71734B" opacity="1.000000" stroke="none" 
	d="
M130.463837,309.074097 
	C130.033737,308.692810 130.008423,308.279572 129.960251,307.556549 
	C131.967148,307.246796 133.996918,307.246796 136.026703,307.246796 
	C136.069641,307.682251 136.112579,308.117706 136.155533,308.553162 
	C134.393219,308.716156 132.630920,308.879120 130.463837,309.074097 
z"/>
<path fill="#71734B" opacity="1.000000" stroke="none" 
	d="
M452.649841,307.171143 
	C453.023987,307.670868 452.985809,308.094910 452.928406,308.837769 
	C450.872223,308.985138 448.835205,308.813751 446.798218,308.642365 
	C446.792297,308.126770 446.786346,307.611145 446.780426,307.095520 
	C448.599457,307.095520 450.418488,307.095520 452.649841,307.171143 
z"/>
<path fill="#182E2E" opacity="1.000000" stroke="none" 
	d="
M365.140991,324.854095 
	C366.172302,325.789917 367.203613,326.725739 368.234955,327.661560 
	C367.825958,328.046051 367.416962,328.430542 367.007965,328.815002 
	C366.235413,327.757690 365.462891,326.700378 364.844482,325.320984 
	C364.998627,324.998932 365.140991,324.854095 365.140991,324.854095 
z"/>
<path fill="#172D2D" opacity="1.000000" stroke="none" 
	d="
M235.939774,322.447540 
	C237.104996,321.777618 238.266708,321.305237 239.428436,320.832886 
	C239.579895,321.436951 239.731369,322.041046 239.882843,322.645111 
	C238.567322,322.645111 237.251801,322.645111 235.939774,322.447540 
z"/>
<path fill="#182E2E" opacity="1.000000" stroke="none" 
	d="
M365.897034,316.708618 
	C365.268127,317.620544 364.684296,318.290100 364.100494,318.959656 
	C363.793152,318.512115 363.485779,318.064545 363.178406,317.617004 
	C364.099670,317.233398 365.020905,316.849823 365.897034,316.708618 
z"/>
<path fill="#1D3230" opacity="1.000000" stroke="none" 
	d="
M290.827515,318.966949 
	C290.303345,319.277039 289.948486,319.347168 289.325134,319.362762 
	C289.228210,317.999878 289.399750,316.691559 289.571259,315.383240 
	C290.046448,315.408813 290.521667,315.434387 290.996857,315.459961 
	C290.996857,316.548981 290.996857,317.637970 290.827515,318.966949 
z"/>
<path fill="#172D2D" opacity="1.000000" stroke="none" 
	d="
M543.911682,321.181152 
	C543.568054,319.939148 543.293884,318.925323 543.019775,317.911530 
	C543.440491,317.826141 543.861267,317.740784 544.282043,317.655396 
	C544.410889,319.046570 544.539734,320.437714 544.668640,321.828857 
	C544.526672,321.822968 544.352417,321.865845 544.251038,321.798706 
	C544.128723,321.717712 544.068359,321.543304 543.911682,321.181152 
z"/>
<path fill="#1D3230" opacity="1.000000" stroke="none" 
	d="
M394.907867,327.672791 
	C393.802368,327.879456 392.631561,327.879456 391.460724,327.879456 
	C391.535126,327.357452 391.609558,326.835449 391.683990,326.313446 
	C392.736847,326.697693 393.789673,327.081909 394.907867,327.672791 
z"/>
<path fill="#1D3230" opacity="1.000000" stroke="none" 
	d="
M391.940796,321.423218 
	C391.263000,321.599335 390.615112,321.543365 389.967224,321.487366 
	C390.273743,320.848022 390.580261,320.208710 390.886780,319.569366 
	C391.248077,320.109985 391.609406,320.650574 391.940796,321.423218 
z"/>
<path fill="#172D2D" opacity="1.000000" stroke="none" 
	d="
M541.664673,314.929718 
	C540.626160,314.706268 539.783691,314.422668 538.941223,314.139069 
	C539.127563,313.775604 539.313843,313.412109 539.500122,313.048645 
	C540.287048,313.655609 541.073914,314.262604 541.664673,314.929718 
z"/>
<path fill="#182E2E" opacity="1.000000" stroke="none" 
	d="
M236.345734,332.706238 
	C237.033356,333.028259 237.510712,333.381165 237.988068,333.734070 
	C237.494598,333.958832 237.001129,334.183624 236.507660,334.408417 
	C236.383591,333.851318 236.259521,333.294189 236.345734,332.706238 
z"/>
<path fill="#172D2D" opacity="1.000000" stroke="none" 
	d="
M534.051636,327.921509 
	C535.301208,328.074066 536.526428,328.268066 537.877686,328.732605 
	C538.003723,329.003174 537.978210,329.032410 537.978210,329.032410 
	C536.846558,328.817413 535.714844,328.602448 534.281433,328.216919 
	C533.979675,328.046417 534.027222,327.962921 534.051636,327.921509 
z"/>
<path fill="#A49B5A" opacity="1.000000" stroke="none" 
	d="
M219.365082,328.997742 
	C220.436218,328.331055 221.889648,327.656067 223.708862,326.970459 
	C222.632233,327.636322 221.189804,328.312866 219.365082,328.997742 
z"/>
<path fill="#B1A45E" opacity="1.000000" stroke="none" 
	d="
M484.285522,311.533569 
	C483.770874,312.573364 483.450195,313.294922 483.129547,314.016479 
	C482.684479,313.593964 482.239410,313.171448 481.794342,312.748932 
	C482.679077,311.793854 483.563812,310.838776 484.448547,309.883698 
	C484.526154,310.028381 484.675568,310.177673 484.666595,310.316772 
	C484.647125,310.619049 484.546753,310.916138 484.285522,311.533569 
z"/>
<path fill="#1D3230" opacity="1.000000" stroke="none" 
	d="
M400.863831,327.806824 
	C400.657379,327.538483 400.601807,327.273804 400.546265,327.009155 
	C400.807159,327.023468 401.068085,327.037781 401.328979,327.052094 
	C401.224243,327.304901 401.119476,327.557709 400.863831,327.806824 
z"/>
<path fill="#B1A45E" opacity="1.000000" stroke="none" 
	d="
M479.994171,316.015381 
	C480.339111,315.139893 480.819244,314.416077 481.299408,313.692261 
	C481.514984,313.826965 481.730560,313.961700 481.946136,314.096405 
	C481.603149,314.746674 481.260193,315.396912 480.658630,316.258606 
	C480.400085,316.470093 480.129364,316.167023 479.994171,316.015381 
z"/>
<path fill="#182E2E" opacity="1.000000" stroke="none" 
	d="
M247.213043,330.792328 
	C247.447632,330.798370 247.648987,330.903290 247.804977,331.054901 
	C247.836395,331.085449 247.695724,331.293091 247.634399,331.419067 
	C247.477554,331.248596 247.320694,331.078094 247.213043,330.792328 
z"/>
<path fill="#182E2E" opacity="1.000000" stroke="none" 
	d="
M244.756485,333.983307 
	C244.884155,333.863647 245.008072,333.839600 245.131973,333.815582 
	C245.005554,333.903381 244.879135,333.991180 244.756485,333.983307 
z"/>
<path fill="#172D2D" opacity="1.000000" stroke="none" 
	d="
M234.997070,317.101776 
	C235.089066,316.952759 235.547668,316.997925 235.773865,317.041687 
	C235.694443,317.413849 235.388794,317.742188 235.083130,318.070557 
	C235.023788,317.797302 234.964432,317.524048 234.997070,317.101776 
z"/>
<path fill="#182E2E" opacity="1.000000" stroke="none" 
	d="
M364.926239,325.070160 
	C364.544128,324.819672 364.234406,324.497955 363.924683,324.176239 
	C364.273132,324.286316 364.621552,324.396362 365.055481,324.680267 
	C365.140991,324.854095 364.998627,324.998932 364.926239,325.070160 
z"/>
<path fill="#B1A45E" opacity="1.000000" stroke="none" 
	d="
M485.656250,307.956360 
	C485.859344,308.432312 485.769989,308.932556 485.680664,309.432770 
	C485.439697,309.360321 485.198792,309.287872 484.957886,309.215424 
	C485.093170,308.803833 485.228485,308.392242 485.656250,307.956360 
z"/>
<path fill="#B1A45E" opacity="1.000000" stroke="none" 
	d="
M300.463989,327.519592 
	C301.652496,327.661743 302.632507,328.026367 303.612488,328.390961 
	C303.573975,328.574432 303.535431,328.757874 303.496918,328.941345 
	C302.431824,328.861298 301.366760,328.781250 300.070740,328.444733 
	C299.978394,328.039551 300.116943,327.890808 300.463989,327.519592 
z"/>
<path fill="#182E2E" opacity="1.000000" stroke="none" 
	d="
M241.653625,335.458740 
	C241.583099,335.578186 241.488220,335.624695 241.393341,335.671234 
	C241.471985,335.576080 241.550629,335.480927 241.653625,335.458740 
z"/>
<path fill="#182E2E" opacity="1.000000" stroke="none" 
	d="
M240.426636,327.339264 
	C240.566391,327.394989 240.630814,327.474426 240.695251,327.553894 
	C240.580597,327.490234 240.465958,327.426605 240.426636,327.339264 
z"/>
<path fill="#172D2D" opacity="1.000000" stroke="none" 
	d="
M542.509521,325.020752 
	C542.484497,325.028595 542.534607,325.012878 542.509521,325.020752 
z"/>
<path fill="#172D2D" opacity="1.000000" stroke="none" 
	d="
M540.465698,328.040405 
	C540.437500,328.016113 540.493835,328.064667 540.465698,328.040405 
z"/>
<path fill="#172D2D" opacity="1.000000" stroke="none" 
	d="
M534.940979,315.924133 
	C535.006897,315.875732 535.114380,315.863708 535.146118,315.939453 
	C535.070435,316.027283 534.982544,315.960449 534.940979,315.924133 
z"/>
<path fill="#9A9357" opacity="1.000000" stroke="none" 
	d="
M503.501617,315.018311 
	C503.476837,315.028564 503.526398,315.008087 503.501617,315.018311 
z"/>
<path fill="#1D3230" opacity="1.000000" stroke="none" 
	d="
M287.951904,313.522644 
	C287.937286,313.482361 287.966492,313.562927 287.951904,313.522644 
z"/>
<path fill="#9A9357" opacity="1.000000" stroke="none" 
	d="
M500.769501,313.630554 
	C500.961487,313.672577 501.121094,313.548126 501.280701,313.423706 
	C501.099518,313.437164 500.918335,313.450623 500.769501,313.630554 
z"/>
<path fill="#1D3230" opacity="1.000000" stroke="none" 
	d="
M334.049866,313.484924 
	C334.064392,313.525238 334.035309,313.444611 334.049866,313.484924 
z"/>
<path fill="#1D3230" opacity="1.000000" stroke="none" 
	d="
M390.498962,316.510071 
	C390.491394,316.488403 390.506561,316.531708 390.498962,316.510071 
z"/>
<path fill="#182E2E" opacity="1.000000" stroke="none" 
	d="
M246.494354,327.499512 
	C246.514481,327.492584 246.474228,327.506409 246.494354,327.499512 
z"/>
<path fill="#1D3230" opacity="1.000000" stroke="none" 
	d="
M394.028198,315.062256 
	C394.071533,315.107849 393.834839,315.020355 393.863953,314.975525 
	C393.893066,314.930695 393.984894,315.016663 394.028198,315.062256 
z"/>
<path fill="#172D2D" opacity="1.000000" stroke="none" 
	d="
M538.018311,328.990387 
	C538.032898,328.977600 538.026062,329.082489 538.002136,329.057434 
	C537.978210,329.032410 538.003723,329.003174 538.018311,328.990387 
z"/>
<path fill="#1D3230" opacity="1.000000" stroke="none" 
	d="
M336.506287,314.507233 
	C336.484985,314.515228 336.527588,314.499237 336.506287,314.507233 
z"/>
<path fill="#132A2D" opacity="1.000000" stroke="none" 
	d="
M414.000000,59.050102 
	C422.302124,59.050102 430.104309,59.050102 438.300964,59.050102 
	C438.447327,60.866783 438.663971,62.310394 438.665100,63.754166 
	C438.685486,90.055771 438.628418,116.357620 438.741852,142.658752 
	C438.756866,146.138535 438.087402,147.713806 434.121643,147.698120 
	C399.164337,147.559692 364.206299,147.613907 329.248474,147.598694 
	C328.426147,147.598343 327.603882,147.453186 326.353943,147.335205 
	C326.353943,118.108871 326.353943,88.939606 326.353943,59.050098 
	C355.375671,59.050098 384.437836,59.050098 414.000000,59.050102 
z"/>
<path fill="#182E2E" opacity="1.000000" stroke="none" 
	d="
M301.724976,89.000153 
	C301.724884,112.469398 301.596313,135.439972 301.834076,158.406754 
	C301.881134,162.953384 300.440338,164.021439 296.161102,163.898651 
	C286.016357,163.607544 275.856659,163.723602 265.705200,163.852493 
	C262.668762,163.891037 261.211761,163.258682 261.223907,159.759857 
	C261.336517,127.303726 261.289673,94.847046 261.314362,62.390545 
	C261.315094,61.437630 261.593170,60.484928 261.777435,59.304710 
	C274.911530,59.304710 287.839081,59.304710 301.724976,59.304710 
	C301.724976,69.051559 301.724976,78.775856 301.724976,89.000153 
M297.619537,87.503464 
	C295.949554,86.063660 294.350037,83.489906 292.597382,83.381058 
	C285.152710,82.918686 277.649170,82.950829 270.199768,83.375305 
	C268.583923,83.467384 267.102936,85.925606 265.559814,87.294014 
	C267.152771,88.583298 268.690308,90.896111 270.348267,90.985909 
	C277.799927,91.389511 285.292328,91.326431 292.754089,91.030144 
	C294.349304,90.966789 295.878143,89.231026 297.619537,87.503464 
M266.034302,69.194275 
	C264.787903,73.398575 266.692474,75.138916 270.733246,75.148598 
	C277.879822,75.165718 285.042786,75.418365 292.162140,74.978310 
	C294.047058,74.861809 297.092865,72.786530 297.343292,71.243500 
	C297.880096,67.935844 294.977692,67.047432 291.999664,67.059715 
	C285.019348,67.088509 278.036896,66.982475 271.059875,67.136391 
	C269.522644,67.170311 268.004272,68.056770 266.034302,69.194275 
M277.437225,144.340744 
	C277.443146,145.169510 277.127563,146.217377 277.515106,146.785995 
	C278.682770,148.499146 280.124054,150.025818 281.458618,151.625214 
	C282.790009,150.039825 284.668518,148.644287 285.302704,146.816925 
	C285.969727,144.894836 285.966187,142.377075 285.292206,140.457916 
	C284.658813,138.654221 282.768219,137.292023 281.430756,135.735565 
	C280.108246,137.327515 278.633514,138.823196 277.536621,140.557846 
	C277.084961,141.272125 277.446045,142.500381 277.437225,144.340744 
z"/>
<path fill="#172D2D" opacity="1.000000" stroke="none" 
	d="
M315.818970,249.470276 
	C314.090118,253.640778 311.238678,254.836594 307.052185,253.963425 
	C307.052185,247.026352 307.052185,240.175858 307.052185,233.339523 
	C314.215820,233.080215 316.188538,234.655182 316.547852,241.196335 
	C316.691193,243.805481 316.163269,246.451508 315.818970,249.470276 
z"/>
<path fill="#172D2D" opacity="1.000000" stroke="none" 
	d="
M634.669189,233.123901 
	C641.294128,234.821182 642.780273,237.990204 641.460327,246.736633 
	C640.580872,252.564484 638.521118,254.263535 631.914368,254.025909 
	C631.914368,247.690826 631.849182,241.306427 632.016235,234.928116 
	C632.032715,234.297531 633.469849,233.704163 634.669189,233.123901 
z"/>
<path fill="#1D3230" opacity="1.000000" stroke="none" 
	d="
M356.953552,247.184891 
	C357.734406,247.140686 358.766510,247.291046 358.933472,247.753632 
	C360.551483,252.237091 362.024414,256.772919 363.760254,261.955017 
	C359.679749,261.955017 356.067383,261.955017 351.780701,261.955017 
	C353.500732,257.013184 355.152039,252.268753 356.953552,247.184891 
z"/>
<path fill="#172D2D" opacity="1.000000" stroke="none" 
	d="
M500.915771,326.940643 
	C499.819946,327.081299 498.575836,327.615601 497.589905,327.311859 
	C496.329895,326.923676 494.247070,325.692780 494.339752,325.119476 
	C494.570923,323.689880 495.559052,321.727966 496.745361,321.264435 
	C498.431854,320.605377 500.568054,321.096985 503.887329,321.096985 
	C502.733002,323.365234 501.975128,324.854431 501.020203,326.679413 
	C500.823151,327.015167 500.882233,326.961945 500.915771,326.940643 
z"/>
<path fill="#CAB866" opacity="1.000000" stroke="none" 
	d="
M297.528564,87.884598 
	C295.878143,89.231026 294.349304,90.966789 292.754089,91.030144 
	C285.292328,91.326431 277.799927,91.389511 270.348267,90.985909 
	C268.690308,90.896111 267.152771,88.583298 265.559814,87.294006 
	C267.102936,85.925606 268.583923,83.467384 270.199768,83.375305 
	C277.649170,82.950829 285.152710,82.918686 292.597382,83.381058 
	C294.350037,83.489906 295.949554,86.063660 297.528564,87.884598 
z"/>
<path fill="#CAB866" opacity="1.000000" stroke="none" 
	d="
M266.255737,68.872459 
	C268.004272,68.056770 269.522644,67.170311 271.059875,67.136391 
	C278.036896,66.982475 285.019348,67.088509 291.999664,67.059715 
	C294.977692,67.047432 297.880096,67.935844 297.343292,71.243500 
	C297.092865,72.786530 294.047058,74.861809 292.162140,74.978310 
	C285.042786,75.418365 277.879822,75.165718 270.733246,75.148598 
	C266.692474,75.138916 264.787903,73.398575 266.255737,68.872459 
z"/>
<path fill="#C8B665" opacity="1.000000" stroke="none" 
	d="
M277.437347,143.917801 
	C277.446045,142.500381 277.084961,141.272125 277.536621,140.557846 
	C278.633514,138.823196 280.108246,137.327515 281.430786,135.735565 
	C282.768219,137.292023 284.658813,138.654221 285.292206,140.457916 
	C285.966187,142.377075 285.969727,144.894836 285.302704,146.816925 
	C284.668518,148.644287 282.790009,150.039825 281.458618,151.625214 
	C280.124054,150.025818 278.682770,148.499146 277.515106,146.785995 
	C277.127563,146.217377 277.443146,145.169510 277.437347,143.917801 
z"/>
</svg>