<svg version="1.1" id="Layer_1" xmlns="http://www.w3.org/2000/svg" xmlns:xlink="http://www.w3.org/1999/xlink" x="0px" y="0px"
	 width="100%" viewBox="0 0 896 261" enable-background="new 0 0 896 261" xml:space="preserve">
<path fill="#161733" opacity="1.000000" stroke="none" 
	d="
M593.000000,262.000000 
	C395.333344,262.000000 198.166718,262.000000 1.000053,262.000000 
	C1.000035,175.000031 1.000035,88.000069 1.000018,1.000076 
	C299.666595,1.000051 598.333191,1.000051 896.999878,1.000025 
	C896.999878,87.999916 896.999878,174.999832 896.999939,261.999878 
	C795.833313,262.000000 694.666687,262.000000 593.000000,262.000000 
M309.989502,198.998718 
	C309.989502,198.998718 309.967499,198.952011 309.205872,198.967392 
	C305.260956,198.249146 301.316040,197.530899 297.387024,196.815567 
	C297.387024,202.861847 297.387024,208.148117 297.387024,213.434387 
	C297.948853,213.496353 298.510651,213.558334 299.072479,213.620316 
	C299.316650,211.780594 299.442841,209.915527 299.831512,208.106842 
	C300.479187,205.092880 297.703888,199.847061 303.178009,199.802856 
	C309.026703,199.755646 306.161682,205.216141 306.807068,208.349289 
	C307.146759,209.998383 307.025238,211.742447 307.112000,213.443634 
	C307.777618,213.510010 308.443237,213.576385 309.108856,213.642761 
	C309.525269,209.365311 309.941711,205.087845 311.078369,200.290588 
	C315.308380,198.249985 316.910889,200.106293 316.935333,204.257751 
	C316.953247,207.303741 316.938873,210.349915 316.938873,213.396011 
	C317.466675,213.516495 317.994476,213.636978 318.522278,213.757462 
	C318.982025,212.822983 319.764587,211.913239 319.838409,210.949203 
	C320.027405,208.480759 320.001282,205.983292 319.881165,203.506165 
	C319.588013,197.461868 316.966156,195.884109 310.514191,198.155670 
	C310.323700,198.429474 310.133209,198.703278 309.989502,198.998718 
M350.140076,213.950134 
	C350.361176,214.117523 350.582306,214.284912 350.712219,215.275253 
	C347.781372,215.974915 344.850494,216.674561 341.919647,217.374222 
	C343.715088,218.715134 346.472626,220.254547 348.454010,219.564713 
	C350.642792,218.802658 353.379517,216.165894 353.662262,214.049683 
	C354.394135,208.571442 353.907715,202.930420 353.907715,197.312424 
	C352.186432,197.490021 350.764343,198.074692 349.750214,197.660507 
	C346.515320,196.339310 343.773560,196.724640 341.850586,199.621201 
	C339.439270,203.253464 339.496277,207.147141 341.686615,210.915558 
	C343.501099,214.037430 346.338806,214.288162 350.140076,213.950134 
M242.550278,113.381050 
	C248.005280,117.151947 253.837585,114.315475 259.786987,114.072746 
	C251.218185,105.546539 242.649368,97.020325 233.317352,87.734711 
	C241.106842,79.929138 248.738922,72.281311 256.195404,64.809448 
	C248.291763,63.300751 241.036194,64.290024 235.448654,71.753395 
	C232.567993,75.601158 228.570145,78.612534 224.079041,82.970245 
	C224.079041,75.983917 224.079041,70.437798 224.079041,64.825211 
	C219.455521,64.825211 215.385101,64.825211 211.409760,64.825211 
	C211.409760,81.763145 211.409760,98.344521 211.409760,114.790543 
	C215.831894,114.790543 219.898529,114.790543 224.319550,114.790543 
	C224.319550,108.486450 224.319550,102.566513 224.319550,95.500244 
	C230.710480,101.780632 236.345047,107.317741 242.550278,113.381050 
M287.695618,73.171425 
	C278.745880,89.280602 279.229401,109.508392 289.599579,121.559105 
	C293.027954,125.543045 293.210114,129.234085 292.592529,133.839661 
	C292.198181,136.780136 292.816376,139.856369 292.980621,142.871765 
	C296.145355,142.208694 299.311890,141.553833 302.472046,140.869629 
	C302.782684,140.802368 303.078400,140.586548 303.340424,140.386459 
	C306.996979,137.594299 310.729614,137.870819 315.033356,139.160034 
	C332.179169,144.296219 351.665588,137.353424 362.418732,122.660942 
	C373.537140,107.469376 374.352356,87.164154 364.452087,72.016739 
	C345.926453,43.672539 307.427734,43.936203 287.695618,73.171425 
M514.875244,84.896179 
	C524.285034,83.495506 527.536072,84.893990 527.885010,90.437721 
	C522.463684,90.928978 516.976379,91.043182 511.642944,92.008034 
	C505.208984,93.171959 501.716522,98.285255 502.195526,104.667442 
	C502.666321,110.940201 507.576996,116.250694 513.925476,115.895714 
	C518.725830,115.627304 523.431885,113.673058 528.240234,112.453796 
	C529.135681,115.747063 530.983337,116.244392 540.038818,114.757858 
	C540.038818,105.732605 540.392517,96.772202 539.911865,87.856766 
	C539.602112,82.111725 535.566956,78.615341 530.109253,77.264740 
	C521.877747,75.227722 513.753967,76.320900 505.915344,78.281898 
	C505.915344,81.497185 505.915344,84.183617 505.915344,86.962059 
	C508.906799,86.212997 511.441803,85.578224 514.875244,84.896179 
M784.546997,99.544281 
	C790.627014,99.544281 796.706970,99.544281 802.704590,99.544281 
	C803.758057,85.630875 797.302673,77.383919 785.133972,76.234505 
	C773.082947,75.096199 763.786194,81.960663 762.445190,92.987289 
	C760.926331,105.476791 767.307617,114.427063 779.168091,115.829544 
	C786.681335,116.717972 794.086060,115.818253 800.895874,112.721176 
	C800.895874,109.715950 800.895874,106.959846 800.895874,104.126328 
	C782.983154,110.093376 776.747620,109.097885 775.146179,99.544212 
	C778.016968,99.544212 780.791382,99.544212 784.546997,99.544281 
M661.313599,84.307213 
	C657.613220,78.961533 652.283813,76.687691 646.010864,76.227829 
	C635.270630,75.440483 626.461243,81.256317 624.310852,90.531044 
	C621.794556,101.383240 626.110901,111.234879 635.293640,114.485245 
	C644.663208,117.801758 653.809509,115.959801 662.669434,112.708694 
	C662.669434,109.570946 662.669434,106.945648 662.669434,104.274620 
	C642.522461,109.426376 637.483521,108.597809 636.911377,99.475266 
	C645.987915,99.475266 655.043335,99.475266 665.546753,99.475266 
	C664.115784,93.995705 662.929321,89.452705 661.313599,84.307213 
M413.055115,93.500298 
	C413.055115,100.607086 413.055115,107.713882 413.055115,114.886368 
	C417.668793,114.886368 421.755890,114.886368 426.373383,114.886368 
	C426.373383,101.359207 426.373383,88.126816 426.373383,74.395676 
	C432.163727,74.395676 437.435760,74.395676 442.894287,74.395676 
	C442.894287,70.926003 442.894287,67.970039 442.894287,64.873322 
	C427.325562,64.873322 411.949768,64.873322 396.457397,64.873322 
	C396.457397,68.089317 396.457397,70.890945 396.457397,74.379272 
	C401.999023,74.379272 407.377411,74.379272 413.055115,74.379272 
	C413.055115,80.874489 413.055115,86.687622 413.055115,93.500298 
M154.817322,64.514786 
	C139.940750,64.514786 125.064186,64.514786 110.199081,64.514786 
	C110.199081,68.157974 110.199081,71.072548 110.199081,74.657898 
	C115.854500,74.657898 121.232216,74.657898 127.047318,74.657898 
	C127.047318,88.554092 127.047318,101.776604 127.047318,114.964439 
	C131.491089,114.964439 135.447266,114.964439 139.955994,114.964439 
	C139.955994,101.373138 139.955994,87.995850 139.955994,74.176971 
	C145.782013,74.176971 151.060242,74.176971 157.181580,74.176971 
	C156.616074,70.648514 156.140930,67.683853 154.817322,64.514786 
M594.671021,104.182419 
	C598.057373,95.284988 601.443726,86.387558 604.995605,77.055168 
	C602.445190,77.055168 600.578796,77.307198 598.806763,77.005310 
	C594.453857,76.263718 592.238647,77.890610 590.949707,82.191216 
	C588.934021,88.916985 586.266968,95.447548 583.472168,103.177361 
	C580.355957,94.681282 577.761597,87.344215 574.916504,80.105721 
	C574.432251,78.873825 572.968201,77.355263 571.792236,77.197792 
	C568.728821,76.787567 565.574097,77.059792 561.765503,77.059792 
	C566.254639,88.456444 570.691223,99.173767 574.650269,110.064667 
	C576.049622,113.914078 577.777405,115.500847 582.057617,115.302681 
	C590.300781,114.921021 590.309143,115.198235 593.263855,107.124512 
	C593.549011,106.345360 593.936279,105.603577 594.671021,104.182419 
M75.343872,68.823700 
	C75.343872,84.081131 75.343872,99.338562 75.343872,114.760086 
	C79.971306,114.760086 84.177155,114.760086 88.286621,114.760086 
	C88.286621,97.792107 88.286621,81.250603 88.286621,64.371552 
	C84.810158,64.371552 81.663811,64.534424 78.542702,64.323540 
	C75.694405,64.131081 75.092682,65.538094 75.343872,68.823700 
M700.307556,74.528580 
	C700.307556,70.563644 700.307556,66.598709 700.307556,62.509216 
	C696.027039,62.509216 692.287170,62.509216 688.468140,62.509216 
	C688.468140,80.158318 688.468140,97.526665 688.468140,114.791412 
	C692.559570,114.791412 696.289795,114.791412 700.307495,114.791412 
	C700.307495,101.462059 700.307495,88.491226 700.307556,74.528580 
M726.692444,76.511559 
	C726.692444,89.277779 726.692444,102.043991 726.692444,114.831299 
	C731.009338,114.831299 734.751831,114.831299 738.489746,114.831299 
	C738.489746,97.153152 738.489746,79.798927 738.489746,62.431831 
	C734.469299,62.431831 730.850952,62.431831 726.692505,62.431831 
	C726.692505,66.923782 726.692505,71.221397 726.692444,76.511559 
M34.993103,82.501144 
	C34.993103,93.257523 34.993103,104.013908 34.993103,114.832695 
	C39.597805,114.832695 43.648842,114.832695 47.764332,114.832695 
	C47.764332,97.981079 47.764332,81.441025 47.764332,64.751198 
	C43.413925,64.751198 39.342194,64.751198 34.993103,64.751198 
	C34.993103,70.547867 34.993103,76.025009 34.993103,82.501144 
M456.763092,114.943130 
	C460.503479,114.943130 464.243835,114.943130 468.821075,114.943130 
	C468.821075,107.880493 468.458527,101.232521 468.927826,94.643806 
	C469.356537,88.625381 474.077820,85.392914 480.074066,86.222351 
	C481.335815,86.396881 482.564331,86.811974 484.119354,87.192352 
	C484.119354,83.411552 484.119354,80.038162 484.119354,76.578461 
	C477.869263,75.463158 473.090546,77.497849 468.928284,82.306381 
	C468.463531,80.209442 468.126587,78.689240 467.851288,77.447037 
	C463.780090,77.447037 460.047058,77.447037 456.175690,77.447037 
	C456.175690,89.951569 456.175690,102.071098 456.763092,114.943130 
M840.784302,90.526642 
	C844.176758,84.866463 849.377869,85.978065 854.674561,87.043449 
	C854.674561,83.480896 854.674561,80.106491 854.674561,76.633072 
	C848.305237,75.309685 843.516602,77.729088 839.224365,82.236641 
	C838.993042,80.227669 838.829590,78.808006 838.666138,77.388580 
	C834.628662,77.388580 830.887268,77.388580 827.174255,77.388580 
	C827.174255,90.108513 827.174255,102.501160 827.174255,114.783127 
	C831.250488,114.783127 834.967957,114.783127 838.936157,114.783127 
	C838.936157,112.413376 838.822693,110.423958 838.957581,108.451523 
	C839.351685,102.688652 839.844849,96.932556 840.784302,90.526642 
M185.809479,99.781784 
	C186.028137,96.707565 186.246780,93.633354 186.467667,90.527733 
	C178.938858,90.527733 172.074677,90.527733 165.302765,90.527733 
	C165.302765,93.851974 165.302765,96.781418 165.302765,100.034966 
	C172.035355,100.034966 178.489136,100.034966 185.809479,99.781784 
M455.171783,201.663681 
	C453.682495,211.850113 455.686310,213.572998 468.215576,212.878845 
	C469.632874,202.687042 468.930634,192.412369 466.184357,189.885376 
	C465.751343,192.677750 465.373840,195.112106 464.993439,197.565262 
	C460.696838,196.432968 457.273346,196.533157 455.171783,201.663681 
M268.781494,211.602417 
	C268.789307,209.936508 269.019165,208.234558 268.756012,206.612625 
	C268.292328,203.754517 268.327148,200.224976 266.633850,198.345505 
	C265.300690,196.865814 261.681427,197.445831 258.997925,197.100723 
	C258.648376,195.002228 258.245941,192.586090 257.843475,190.169968 
	C257.362549,190.268829 256.881592,190.367706 256.400665,190.466568 
	C256.400665,198.138031 256.400665,205.809494 256.400665,213.480942 
	C256.855927,213.537552 257.311188,213.594147 257.766418,213.650757 
	C258.057312,212.545761 258.528595,211.452362 258.600586,210.333298 
	C258.739349,208.176025 258.150024,205.833084 258.811768,203.890488 
	C259.382690,202.214508 261.270996,200.987320 262.576874,199.561722 
	C263.629944,200.954956 265.264893,202.221848 265.601257,203.770721 
	C266.119781,206.158432 265.671906,208.742599 265.776917,211.237411 
	C265.875946,213.590103 266.738403,214.469147 268.781494,211.602417 
M561.982178,196.435486 
	C561.982178,194.845200 561.982178,193.254929 561.982178,191.362366 
	C558.575562,192.835327 557.608887,205.902969 560.693298,213.838440 
	C561.641357,210.493607 562.589417,207.148773 563.722534,203.150864 
	C572.827576,213.026337 572.827576,213.026337 575.069397,212.659592 
	C572.274963,208.873459 569.545044,205.174667 566.714111,201.339081 
	C569.349060,198.170593 571.868774,195.140579 574.388550,192.110580 
	C573.898560,191.647964 573.408630,191.185364 572.918640,190.722748 
	C569.492126,194.135925 566.065613,197.549118 561.982300,201.616531 
	C561.982300,199.507065 561.982300,198.388229 561.982178,196.435486 
M625.023743,209.340622 
	C624.660095,205.998550 625.503967,201.190781 623.647278,199.661133 
	C620.926331,197.419556 616.271790,197.525070 612.431885,196.628250 
	C612.431885,205.037323 612.431885,212.464569 612.431885,219.891800 
	C612.919556,219.955505 613.407227,220.019196 613.894897,220.082886 
	C614.387817,217.790527 614.880737,215.498169 615.409485,213.038956 
	C619.345459,214.509689 622.685425,214.143829 625.023743,209.340622 
M327.979950,213.801025 
	C330.774689,213.520920 333.569427,213.240829 336.277802,212.969391 
	C336.277802,209.381683 336.403687,205.606644 336.239075,201.844330 
	C336.100128,198.668533 334.059265,197.180099 331.012451,196.965469 
	C327.165619,196.694489 325.506287,197.910538 324.623108,201.596100 
	C332.144531,199.093445 332.144531,199.093445 333.046692,203.059906 
	C329.702850,204.423691 324.261627,202.895493 323.810791,208.416016 
	C323.678284,210.038788 326.025787,211.864090 327.979950,213.801025 
M597.637207,210.723648 
	C597.645081,208.390793 597.144714,205.894699 597.824646,203.777664 
	C598.350952,202.138885 600.354187,200.974411 601.700806,199.599075 
	C602.713013,201.038834 604.372803,202.383514 604.601135,203.938385 
	C605.059814,207.062027 604.737488,210.300339 604.737488,213.491333 
	C605.588867,213.532730 606.440186,213.574127 607.291565,213.615524 
	C608.115967,209.266006 608.563721,204.670792 607.096985,200.332443 
	C604.817444,193.589645 599.018555,199.379654 594.757690,196.826233 
	C594.757690,202.187576 594.693115,206.826981 594.828979,211.460495 
	C594.848816,212.137405 595.824280,212.786285 596.357544,213.448135 
	C596.777466,212.808960 597.197449,212.169769 597.637207,210.723648 
M590.189880,213.272507 
	C590.206543,209.504303 590.802673,205.607956 590.008972,202.018982 
	C589.576538,200.063568 587.042847,197.769882 584.999878,197.160187 
	C581.869690,196.226044 579.131042,197.768417 577.984985,201.737411 
	C581.171509,202.065872 585.386292,195.541122 587.163208,203.239136 
	C585.404907,203.501007 584.101685,203.683258 582.802490,203.890839 
	C579.181213,204.469452 576.805908,206.319550 577.765442,210.239746 
	C578.675537,213.958069 581.635742,214.166534 584.897034,213.546066 
	C586.354675,213.268768 587.909485,213.502808 590.189880,213.272507 
M386.981720,199.637695 
	C389.833252,199.120773 391.510345,199.845078 390.879486,203.277847 
	C389.438141,203.493195 388.139313,203.708801 386.834473,203.878098 
	C383.132660,204.358398 380.770691,206.374695 381.629425,210.153793 
	C382.437500,213.709610 385.436646,214.247803 388.766113,213.582535 
	C390.540649,213.227966 392.390228,213.249100 394.212341,213.100128 
	C394.212341,209.623184 394.215790,206.017532 394.211334,202.411896 
	C394.207062,198.931122 392.162354,197.354904 388.981781,196.964905 
	C385.419678,196.528137 383.509064,197.906097 382.248657,202.271271 
	C383.886108,201.288651 385.037689,200.597565 386.981720,199.637695 
M426.076355,199.611328 
	C429.231323,198.699936 430.803711,199.781555 430.750610,203.296494 
	C428.944672,203.525116 427.299103,203.633545 425.696838,203.956802 
	C422.212830,204.659714 419.883972,207.075256 421.351837,210.263748 
	C422.158142,212.015106 425.606476,212.843765 428.023804,213.459641 
	C429.717865,213.891235 431.682709,213.260040 433.845367,213.076416 
	C433.845367,209.475113 434.106110,205.678436 433.765747,201.936447 
	C433.475128,198.741501 431.379089,196.965378 427.990509,196.946426 
	C424.420410,196.926468 422.806702,198.169983 421.982727,202.486359 
	C423.458527,201.377182 424.405518,200.665466 426.076355,199.611328 
M546.010376,194.034195 
	C546.821777,193.680084 547.633240,193.325958 548.444641,192.971848 
	C547.771545,192.424072 547.106995,191.415436 546.424072,191.402832 
	C541.783936,191.317215 537.138916,191.409927 532.499023,191.557373 
	C532.122498,191.569336 531.772644,192.420059 530.889832,193.543411 
	C533.769836,193.872635 535.931641,194.119751 539.141968,194.486725 
	C539.141968,200.967010 539.141968,207.287872 539.141968,213.608734 
	C539.775574,213.621201 540.409180,213.633667 541.042786,213.646133 
	C541.262390,212.186264 541.638245,210.729950 541.671387,209.265854 
	C541.761597,205.281311 541.838501,201.287704 541.663757,197.308975 
	C541.545654,194.619568 542.640869,193.687393 546.010376,194.034195 
M484.412323,213.225677 
	C488.244415,214.686935 491.458679,213.658478 493.417938,210.203293 
	C495.571014,206.406342 495.455658,202.070801 492.106415,199.288742 
	C490.230377,197.730438 486.437347,197.043365 484.095581,197.794769 
	C479.807220,199.170837 479.112396,203.413467 480.093018,207.362595 
	C480.600677,209.406891 482.434021,211.121979 484.412323,213.225677 
M284.788055,199.919434 
	C282.446625,196.831604 279.523743,195.949417 276.068848,197.868790 
	C272.072632,200.088852 271.497253,203.864029 272.305908,207.817856 
	C273.039612,211.405075 275.488007,213.920074 279.256073,213.778152 
	C281.262878,213.702560 283.213287,212.129715 285.189148,211.232666 
	C285.007416,210.832321 284.825653,210.431976 284.643890,210.031631 
	C277.661865,212.145081 276.235199,211.567352 275.494293,205.943115 
	C278.982880,205.943115 282.418579,205.943115 286.260254,205.943115 
	C285.802734,203.869629 285.449768,202.270096 284.788055,199.919434 
M443.890717,197.174210 
	C442.124176,197.343643 440.357635,197.513062 438.590027,197.673050 
	C437.231720,206.155624 437.854919,211.840500 441.073425,213.836349 
	C441.073425,209.982590 440.690369,206.518677 441.251373,203.215103 
	C441.494934,201.780762 443.680939,200.676285 444.984680,199.421982 
	C446.015900,200.662140 447.653778,201.776337 447.943237,203.170517 
	C448.438690,205.556625 447.943390,208.131042 448.163513,210.599701 
	C448.260101,211.682861 449.092926,212.700348 449.591431,213.747650 
	C450.103790,213.621567 450.616119,213.495483 451.128479,213.369385 
	C451.128479,209.957703 451.155823,206.545731 451.121490,203.134399 
	C451.079071,198.918533 449.264008,196.511948 443.890717,197.174210 
M640.705750,213.499847 
	C641.303528,208.122696 641.901306,202.745544 642.499084,197.368393 
	C641.586182,197.270630 640.673218,197.172852 639.760315,197.075073 
	C639.537537,199.669678 639.236572,202.260590 639.113220,204.859909 
	C638.981201,207.643097 639.671509,210.992691 635.431091,211.115128 
	C630.688354,211.252075 632.270081,207.452988 632.027222,204.950653 
	C631.835632,202.976181 632.092346,200.957626 631.891846,198.984894 
	C631.821045,198.287460 630.986389,197.667633 630.333496,196.787354 
	C625.788391,207.677475 629.329346,213.717590 639.443665,213.206741 
	C639.594910,213.199112 639.752625,213.318832 640.705750,213.499847 
M499.329651,206.466827 
	C499.473877,208.852081 499.618103,211.237320 499.762360,213.622574 
	C504.796906,209.066666 498.462982,201.527466 506.448303,198.026031 
	C504.658203,197.284882 503.459808,196.788727 501.243134,195.870972 
	C503.586243,193.868698 505.240814,192.454803 507.471252,190.548798 
	C505.678375,190.333633 504.112122,189.702133 503.655731,190.164963 
	C501.210327,192.645050 499.041565,195.397919 497.739197,196.927078 
	C498.416351,200.614044 498.873016,203.100464 499.329651,206.466827 
M372.253906,211.204681 
	C368.325500,209.864761 366.321259,205.464798 368.466827,201.925827 
	C371.965302,196.155365 374.802124,201.309647 378.106384,203.397751 
	C378.500458,198.691467 375.825836,197.368484 372.599182,196.968246 
	C368.658722,196.479462 365.363678,199.592422 364.954437,203.777725 
	C364.406311,209.383682 366.984253,213.513428 371.465149,213.780563 
	C375.077972,213.995941 377.486084,212.350403 377.699829,208.156662 
	C376.143829,209.125687 374.587830,210.094711 372.253906,211.204681 
M242.225037,194.241058 
	C242.582657,200.652145 242.940277,207.063217 243.297882,213.474304 
	C243.932587,213.516571 244.567307,213.558838 245.202011,213.601105 
	C247.199402,207.340607 245.007553,200.482880 246.439911,194.203110 
	C248.795563,193.989120 250.896774,193.798248 254.343414,193.485153 
	C248.733276,190.416901 238.068161,190.843796 235.568802,194.040024 
	C237.837891,194.040024 239.590561,194.040024 242.225037,194.241058 
M528.487854,211.552261 
	C528.053650,204.927277 529.476013,198.140244 526.675659,191.647659 
	C525.713806,198.505783 525.706238,205.351776 525.826050,212.195541 
	C525.827271,212.260590 527.523071,212.295959 528.487854,211.552261 
M414.014526,207.294434 
	C414.300232,209.432053 414.585907,211.569672 414.871613,213.707291 
	C415.401306,213.603668 415.931000,213.500061 416.460693,213.396454 
	C416.460693,205.703918 416.460693,198.011398 416.460693,190.318878 
	C415.963928,190.287277 415.467133,190.255676 414.970367,190.224075 
	C412.807831,195.378754 414.606049,201.003464 414.014526,207.294434 
M401.907867,201.507904 
	C401.907867,197.791794 401.907867,194.075668 401.907867,189.950775 
	C398.322449,191.937958 397.786041,209.891983 401.907867,213.676727 
	C401.907867,209.945526 401.907867,206.214310 401.907867,201.507904 
M520.091431,207.297424 
	C520.088379,202.799652 520.147888,198.300079 520.019714,193.805878 
	C519.998779,193.070633 519.150513,192.358978 518.684631,191.636429 
	C518.151733,192.300644 517.167603,192.956924 517.155701,193.630295 
	C517.039673,200.221375 517.085815,206.815308 517.085815,213.622147 
	C521.783752,213.101517 519.420349,209.990173 520.091431,207.297424 
M646.102783,200.949158 
	C646.720398,205.102753 644.745972,209.698242 648.253418,213.449448 
	C649.050293,210.348312 648.421387,207.121948 649.236877,204.315292 
	C649.971680,201.786667 652.289246,199.717957 653.908691,197.446396 
	C651.789856,199.906342 646.847412,194.113220 646.102783,200.949158 
M358.216034,211.604111 
	C358.798157,214.029739 360.711151,214.406967 361.001801,212.124542 
	C361.627930,207.208145 361.194183,202.156769 361.194183,197.160629 
	C360.393555,197.101913 359.592896,197.043198 358.792267,196.984467 
	C357.607880,201.428741 358.456879,206.181870 358.216034,211.604111 
z"/>
<path fill="#F499B5" opacity="1.000000" stroke="none" 
	d="
M242.264954,113.117950 
	C236.345047,107.317741 230.710480,101.780632 224.319550,95.500244 
	C224.319550,102.566513 224.319550,108.486450 224.319550,114.790543 
	C219.898529,114.790543 215.831894,114.790543 211.409760,114.790543 
	C211.409760,98.344521 211.409760,81.763145 211.409760,64.825211 
	C215.385101,64.825211 219.455521,64.825211 224.079041,64.825211 
	C224.079041,70.437798 224.079041,75.983917 224.079041,82.970245 
	C228.570145,78.612534 232.567993,75.601158 235.448654,71.753395 
	C241.036194,64.290024 248.291763,63.300751 256.195404,64.809448 
	C248.738922,72.281311 241.106842,79.929138 233.317352,87.734711 
	C242.649368,97.020325 251.218185,105.546539 259.786987,114.072746 
	C253.837585,114.315475 248.005280,117.151947 242.264954,113.117950 
z"/>
<path fill="#E38FAB" opacity="1.000000" stroke="none" 
	d="
M287.878540,72.855667 
	C307.427734,43.936203 345.926453,43.672539 364.452087,72.016739 
	C374.352356,87.164154 373.537140,107.469376 362.418732,122.660942 
	C351.665588,137.353424 332.179169,144.296219 315.033356,139.160034 
	C310.729614,137.870819 306.996979,137.594299 303.340424,140.386459 
	C303.078400,140.586548 302.782684,140.802368 302.472046,140.869629 
	C299.311890,141.553833 296.145355,142.208694 292.980621,142.871765 
	C292.816376,139.856369 292.198181,136.780136 292.592529,133.839661 
	C293.210114,129.234085 293.027954,125.543045 289.599579,121.559105 
	C279.229401,109.508392 278.745880,89.280602 287.878540,72.855667 
M302.989807,136.583054 
	C306.737274,134.285965 310.331024,134.135193 314.760254,135.480606 
	C332.692200,140.927490 352.080566,133.301102 361.575104,117.647194 
	C371.381317,101.479454 369.441315,81.458969 356.740143,67.751366 
	C342.441345,52.319511 318.367401,50.059860 301.854004,62.599548 
	C285.136383,75.294327 278.993866,100.024857 290.208679,115.963684 
	C295.366577,123.294228 297.752533,129.823944 295.779205,138.231110 
	C295.729248,138.444016 296.098846,138.755386 296.538605,139.426620 
	C298.404510,138.614258 300.342041,137.770721 302.989807,136.583054 
z"/>
<path fill="#F198B4" opacity="1.000000" stroke="none" 
	d="
M514.426025,84.919815 
	C511.441803,85.578224 508.906799,86.212997 505.915344,86.962059 
	C505.915344,84.183617 505.915344,81.497185 505.915344,78.281898 
	C513.753967,76.320900 521.877747,75.227722 530.109253,77.264740 
	C535.566956,78.615341 539.602112,82.111725 539.911865,87.856766 
	C540.392517,96.772202 540.038818,105.732605 540.038818,114.757858 
	C530.983337,116.244392 529.135681,115.747063 528.240234,112.453796 
	C523.431885,113.673058 518.725830,115.627304 513.925476,115.895714 
	C507.576996,116.250694 502.666321,110.940201 502.195526,104.667442 
	C501.716522,98.285255 505.208984,93.171959 511.642944,92.008034 
	C516.976379,91.043182 522.463684,90.928978 527.885010,90.437721 
	C527.536072,84.893990 524.285034,83.495506 514.426025,84.919815 
M514.778564,104.266365 
	C516.014038,108.328537 519.287781,108.577278 522.429932,107.689713 
	C526.862244,106.437668 528.630554,103.050980 528.087585,98.163841 
	C525.553345,98.163841 523.070068,98.016464 520.611694,98.200371 
	C517.389954,98.441368 514.707947,99.533409 514.778564,104.266365 
z"/>
<path fill="#F097B3" opacity="1.000000" stroke="none" 
	d="
M784.056396,99.544250 
	C780.791382,99.544212 778.016968,99.544212 775.146179,99.544212 
	C776.747620,109.097885 782.983154,110.093376 800.895874,104.126328 
	C800.895874,106.959846 800.895874,109.715950 800.895874,112.721176 
	C794.086060,115.818253 786.681335,116.717972 779.168091,115.829544 
	C767.307617,114.427063 760.926331,105.476791 762.445190,92.987289 
	C763.786194,81.960663 773.082947,75.096199 785.133972,76.234505 
	C797.302673,77.383919 803.758057,85.630875 802.704590,99.544281 
	C796.706970,99.544281 790.627014,99.544281 784.056396,99.544250 
M790.133179,89.998924 
	C789.037537,85.770973 786.172607,83.987320 782.000305,84.555283 
	C777.959045,85.105400 775.495483,87.405235 775.154785,92.514000 
	C780.364319,91.940437 785.271667,91.400139 790.133179,89.998924 
z"/>
<path fill="#F097B3" opacity="1.000000" stroke="none" 
	d="
M661.528259,84.608459 
	C662.929321,89.452705 664.115784,93.995705 665.546753,99.475266 
	C655.043335,99.475266 645.987915,99.475266 636.911377,99.475266 
	C637.483521,108.597809 642.522461,109.426376 662.669434,104.274620 
	C662.669434,106.945648 662.669434,109.570946 662.669434,112.708694 
	C653.809509,115.959801 644.663208,117.801758 635.293640,114.485245 
	C626.110901,111.234879 621.794556,101.383240 624.310852,90.531044 
	C626.461243,81.256317 635.270630,75.440483 646.010864,76.227829 
	C652.283813,76.687691 657.613220,78.961533 661.528259,84.608459 
M637.899658,87.818909 
	C637.484070,89.066177 637.068420,90.313438 636.572693,91.801025 
	C642.132568,91.801025 646.898376,91.801025 651.695984,91.801025 
	C650.341370,83.971786 644.864197,82.143883 637.899658,87.818909 
z"/>
<path fill="#F198B4" opacity="1.000000" stroke="none" 
	d="
M413.055115,93.000534 
	C413.055115,86.687622 413.055115,80.874489 413.055115,74.379272 
	C407.377411,74.379272 401.999023,74.379272 396.457397,74.379272 
	C396.457397,70.890945 396.457397,68.089317 396.457397,64.873322 
	C411.949768,64.873322 427.325562,64.873322 442.894287,64.873322 
	C442.894287,67.970039 442.894287,70.926003 442.894287,74.395676 
	C437.435760,74.395676 432.163727,74.395676 426.373383,74.395676 
	C426.373383,88.126816 426.373383,101.359207 426.373383,114.886368 
	C421.755890,114.886368 417.668793,114.886368 413.055115,114.886368 
	C413.055115,107.713882 413.055115,100.607086 413.055115,93.000534 
z"/>
<path fill="#F197B3" opacity="1.000000" stroke="none" 
	d="
M155.241562,64.616989 
	C156.140930,67.683853 156.616074,70.648514 157.181580,74.176971 
	C151.060242,74.176971 145.782013,74.176971 139.955994,74.176971 
	C139.955994,87.995850 139.955994,101.373138 139.955994,114.964439 
	C135.447266,114.964439 131.491089,114.964439 127.047318,114.964439 
	C127.047318,101.776604 127.047318,88.554092 127.047318,74.657898 
	C121.232216,74.657898 115.854500,74.657898 110.199081,74.657898 
	C110.199081,71.072548 110.199081,68.157974 110.199081,64.514786 
	C125.064186,64.514786 139.940750,64.514786 155.241562,64.616989 
z"/>
<path fill="#F198B4" opacity="1.000000" stroke="none" 
	d="
M594.473511,104.513428 
	C593.936279,105.603577 593.549011,106.345360 593.263855,107.124512 
	C590.309143,115.198235 590.300781,114.921021 582.057617,115.302681 
	C577.777405,115.500847 576.049622,113.914078 574.650269,110.064667 
	C570.691223,99.173767 566.254639,88.456444 561.765503,77.059792 
	C565.574097,77.059792 568.728821,76.787567 571.792236,77.197792 
	C572.968201,77.355263 574.432251,78.873825 574.916504,80.105721 
	C577.761597,87.344215 580.355957,94.681282 583.472168,103.177361 
	C586.266968,95.447548 588.934021,88.916985 590.949707,82.191216 
	C592.238647,77.890610 594.453857,76.263718 598.806763,77.005310 
	C600.578796,77.307198 602.445190,77.055168 604.995605,77.055168 
	C601.443726,86.387558 598.057373,95.284988 594.473511,104.513428 
z"/>
<path fill="#E892AE" opacity="1.000000" stroke="none" 
	d="
M75.345032,68.365326 
	C75.092682,65.538094 75.694405,64.131081 78.542702,64.323540 
	C81.663811,64.534424 84.810158,64.371552 88.286621,64.371552 
	C88.286621,81.250603 88.286621,97.792107 88.286621,114.760086 
	C84.177155,114.760086 79.971306,114.760086 75.343872,114.760086 
	C75.343872,99.338562 75.343872,84.081131 75.345032,68.365326 
z"/>
<path fill="#F499B5" opacity="1.000000" stroke="none" 
	d="
M700.307495,75.024483 
	C700.307495,88.491226 700.307495,101.462059 700.307495,114.791412 
	C696.289795,114.791412 692.559570,114.791412 688.468140,114.791412 
	C688.468140,97.526665 688.468140,80.158318 688.468140,62.509216 
	C692.287170,62.509216 696.027039,62.509216 700.307556,62.509216 
	C700.307556,66.598709 700.307556,70.563644 700.307495,75.024483 
z"/>
<path fill="#F499B5" opacity="1.000000" stroke="none" 
	d="
M726.692505,76.015289 
	C726.692505,71.221397 726.692505,66.923782 726.692505,62.431831 
	C730.850952,62.431831 734.469299,62.431831 738.489746,62.431831 
	C738.489746,79.798927 738.489746,97.153152 738.489746,114.831299 
	C734.751831,114.831299 731.009338,114.831299 726.692444,114.831299 
	C726.692444,102.043991 726.692444,89.277779 726.692505,76.015289 
z"/>
<path fill="#F79BB7" opacity="1.000000" stroke="none" 
	d="
M34.993103,82.001648 
	C34.993103,76.025009 34.993103,70.547867 34.993103,64.751198 
	C39.342194,64.751198 43.413925,64.751198 47.764332,64.751198 
	C47.764332,81.441025 47.764332,97.981079 47.764332,114.832695 
	C43.648842,114.832695 39.597805,114.832695 34.993103,114.832695 
	C34.993103,104.013908 34.993103,93.257523 34.993103,82.001648 
z"/>
<path fill="#F499B5" opacity="1.000000" stroke="none" 
	d="
M456.469391,114.566879 
	C456.175690,102.071098 456.175690,89.951569 456.175690,77.447037 
	C460.047058,77.447037 463.780090,77.447037 467.851288,77.447037 
	C468.126587,78.689240 468.463531,80.209442 468.928284,82.306381 
	C473.090546,77.497849 477.869263,75.463158 484.119354,76.578461 
	C484.119354,80.038162 484.119354,83.411552 484.119354,87.192352 
	C482.564331,86.811974 481.335815,86.396881 480.074066,86.222351 
	C474.077820,85.392914 469.356537,88.625381 468.927826,94.643806 
	C468.458527,101.232521 468.821075,107.880493 468.821075,114.943130 
	C464.243835,114.943130 460.503479,114.943130 456.469391,114.566879 
z"/>
<path fill="#F59AB6" opacity="1.000000" stroke="none" 
	d="
M840.541748,90.850220 
	C839.844849,96.932556 839.351685,102.688652 838.957581,108.451523 
	C838.822693,110.423958 838.936157,112.413376 838.936157,114.783127 
	C834.967957,114.783127 831.250488,114.783127 827.174255,114.783127 
	C827.174255,102.501160 827.174255,90.108513 827.174255,77.388580 
	C830.887268,77.388580 834.628662,77.388580 838.666138,77.388580 
	C838.829590,78.808006 838.993042,80.227669 839.224365,82.236641 
	C843.516602,77.729088 848.305237,75.309685 854.674561,76.633072 
	C854.674561,80.106491 854.674561,83.480896 854.674561,87.043449 
	C849.377869,85.978065 844.176758,84.866463 840.541748,90.850220 
z"/>
<path fill="#F499B5" opacity="1.000000" stroke="none" 
	d="
M185.376205,99.908371 
	C178.489136,100.034966 172.035355,100.034966 165.302765,100.034966 
	C165.302765,96.781418 165.302765,93.851974 165.302765,90.527733 
	C172.074677,90.527733 178.938858,90.527733 186.467667,90.527733 
	C186.246780,93.633354 186.028137,96.707565 185.376205,99.908371 
z"/>
<path fill="#D486A2" opacity="1.000000" stroke="none" 
	d="
M455.361267,201.327698 
	C457.273346,196.533157 460.696838,196.432968 464.993439,197.565262 
	C465.373840,195.112106 465.751343,192.677750 466.184357,189.885376 
	C468.930634,192.412369 469.632874,202.687042 468.215576,212.878845 
	C455.686310,213.572998 453.682495,211.850113 455.361267,201.327698 
M457.676483,204.615845 
	C458.165527,210.069290 460.625336,212.849915 463.140839,210.716187 
	C464.808228,209.301865 465.264130,205.956879 465.380859,203.435349 
	C465.436584,202.231613 463.441254,200.932922 462.374969,199.677246 
	C460.845062,201.033310 459.315155,202.389359 457.676483,204.615845 
z"/>
<path fill="#E38FAB" opacity="1.000000" stroke="none" 
	d="
M349.486725,213.434998 
	C346.338806,214.288162 343.501099,214.037430 341.686615,210.915558 
	C339.496277,207.147141 339.439270,203.253464 341.850586,199.621201 
	C343.773560,196.724640 346.515320,196.339310 349.750214,197.660507 
	C350.764343,198.074692 352.186432,197.490021 353.907715,197.312424 
	C353.907715,202.930420 354.394135,208.571442 353.662262,214.049683 
	C353.379517,216.165894 350.642792,218.802658 348.454010,219.564713 
	C346.472626,220.254547 343.715088,218.715134 341.919647,217.374222 
	C344.850494,216.674561 347.781372,215.974915 350.829559,214.550171 
	C350.460175,213.695068 349.973450,213.565033 349.486725,213.434998 
M351.016541,202.805923 
	C348.900696,198.978210 346.042786,198.025558 344.653412,200.959991 
	C343.542267,203.306824 343.784973,206.520126 344.206451,209.227493 
	C344.330231,210.022476 348.302399,211.148880 348.489410,210.851669 
	C349.657349,208.995178 350.264832,206.782654 351.022400,204.675293 
	C351.126984,204.384338 351.034973,204.022705 351.016541,202.805923 
z"/>
<path fill="#DA8AA6" opacity="1.000000" stroke="none" 
	d="
M268.734009,211.999100 
	C266.738403,214.469147 265.875946,213.590103 265.776917,211.237411 
	C265.671906,208.742599 266.119781,206.158432 265.601257,203.770721 
	C265.264893,202.221848 263.629944,200.954956 262.576874,199.561737 
	C261.270996,200.987320 259.382690,202.214508 258.811768,203.890488 
	C258.150024,205.833084 258.739349,208.176025 258.600586,210.333298 
	C258.528595,211.452362 258.057312,212.545761 257.766418,213.650757 
	C257.311188,213.594147 256.855927,213.537552 256.400665,213.480942 
	C256.400665,205.809494 256.400665,198.138031 256.400665,190.466568 
	C256.881592,190.367706 257.362549,190.268829 257.843475,190.169968 
	C258.245941,192.586090 258.648376,195.002228 258.997925,197.100723 
	C261.681427,197.445831 265.300690,196.865814 266.633850,198.345505 
	C268.327148,200.224976 268.292328,203.754517 268.756012,206.612625 
	C269.019165,208.234558 268.789307,209.936508 268.734009,211.999100 
z"/>
<path fill="#E38FAB" opacity="1.000000" stroke="none" 
	d="
M561.982239,196.852432 
	C561.982300,198.388229 561.982300,199.507065 561.982300,201.616531 
	C566.065613,197.549118 569.492126,194.135925 572.918640,190.722748 
	C573.408630,191.185364 573.898560,191.647964 574.388550,192.110580 
	C571.868774,195.140579 569.349060,198.170593 566.714111,201.339081 
	C569.545044,205.174667 572.274963,208.873459 575.069397,212.659592 
	C572.827576,213.026337 572.827576,213.026337 563.722534,203.150864 
	C562.589417,207.148773 561.641357,210.493607 560.693298,213.838440 
	C557.608887,205.902969 558.575562,192.835327 561.982178,191.362366 
	C561.982178,193.254929 561.982178,194.845200 561.982239,196.852432 
z"/>
<path fill="#DC8BA7" opacity="1.000000" stroke="none" 
	d="
M624.902588,209.711060 
	C622.685425,214.143829 619.345459,214.509689 615.409485,213.038956 
	C614.880737,215.498169 614.387817,217.790527 613.894897,220.082886 
	C613.407227,220.019196 612.919556,219.955505 612.431885,219.891800 
	C612.431885,212.464569 612.431885,205.037323 612.431885,196.628250 
	C616.271790,197.525070 620.926331,197.419556 623.647278,199.661133 
	C625.503967,201.190781 624.660095,205.998550 624.902588,209.711060 
M620.806274,200.261017 
	C615.426636,199.041183 613.721802,201.042755 614.905212,207.738907 
	C615.126831,208.992935 616.673645,210.877121 617.677612,210.921661 
	C619.107666,210.985123 621.703247,209.790161 621.854736,208.826797 
	C622.258972,206.255997 621.624146,203.521866 620.806274,200.261017 
z"/>
<path fill="#DF8DA9" opacity="1.000000" stroke="none" 
	d="
M327.608337,213.698792 
	C326.025787,211.864090 323.678284,210.038788 323.810791,208.416016 
	C324.261627,202.895493 329.702850,204.423691 333.046692,203.059906 
	C332.144531,199.093445 332.144531,199.093445 324.623108,201.596100 
	C325.506287,197.910538 327.165619,196.694489 331.012451,196.965469 
	C334.059265,197.180099 336.100128,198.668533 336.239075,201.844330 
	C336.403687,205.606644 336.277802,209.381683 336.277802,212.969391 
	C333.569427,213.240829 330.774689,213.520920 327.608337,213.698792 
M328.985626,205.990616 
	C328.156128,207.158005 327.326630,208.325394 326.497131,209.492798 
	C327.917877,210.006088 329.522705,211.178619 330.707733,210.847733 
	C331.898804,210.515121 332.671906,208.685791 333.628204,207.512360 
	C332.343872,206.951706 331.059509,206.391068 328.985626,205.990616 
z"/>
<path fill="#DA8AA6" opacity="1.000000" stroke="none" 
	d="
M597.627319,211.127106 
	C597.197449,212.169769 596.777466,212.808960 596.357544,213.448135 
	C595.824280,212.786285 594.848816,212.137405 594.828979,211.460495 
	C594.693115,206.826981 594.757690,202.187576 594.757690,196.826233 
	C599.018555,199.379654 604.817444,193.589645 607.096985,200.332443 
	C608.563721,204.670792 608.115967,209.266006 607.291565,213.615524 
	C606.440186,213.574127 605.588867,213.532730 604.737488,213.491333 
	C604.737488,210.300339 605.059814,207.062027 604.601135,203.938385 
	C604.372803,202.383514 602.713013,201.038834 601.700806,199.599075 
	C600.354187,200.974411 598.350952,202.138885 597.824646,203.777664 
	C597.144714,205.894699 597.645081,208.390793 597.627319,211.127106 
z"/>
<path fill="#DF8DA9" opacity="1.000000" stroke="none" 
	d="
M589.805054,213.388641 
	C587.909485,213.502808 586.354675,213.268768 584.897034,213.546066 
	C581.635742,214.166534 578.675537,213.958069 577.765442,210.239746 
	C576.805908,206.319550 579.181213,204.469452 582.802490,203.890839 
	C584.101685,203.683258 585.404907,203.501007 587.163208,203.239136 
	C585.386292,195.541122 581.171509,202.065872 577.984985,201.737411 
	C579.131042,197.768417 581.869690,196.226044 584.999878,197.160187 
	C587.042847,197.769882 589.576538,200.063568 590.008972,202.018982 
	C590.802673,205.607956 590.206543,209.504303 589.805054,213.388641 
M584.444946,205.743073 
	C583.071533,206.789078 581.698120,207.835098 580.324768,208.881149 
	C581.230408,209.646683 582.206848,211.106857 583.026001,211.023407 
	C584.438538,210.879501 585.753357,209.775604 587.109131,209.074524 
	C586.482788,207.959320 585.856384,206.844131 584.444946,205.743073 
z"/>
<path fill="#DF8DA9" opacity="1.000000" stroke="none" 
	d="
M386.585510,199.772095 
	C385.037689,200.597565 383.886108,201.288651 382.248657,202.271271 
	C383.509064,197.906097 385.419678,196.528137 388.981781,196.964905 
	C392.162354,197.354904 394.207062,198.931122 394.211334,202.411896 
	C394.215790,206.017532 394.212341,209.623184 394.212341,213.100128 
	C392.390228,213.249100 390.540649,213.227966 388.766113,213.582535 
	C385.436646,214.247803 382.437500,213.709610 381.629425,210.153793 
	C380.770691,206.374695 383.132660,204.358398 386.834473,203.878098 
	C388.139313,203.708801 389.438141,203.493195 390.879486,203.277847 
	C391.510345,199.845078 389.833252,199.120773 386.585510,199.772095 
M384.276978,208.523819 
	C385.763824,209.331085 387.403381,210.955353 388.694153,210.714020 
	C389.964600,210.476486 390.881287,208.347214 391.953186,207.048004 
	C391.515259,206.436203 391.077332,205.824387 390.639404,205.212585 
	C388.589447,206.064758 386.539520,206.916931 384.276978,208.523819 
z"/>
<path fill="#DF8DA9" opacity="1.000000" stroke="none" 
	d="
M425.714417,199.782532 
	C424.405518,200.665466 423.458527,201.377182 421.982727,202.486359 
	C422.806702,198.169983 424.420410,196.926468 427.990509,196.946426 
	C431.379089,196.965378 433.475128,198.741501 433.765747,201.936447 
	C434.106110,205.678436 433.845367,209.475113 433.845367,213.076416 
	C431.682709,213.260040 429.717865,213.891235 428.023804,213.459641 
	C425.606476,212.843765 422.158142,212.015106 421.351837,210.263748 
	C419.883972,207.075256 422.212830,204.659714 425.696838,203.956802 
	C427.299103,203.633545 428.944672,203.525116 430.750610,203.296494 
	C430.803711,199.781555 429.231323,198.699936 425.714417,199.782532 
M430.927429,208.137177 
	C430.659149,203.750076 427.597839,206.138077 425.819122,206.332993 
	C425.149780,206.406326 424.702759,208.508636 424.154388,209.685974 
	C425.780365,210.018356 427.399292,210.520294 429.036285,210.588638 
	C429.589142,210.611725 430.187897,209.536102 430.927429,208.137177 
z"/>
<path fill="#CC829E" opacity="1.000000" stroke="none" 
	d="
M545.583130,194.036285 
	C542.640869,193.687393 541.545654,194.619568 541.663757,197.308975 
	C541.838501,201.287704 541.761597,205.281311 541.671387,209.265854 
	C541.638245,210.729950 541.262390,212.186264 541.042786,213.646133 
	C540.409180,213.633667 539.775574,213.621201 539.141968,213.608734 
	C539.141968,207.287872 539.141968,200.967010 539.141968,194.486725 
	C535.931641,194.119751 533.769836,193.872635 530.889832,193.543411 
	C531.772644,192.420059 532.122498,191.569336 532.499023,191.557373 
	C537.138916,191.409927 541.783936,191.317215 546.424072,191.402832 
	C547.106995,191.415436 547.771545,192.424072 548.444641,192.971848 
	C547.633240,193.325958 546.821777,193.680084 545.583130,194.036285 
z"/>
<path fill="#DC8BA7" opacity="1.000000" stroke="none" 
	d="
M484.040375,213.105743 
	C482.434021,211.121979 480.600677,209.406891 480.093018,207.362595 
	C479.112396,203.413467 479.807220,199.170837 484.095581,197.794769 
	C486.437347,197.043365 490.230377,197.730438 492.106415,199.288742 
	C495.455658,202.070801 495.571014,206.406342 493.417938,210.203293 
	C491.458679,213.658478 488.244415,214.686935 484.040375,213.105743 
M483.264435,202.043625 
	C483.185333,204.001312 482.694092,206.054108 483.119049,207.895477 
	C483.845062,211.041534 486.152618,212.163910 489.163208,210.784882 
	C491.730316,209.608978 492.720245,203.987320 490.745667,201.475449 
	C488.609161,198.757568 486.143036,198.490829 483.264435,202.043625 
z"/>
<path fill="#E38FAB" opacity="1.000000" stroke="none" 
	d="
M284.942444,200.294998 
	C285.449768,202.270096 285.802734,203.869629 286.260254,205.943115 
	C282.418579,205.943115 278.982880,205.943115 275.494293,205.943115 
	C276.235199,211.567352 277.661865,212.145081 284.643890,210.031631 
	C284.825653,210.431976 285.007416,210.832321 285.189148,211.232666 
	C283.213287,212.129715 281.262878,213.702560 279.256073,213.778152 
	C275.488007,213.920074 273.039612,211.405075 272.305908,207.817856 
	C271.497253,203.864029 272.072632,200.088852 276.068848,197.868790 
	C279.523743,195.949417 282.446625,196.831604 284.942444,200.294998 
M278.023956,199.606064 
	C276.971161,200.793701 275.918396,201.981339 274.369385,203.728760 
	C277.876648,203.728760 280.272522,203.728760 282.668427,203.728760 
	C282.927673,203.323425 283.186951,202.918106 283.446228,202.512772 
	C281.871277,201.452377 280.296356,200.391998 278.023956,199.606064 
z"/>
<path fill="#DF8DA9" opacity="1.000000" stroke="none" 
	d="
M444.295502,197.095367 
	C449.264008,196.511948 451.079071,198.918533 451.121490,203.134399 
	C451.155823,206.545731 451.128479,209.957703 451.128479,213.369385 
	C450.616119,213.495483 450.103790,213.621567 449.591431,213.747650 
	C449.092926,212.700348 448.260101,211.682861 448.163513,210.599701 
	C447.943390,208.131042 448.438690,205.556625 447.943237,203.170517 
	C447.653778,201.776337 446.015900,200.662140 444.984680,199.421982 
	C443.680939,200.676285 441.494934,201.780762 441.251373,203.215103 
	C440.690369,206.518677 441.073425,209.982590 441.073425,213.836349 
	C437.854919,211.840500 437.231720,206.155624 438.590576,197.677765 
	C440.357635,197.513062 442.124176,197.343643 444.295502,197.095367 
z"/>
<path fill="#DA8AA6" opacity="1.000000" stroke="none" 
	d="
M310.358124,200.810394 
	C309.941711,205.087845 309.525269,209.365311 309.108856,213.642761 
	C308.443237,213.576385 307.777618,213.510010 307.112000,213.443634 
	C307.025238,211.742447 307.146759,209.998383 306.807068,208.349289 
	C306.161682,205.216141 309.026703,199.755646 303.178009,199.802856 
	C297.703888,199.847061 300.479187,205.092880 299.831512,208.106842 
	C299.442841,209.915527 299.316650,211.780594 299.072479,213.620316 
	C298.510651,213.558334 297.948853,213.496353 297.387024,213.434387 
	C297.387024,208.148117 297.387024,202.861847 297.387024,196.815567 
	C301.316040,197.530899 305.260956,198.249146 309.681274,199.424927 
	C310.223846,200.191788 310.290985,200.501083 310.358124,200.810394 
z"/>
<path fill="#DF8DA9" opacity="1.000000" stroke="none" 
	d="
M640.306519,213.439484 
	C639.752625,213.318832 639.594910,213.199112 639.443665,213.206741 
	C629.329346,213.717590 625.788391,207.677475 630.333496,196.787354 
	C630.986389,197.667633 631.821045,198.287460 631.891846,198.984894 
	C632.092346,200.957626 631.835632,202.976181 632.027222,204.950653 
	C632.270081,207.452988 630.688354,211.252075 635.431091,211.115128 
	C639.671509,210.992691 638.981201,207.643097 639.113220,204.859909 
	C639.236572,202.260590 639.537537,199.669678 639.760315,197.075073 
	C640.673218,197.172852 641.586182,197.270630 642.499084,197.368393 
	C641.901306,202.745544 641.303528,208.122696 640.306519,213.439484 
z"/>
<path fill="#D486A2" opacity="1.000000" stroke="none" 
	d="
M499.329651,206.026855 
	C498.873016,203.100464 498.416351,200.614044 497.739197,196.927078 
	C499.041565,195.397919 501.210327,192.645050 503.655731,190.164963 
	C504.112122,189.702133 505.678375,190.333633 507.471252,190.548798 
	C505.240814,192.454803 503.586243,193.868698 501.243134,195.870972 
	C503.459808,196.788727 504.658203,197.284882 506.448303,198.026031 
	C498.462982,201.527466 504.796906,209.066666 499.762360,213.622574 
	C499.618103,211.237320 499.473877,208.852081 499.329651,206.026855 
z"/>
<path fill="#DC8BA7" opacity="1.000000" stroke="none" 
	d="
M372.642853,211.134216 
	C374.587830,210.094711 376.143829,209.125687 377.699829,208.156662 
	C377.486084,212.350403 375.077972,213.995941 371.465149,213.780563 
	C366.984253,213.513428 364.406311,209.383682 364.954437,203.777725 
	C365.363678,199.592422 368.658722,196.479462 372.599182,196.968246 
	C375.825836,197.368484 378.500458,198.691467 378.106384,203.397751 
	C374.802124,201.309647 371.965302,196.155365 368.466827,201.925827 
	C366.321259,205.464798 368.325500,209.864761 372.642853,211.134216 
z"/>
<path fill="#DC8BA7" opacity="1.000000" stroke="none" 
	d="
M241.784149,194.140533 
	C239.590561,194.040024 237.837891,194.040024 235.568802,194.040024 
	C238.068161,190.843796 248.733276,190.416901 254.343414,193.485153 
	C250.896774,193.798248 248.795563,193.989120 246.439911,194.203110 
	C245.007553,200.482880 247.199402,207.340607 245.202011,213.601105 
	C244.567307,213.558838 243.932587,213.516571 243.297882,213.474304 
	C242.940277,207.063217 242.582657,200.652145 241.784149,194.140533 
z"/>
<path fill="#F59AB6" opacity="1.000000" stroke="none" 
	d="
M528.457764,211.948730 
	C527.523071,212.295959 525.827271,212.260590 525.826050,212.195541 
	C525.706238,205.351776 525.713806,198.505783 526.675659,191.647659 
	C529.476013,198.140244 528.053650,204.927277 528.457764,211.948730 
z"/>
<path fill="#E38FAB" opacity="1.000000" stroke="none" 
	d="
M414.014526,206.819504 
	C414.606049,201.003464 412.807831,195.378754 414.970367,190.224075 
	C415.467133,190.255676 415.963928,190.287277 416.460693,190.318878 
	C416.460693,198.011398 416.460693,205.703918 416.460693,213.396454 
	C415.931000,213.500061 415.401306,213.603668 414.871613,213.707291 
	C414.585907,211.569672 414.300232,209.432053 414.014526,206.819504 
z"/>
<path fill="#DF8DA9" opacity="1.000000" stroke="none" 
	d="
M401.907867,201.995499 
	C401.907867,206.214310 401.907867,209.945526 401.907867,213.676727 
	C397.786041,209.891983 398.322449,191.937958 401.907867,189.950775 
	C401.907867,194.075668 401.907867,197.791794 401.907867,201.995499 
z"/>
<path fill="#E892AE" opacity="1.000000" stroke="none" 
	d="
M520.091431,207.763733 
	C519.420349,209.990173 521.783752,213.101517 517.085815,213.622147 
	C517.085815,206.815308 517.039673,200.221375 517.155701,193.630295 
	C517.167603,192.956924 518.151733,192.300644 518.684631,191.636414 
	C519.150513,192.358978 519.998779,193.070633 520.019714,193.805878 
	C520.147888,198.300079 520.088379,202.799652 520.091431,207.763733 
z"/>
<path fill="#E38FAB" opacity="1.000000" stroke="none" 
	d="
M646.104431,200.508972 
	C646.847412,194.113220 651.789856,199.906342 653.908691,197.446396 
	C652.289246,199.717957 649.971680,201.786667 649.236877,204.315292 
	C648.421387,207.121948 649.050293,210.348312 648.253418,213.449448 
	C644.745972,209.698242 646.720398,205.102753 646.104431,200.508972 
z"/>
<path fill="#DA8AA6" opacity="1.000000" stroke="none" 
	d="
M358.207581,211.185501 
	C358.456879,206.181870 357.607880,201.428741 358.792267,196.984467 
	C359.592896,197.043198 360.393555,197.101913 361.194183,197.160629 
	C361.194183,202.156769 361.627930,207.208145 361.001801,212.124542 
	C360.711151,214.406967 358.798157,214.029739 358.207581,211.185501 
z"/>
<path fill="#DF8DA9" opacity="1.000000" stroke="none" 
	d="
M310.718262,200.550491 
	C310.290985,200.501083 310.223846,200.191788 310.062073,199.417236 
	C309.967499,198.952011 309.989502,198.998718 310.165497,198.861267 
	C310.595520,198.534500 310.821320,198.315994 311.018860,198.068329 
	C316.966156,195.884109 319.588013,197.461868 319.881165,203.506165 
	C320.001282,205.983292 320.027405,208.480759 319.838409,210.949203 
	C319.764587,211.913239 318.982025,212.822983 318.522278,213.757462 
	C317.994476,213.636978 317.466675,213.516495 316.938873,213.396011 
	C316.938873,210.349915 316.953247,207.303741 316.935333,204.257751 
	C316.910889,200.106293 315.308380,198.249985 310.718262,200.550491 
z"/>
<path fill="#DA8AA6" opacity="1.000000" stroke="none" 
	d="
M310.766541,198.112000 
	C310.821320,198.315994 310.595520,198.534500 310.142090,198.850433 
	C310.133209,198.703278 310.323700,198.429474 310.766541,198.112000 
z"/>
<path fill="#201D39" opacity="1.000000" stroke="none" 
	d="
M302.634674,136.755127 
	C300.342041,137.770721 298.404510,138.614258 296.538605,139.426620 
	C296.098846,138.755386 295.729248,138.444016 295.779205,138.231110 
	C297.752533,129.823944 295.366577,123.294228 290.208679,115.963684 
	C278.993866,100.024857 285.136383,75.294327 301.854004,62.599548 
	C318.367401,50.059860 342.441345,52.319511 356.740143,67.751366 
	C369.441315,81.458969 371.381317,101.479454 361.575104,117.647194 
	C352.080566,133.301102 332.692200,140.927490 314.760254,135.480606 
	C310.331024,134.135193 306.737274,134.285965 302.634674,136.755127 
M310.309540,73.009384 
	C309.946930,71.418488 309.408936,69.842628 309.270905,68.232475 
	C309.131775,66.609375 309.389709,64.952217 309.473724,63.309982 
	C308.864288,63.235016 308.254883,63.160046 307.645477,63.085079 
	C307.050171,64.702110 306.213715,66.275093 305.908600,67.945129 
	C305.225555,71.683983 303.468445,73.332130 299.467316,72.504425 
	C298.105408,72.222694 296.506409,73.086929 295.015747,73.427536 
	C295.049805,73.989120 295.083893,74.550705 295.117950,75.112289 
	C297.735901,75.600555 300.353851,76.088829 303.301270,76.638542 
	C302.655670,82.910034 302.018951,89.095680 301.403839,95.070984 
	C296.903839,97.045586 291.580994,93.795746 287.850098,97.148033 
	C287.939270,97.786407 288.028473,98.424782 288.117676,99.063156 
	C292.491425,99.063156 296.865173,99.063156 301.381409,99.063156 
	C302.050476,105.945663 302.651001,112.123306 303.220337,117.980301 
	C300.711365,118.907990 298.742249,119.636063 296.773163,120.364128 
	C296.936035,120.947136 297.098938,121.530144 297.261810,122.113152 
	C299.651062,122.113152 302.040314,122.113152 304.083923,122.113152 
	C305.237091,125.030540 306.155365,127.353729 307.073639,129.676926 
	C307.601013,129.507874 308.128387,129.338821 308.655762,129.169769 
	C308.655762,126.872879 308.655762,124.575989 308.655762,121.810349 
	C314.199402,121.810349 319.400574,121.810349 324.586426,121.810349 
	C324.808319,126.507469 325.009399,130.763992 325.210480,135.020523 
	C325.977661,135.014420 326.744843,135.008301 327.512024,135.002197 
	C327.512024,130.609467 327.512024,126.216721 327.512024,121.196869 
	C334.261597,121.509201 339.923462,121.771194 345.498260,122.029167 
	C345.235809,124.318291 345.040527,126.021500 344.773499,128.350510 
	C348.715851,125.407387 351.959961,122.985527 355.663788,120.220474 
	C354.429077,119.618965 352.841949,118.845764 351.188934,118.040459 
	C351.925201,111.848061 352.662598,105.646355 353.401978,99.428070 
	C357.497528,99.190155 361.273132,98.970825 365.048767,98.751495 
	C365.088318,97.989952 365.127869,97.228409 365.167419,96.466858 
	C361.207489,96.069756 357.247589,95.672653 353.290680,95.275848 
	C352.507355,88.882500 351.747620,82.681870 351.011688,76.675545 
	C353.594452,75.914238 355.711945,75.290085 357.829407,74.665932 
	C357.755157,74.080307 357.680908,73.494682 357.606659,72.909058 
	C355.946411,72.726608 354.252197,72.689468 352.637421,72.312325 
	C351.497742,72.046150 350.145386,71.583206 349.451874,70.742783 
	C347.969788,68.946747 346.853668,66.848671 345.587646,64.874329 
	C345.587646,67.362732 345.587646,69.851135 345.587646,72.826675 
	C339.926178,72.826675 334.214386,72.826675 328.332855,72.826675 
	C328.080170,67.724358 327.832703,62.727249 327.585236,57.730145 
	C326.787781,57.753128 325.990356,57.776112 325.192902,57.799095 
	C325.192902,62.856728 325.192902,67.914360 325.192902,73.048111 
	C319.792419,73.048111 315.479034,73.048111 310.309540,73.009384 
z"/>
<path fill="#201D39" opacity="1.000000" stroke="none" 
	d="
M514.695374,103.860245 
	C514.707947,99.533409 517.389954,98.441368 520.611694,98.200371 
	C523.070068,98.016464 525.553345,98.163841 528.087585,98.163841 
	C528.630554,103.050980 526.862244,106.437668 522.429932,107.689713 
	C519.287781,108.577278 516.014038,108.328537 514.695374,103.860245 
z"/>
<path fill="#1E1C38" opacity="1.000000" stroke="none" 
	d="
M790.156128,90.429382 
	C785.271667,91.400139 780.364319,91.940437 775.154785,92.514000 
	C775.495483,87.405235 777.959045,85.105400 782.000305,84.555283 
	C786.172607,83.987320 789.037537,85.770973 790.156128,90.429382 
z"/>
<path fill="#201D39" opacity="1.000000" stroke="none" 
	d="
M638.124268,87.487778 
	C644.864197,82.143883 650.341370,83.971786 651.695984,91.801025 
	C646.898376,91.801025 642.132568,91.801025 636.572693,91.801025 
	C637.068420,90.313438 637.484070,89.066177 638.124268,87.487778 
z"/>
<path fill="#201D39" opacity="1.000000" stroke="none" 
	d="
M457.730865,204.180634 
	C459.315155,202.389359 460.845062,201.033310 462.374969,199.677246 
	C463.441254,200.932922 465.436584,202.231613 465.380859,203.435349 
	C465.264130,205.956879 464.808228,209.301865 463.140839,210.716187 
	C460.625336,212.849915 458.165527,210.069290 457.730865,204.180634 
z"/>
<path fill="#1E1C38" opacity="1.000000" stroke="none" 
	d="
M351.025269,203.249847 
	C351.034973,204.022705 351.126984,204.384338 351.022400,204.675293 
	C350.264832,206.782654 349.657349,208.995178 348.489410,210.851669 
	C348.302399,211.148880 344.330231,210.022476 344.206451,209.227493 
	C343.784973,206.520126 343.542267,203.306824 344.653412,200.959991 
	C346.042786,198.025558 348.900696,198.978210 351.025269,203.249847 
z"/>
<path fill="#161733" opacity="1.000000" stroke="none" 
	d="
M349.813416,213.692566 
	C349.973450,213.565033 350.460175,213.695068 350.875153,214.138702 
	C350.582306,214.284912 350.361176,214.117523 349.813416,213.692566 
z"/>
<path fill="#1E1C38" opacity="1.000000" stroke="none" 
	d="
M621.104309,200.556824 
	C621.624146,203.521866 622.258972,206.255997 621.854736,208.826797 
	C621.703247,209.790161 619.107666,210.985123 617.677612,210.921661 
	C616.673645,210.877121 615.126831,208.992935 614.905212,207.738907 
	C613.721802,201.042755 615.426636,199.041183 621.104309,200.556824 
z"/>
<path fill="#2E2541" opacity="1.000000" stroke="none" 
	d="
M329.380402,205.910522 
	C331.059509,206.391068 332.343872,206.951706 333.628204,207.512360 
	C332.671906,208.685791 331.898804,210.515121 330.707733,210.847733 
	C329.522705,211.178619 327.917877,210.006088 326.497131,209.492798 
	C327.326630,208.325394 328.156128,207.158005 329.380402,205.910522 
z"/>
<path fill="#2E2541" opacity="1.000000" stroke="none" 
	d="
M584.837463,205.735992 
	C585.856384,206.844131 586.482788,207.959320 587.109131,209.074524 
	C585.753357,209.775604 584.438538,210.879501 583.026001,211.023407 
	C582.206848,211.106857 581.230408,209.646683 580.324768,208.881134 
	C581.698120,207.835098 583.071533,206.789078 584.837463,205.735992 
z"/>
<path fill="#2E2541" opacity="1.000000" stroke="none" 
	d="
M384.383270,208.146469 
	C386.539520,206.916931 388.589447,206.064758 390.639404,205.212585 
	C391.077332,205.824387 391.515259,206.436203 391.953186,207.048004 
	C390.881287,208.347214 389.964600,210.476486 388.694153,210.714020 
	C387.403381,210.955353 385.763824,209.331085 384.383270,208.146469 
z"/>
<path fill="#1E1C38" opacity="1.000000" stroke="none" 
	d="
M430.846558,208.549896 
	C430.187897,209.536102 429.589142,210.611725 429.036285,210.588638 
	C427.399292,210.520294 425.780365,210.018356 424.154388,209.685974 
	C424.702759,208.508636 425.149780,206.406326 425.819122,206.332993 
	C427.597839,206.138077 430.659149,203.750076 430.846558,208.549896 
z"/>
<path fill="#1E1C38" opacity="1.000000" stroke="none" 
	d="
M483.507874,201.686432 
	C486.143036,198.490829 488.609161,198.757568 490.745667,201.475449 
	C492.720245,203.987320 491.730316,209.608978 489.163208,210.784882 
	C486.152618,212.163910 483.845062,211.041534 483.119049,207.895477 
	C482.694092,206.054108 483.185333,204.001312 483.507874,201.686432 
z"/>
<path fill="#2E2541" opacity="1.000000" stroke="none" 
	d="
M278.372681,199.468842 
	C280.296356,200.391998 281.871277,201.452377 283.446228,202.512772 
	C283.186951,202.918106 282.927673,203.323425 282.668427,203.728760 
	C280.272522,203.728760 277.876648,203.728760 274.369385,203.728760 
	C275.918396,201.981339 276.971161,200.793701 278.372681,199.468842 
z"/>
<path fill="#E892AE" opacity="1.000000" stroke="none" 
	d="
M310.737579,73.028748 
	C315.479034,73.048111 319.792419,73.048111 325.192902,73.048111 
	C325.192902,67.914360 325.192902,62.856728 325.192902,57.799095 
	C325.990356,57.776112 326.787781,57.753128 327.585236,57.730145 
	C327.832703,62.727249 328.080170,67.724358 328.332855,72.826675 
	C334.214386,72.826675 339.926178,72.826675 345.587646,72.826675 
	C345.587646,69.851135 345.587646,67.362732 345.587646,64.874329 
	C346.853668,66.848671 347.969788,68.946747 349.451874,70.742783 
	C350.145386,71.583206 351.497742,72.046150 352.637421,72.312325 
	C354.252197,72.689468 355.946411,72.726608 357.606659,72.909058 
	C357.680908,73.494682 357.755157,74.080307 357.829407,74.665932 
	C355.711945,75.290085 353.594452,75.914238 351.011688,76.675545 
	C351.747620,82.681870 352.507355,88.882500 353.290680,95.275848 
	C357.247589,95.672653 361.207489,96.069756 365.167419,96.466858 
	C365.127869,97.228409 365.088318,97.989952 365.048767,98.751495 
	C361.273132,98.970825 357.497528,99.190155 353.401978,99.428070 
	C352.662598,105.646355 351.925201,111.848061 351.188934,118.040459 
	C352.841949,118.845764 354.429077,119.618965 355.663788,120.220474 
	C351.959961,122.985527 348.715851,125.407387 344.773499,128.350510 
	C345.040527,126.021500 345.235809,124.318291 345.498260,122.029167 
	C339.923462,121.771194 334.261597,121.509201 327.512024,121.196869 
	C327.512024,126.216721 327.512024,130.609467 327.512024,135.002197 
	C326.744843,135.008301 325.977661,135.014420 325.210480,135.020523 
	C325.009399,130.763992 324.808319,126.507469 324.586426,121.810349 
	C319.400574,121.810349 314.199402,121.810349 308.655762,121.810349 
	C308.655762,124.575989 308.655762,126.872879 308.655762,129.169769 
	C308.128387,129.338821 307.601013,129.507874 307.073639,129.676926 
	C306.155365,127.353729 305.237091,125.030540 304.083923,122.113152 
	C302.040314,122.113152 299.651062,122.113152 297.261810,122.113152 
	C297.098938,121.530144 296.936035,120.947136 296.773163,120.364128 
	C298.742249,119.636063 300.711365,118.907990 303.220337,117.980301 
	C302.651001,112.123306 302.050476,105.945663 301.381409,99.063156 
	C296.865173,99.063156 292.491425,99.063156 288.117676,99.063156 
	C288.028473,98.424782 287.939270,97.786407 287.850098,97.148033 
	C291.580994,93.795746 296.903839,97.045586 301.403839,95.070984 
	C302.018951,89.095680 302.655670,82.910034 303.301270,76.638542 
	C300.353851,76.088829 297.735901,75.600555 295.117950,75.112289 
	C295.083893,74.550705 295.049805,73.989120 295.015747,73.427536 
	C296.506409,73.086929 298.105408,72.222694 299.467316,72.504425 
	C303.468445,73.332130 305.225555,71.683983 305.908600,67.945129 
	C306.213715,66.275093 307.050171,64.702110 307.645477,63.085079 
	C308.254883,63.160046 308.864288,63.235016 309.473724,63.309982 
	C309.389709,64.952217 309.131775,66.609375 309.270905,68.232475 
	C309.408936,69.842628 309.946930,71.418488 310.737579,73.028748 
M349.100159,89.569344 
	C348.669464,86.114517 348.381622,82.632011 347.721191,79.221687 
	C347.522278,78.194611 346.283478,76.572510 345.527954,76.576408 
	C339.795593,76.605873 334.064972,76.971695 328.454651,77.227158 
	C328.454651,83.636864 328.454651,89.498962 328.454651,95.307404 
	C335.549011,95.307404 342.245209,95.307404 349.168671,95.307404 
	C349.168671,93.431030 349.168671,91.961044 349.100159,89.569344 
M331.787842,99.179108 
	C330.549713,100.021378 328.300812,100.797333 328.240509,101.716873 
	C327.896271,106.963020 328.073456,112.243393 328.073456,118.460724 
	C334.120483,118.460724 339.578217,118.566261 345.024292,118.361763 
	C345.985413,118.325676 347.593628,117.097420 347.719818,116.244644 
	C348.531616,110.757935 349.014038,105.222511 349.660797,99.178200 
	C343.323730,99.178200 338.028229,99.178200 331.787842,99.179108 
M307.012543,95.685150 
	C312.779938,95.685150 318.547363,95.685150 324.481323,95.685150 
	C324.481323,89.180840 324.481323,83.308060 324.481323,76.663872 
	C319.366608,76.663872 314.578827,76.610184 309.794434,76.713409 
	C308.933685,76.731979 307.379761,77.333664 307.340393,77.773140 
	C306.809875,83.694565 306.491119,89.634964 307.012543,95.685150 
M324.814117,107.565598 
	C324.814117,104.952034 324.814117,102.338478 324.814117,99.456528 
	C318.001678,99.456528 311.764679,99.456528 304.680481,99.456528 
	C305.486053,105.301308 306.166870,110.849075 307.105377,116.352898 
	C307.236511,117.121964 308.614227,118.210251 309.447754,118.240356 
	C314.385376,118.418625 319.332703,118.328300 324.814117,118.328300 
	C324.814117,114.427895 324.814117,111.472969 324.814117,107.565598 
z"/>
<path fill="#1E1C38" opacity="1.000000" stroke="none" 
	d="
M349.134399,90.030205 
	C349.168671,91.961044 349.168671,93.431030 349.168671,95.307404 
	C342.245209,95.307404 335.549011,95.307404 328.454651,95.307404 
	C328.454651,89.498962 328.454651,83.636864 328.454651,77.227158 
	C334.064972,76.971695 339.795593,76.605873 345.527954,76.576408 
	C346.283478,76.572510 347.522278,78.194611 347.721191,79.221687 
	C348.381622,82.632011 348.669464,86.114517 349.134399,90.030205 
z"/>
<path fill="#1E1C38" opacity="1.000000" stroke="none" 
	d="
M332.260254,99.178650 
	C338.028229,99.178200 343.323730,99.178200 349.660797,99.178200 
	C349.014038,105.222511 348.531616,110.757935 347.719818,116.244644 
	C347.593628,117.097420 345.985413,118.325676 345.024292,118.361763 
	C339.578217,118.566261 334.120483,118.460724 328.073456,118.460724 
	C328.073456,112.243393 327.896271,106.963020 328.240509,101.716873 
	C328.300812,100.797333 330.549713,100.021378 332.260254,99.178650 
z"/>
<path fill="#201D39" opacity="1.000000" stroke="none" 
	d="
M306.566223,95.627899 
	C306.491119,89.634964 306.809875,83.694565 307.340393,77.773140 
	C307.379761,77.333664 308.933685,76.731979 309.794434,76.713409 
	C314.578827,76.610184 319.366608,76.663872 324.481323,76.663872 
	C324.481323,83.308060 324.481323,89.180840 324.481323,95.685150 
	C318.547363,95.685150 312.779938,95.685150 306.566223,95.627899 
z"/>
<path fill="#1E1C38" opacity="1.000000" stroke="none" 
	d="
M324.814117,108.041817 
	C324.814117,111.472969 324.814117,114.427895 324.814117,118.328300 
	C319.332703,118.328300 314.385376,118.418625 309.447754,118.240356 
	C308.614227,118.210251 307.236511,117.121964 307.105377,116.352898 
	C306.166870,110.849075 305.486053,105.301308 304.680481,99.456528 
	C311.764679,99.456528 318.001678,99.456528 324.814117,99.456528 
	C324.814117,102.338478 324.814117,104.952034 324.814117,108.041817 
z"/>
</svg>